<mxfile modified="2021-02-12T23:56:31.397Z" host="app.diagrams.net" agent="5.0 (Windows NT 10.0; Win64; x64) AppleWebKit/537.36 (KHTML, like Gecko) Chrome/85.0.4183.102 Safari/537.36" etag="JxX1X4cDIRRsd5uhVUvG" version="14.3.1" type="github">
  <diagram id="WI9T0HZ2pTsCkuznbFz-" name="Page-1">
    <mxGraphModel dx="2574" dy="1404" grid="1" gridSize="10" guides="1" tooltips="1" connect="1" arrows="1" fold="1" page="1" pageScale="1" pageWidth="827" pageHeight="1169" math="0" shadow="0">
      <root>
        <mxCell id="0" />
        <mxCell id="1" parent="0" />
        <mxCell id="URb7ShDhbX8bjMATs06p-10" style="edgeStyle=orthogonalEdgeStyle;orthogonalLoop=1;jettySize=auto;html=1;exitX=1;exitY=0.5;exitDx=0;exitDy=0;entryX=-0.003;entryY=0.375;entryDx=0;entryDy=0;entryPerimeter=0;sketch=1;" parent="1" source="jqk6BCaP8Qqh_6VqfDuk-22" target="URb7ShDhbX8bjMATs06p-9" edge="1">
          <mxGeometry relative="1" as="geometry" />
        </mxCell>
        <mxCell id="jqk6BCaP8Qqh_6VqfDuk-22" value="" style="whiteSpace=wrap;html=1;sketch=1;rounded=1;" parent="1" vertex="1">
          <mxGeometry width="354.5" height="750" as="geometry" />
        </mxCell>
        <mxCell id="jqk6BCaP8Qqh_6VqfDuk-26" value="" style="verticalLabelPosition=bottom;html=1;verticalAlign=top;align=center;strokeColor=none;shape=mxgraph.azure.file_2;pointerEvents=1;sketch=1;rounded=1;" parent="1" vertex="1">
          <mxGeometry x="209.08999999999997" y="488" width="47.5" height="50" as="geometry" />
        </mxCell>
        <mxCell id="jqk6BCaP8Qqh_6VqfDuk-3" value="" style="verticalAlign=top;verticalLabelPosition=bottom;labelPosition=center;align=center;html=1;outlineConnect=0;gradientDirection=north;strokeWidth=2;shape=mxgraph.networks.mainframe;sketch=1;rounded=1;" parent="1" vertex="1">
          <mxGeometry x="194.5" y="123" width="73.33" height="60" as="geometry" />
        </mxCell>
        <mxCell id="jqk6BCaP8Qqh_6VqfDuk-4" value="" style="shape=image;imageAspect=0;aspect=fixed;verticalLabelPosition=bottom;verticalAlign=top;image=data:image/png,iVBORw0KGgoAAAANSUhEUgAAAZAAAAD1CAYAAAB+8aORAABw80lEQVR42uy9B5Qc53Um+t2q6jzdk/Mg5wwSIEiCBDMlUiIlkRKfAmXZfmvRPufJ+/xWu2ffntXu0Ype7cpp17K1svW8sigrU4FKzAEiCIAEAZAAkXOcnHp6pqdDVd136q+q7uqensEMMNPAgP/H08RMT3elv+p+N1+NmRkSEhISEhJThCIvgYSEhISEJBAJCQkJCUkgEhISEhKSQCQkJCQkJIFISEhISEhIApGQkJCQkAQiISEhISEJREJCQkJCEoiEhISEhCQQCQkJCQkJSSASEhISEpJAJCQkJCQkgUhISEhISAKRkJCQkJAEIiEhISEhIQlEQkJCQkISiISEhISEJBAJCQkJCUkgEhISEhKSQCQkJCQkJCSBSEhISEhIApGQkJCQkAQiISEhISEJREJCQkJCEoiEhISEhIQkEAkJCQkJSSASEhISEpJAJCQkJCQkgUhISEhISAKRkJCQkJCQBCIhISEhIQlEQkJCQkISiISEhISEJBAJCQkJCUkgEhISEhISkkAkJCQkJCSBSEhISEhIApGQkJCQkAQiISEhISEhCURCQkJCQhKIhISEhIQkEAkJCQkJSSASEhISEpJAJCQkJCQkJIFISEhISEgCkZCQkJCQBCIhISEhIQlEQkJCQkISiISEhISEhCQQCQkJCQlJIBISEhISkkAkJCQkJGYZNHkJZgbMDCIS/04F7nesfyUkJCSuZRBPVcJJTIUgrMtLRMST2J74nPOvJBcJCQlJINczaVgC3zTNHEFMINgnI/F5vH0WcohNMpJQJCQkJIHMDqJw33OFdzFh5H4wTRO6rotXJpPB0NAQEokEJxIJ8Xs2mxV/s77r8/nEKxgMorKykmKxGMLhsHhP0zTxKkUyniUrsFpKHK9cTAkJCUkg5SYN18KYiDAMw0A8HrdIgvv7+3Hu3DkcO3ZMvE6cOIHu7m5BGtYrnU5b1grcl7UtRVHES9M0CgQCgjgqKiowb948LFmyBEuXLsXixYvR1NQEi1wskolEIkWHze4PpChKzjqRRCIhISEJpEzk4SGIUqSRIwyLKE6cOMEHDx6E9Tpw4ABOnTqFnp4edi0MiyCmA5YF4pJKa2srLV++HGvXrsWKFSuwcuVK8Z6HULzWyRjLRJKIhISEJJCZsTzYE8QuII3R0VGcOXOG9+3bh127dgnr4vjx44JEJiCK6ZLWJdemuroay5Yto4ULF2L9+vXYsGGDRSrU3Nx8STKRkJCQkAQyDRYHitxUroTVdR1dXV381ltvYevWreJ1/vx5HhwcLCAIx2UEr9toGklkzLpYx2odo0Nc7FopjY2NZFkm9913H2677TZBJtFo1GtRoVQAXkJCQkISyJUTh3grHo/z3r178cILL2DHjh04cOAADwwMeL+TiyuUIA2ajPUwlbWZYHtcdCxwyaStrY02bdqEe++9F3fffTcWL17surE4fxoia4yKXHcSEhISkkDGIw+vq8p7DeLxOF555RV++umn8frrr3N7e7uHMwriIhMJeS7xN74MS4Q93y21r5Lr5bUurM9EIhERhP/IRz5CjzzyCNatW0f5SyEtEgkJCUkgk7Y6SrmqLOvi5Zdf5p/85Cd49dVX0d/fnxP4bjykiAAmsgoulzCmSig0zmfgtaacYxf/W716NT760Y/SY489Zv1MqqqWJBJJIhISEu97ArmUqyqZTOK5557jb37zm9i+fTtSqRQXWRuliIPHsUBmgjSmYpmUOj4vM+Tea2trwyc+8Ql64oknRJzEc7IFbi1JJBISEu9rAilOyXWF6fbt2/kf//Ef8cwzz/Dw8DDGEcbFP/NVIIypkkopFxeXOpfly5fjiSeeoE996lNu5pZ0a0lISEgCKa4Yd62OU6dO4cc//jF/+9vf5hMnTuASJHCtE8dElslEsZLcOfj9fr7//vuFNXLfffdROBx2U38liUhISLy/CGScWAeGh4fp2Wef5a9//et46623WNf1MVlJE8Q2rmXimCyRFJ+TN07CjY2NeOyxx+jzn/+8SAV2rRHHnydjIxISEtc3gYznsjp37hz+6q/+ir///e+LViMeoYhLxDhmE3FcikjGO0dWFCVXU7J+/Xr60pe+hI997GOkqqp0aUlISFz/BDKey2rbtm38la98RaTnelp68AQxjutVOvI4hOjtyAjXGvmjP/oj+sIXvkBNTU0FAXZJIhISEtcVgZQij5GREfrBD37Af/EXf1Ec6/AK0OvJ4rhcq8T9PZeB5qb+fvzjH7esEVq/fj28M02kO0tCQmLWE8h4tR29vb34L//lv/C3vvUt0djQk8ZaHO/g9wlxXMoaKa5uz12vlStX0pNPPolHH31UfM40zYJuv9crkbB1SZhAxCh+Mq6XxpQFihc59wDLeiCJ9wGBjEcex44dw5e+9CX+2c9+JoRdkZuGShDG+4k4JiIT73UqINaGhgb85//8n0WA3e/3vy+C6+N1LLherDCLIAkF5+ftUFD8noTE9UcgxeSxe/duQR4vvPDCROQgyaO0JYJSQXc3LhKJRPCf/tN/oj/90z8Vqb7XK4nYlgeKyYMKb73rhEScZyhrZunk6BHWOYuFoWUUViPSApGYEtQvf/nLX56t2qH1v23btvGf/dmfiR5WiqJQUYYVFbmtJHkUWmTFxOpNaRbXN5PJWNcWqVQKN998MwWDwdwCXE8uD7JOm/KuHJMN2p3Yzm8mXkfKTKLe10QqqfmEDFuTn50WCNlUmdDj/FT31/md5A4s869Ftb9WuLQIkkEkJgdtthAHxk4IFPUdX/ziF/nIkSMoanNO78NA+eUSybhpv660tEjkr//6r8VY3ieffJLq6uquOxJxXTvO3UHdmQ480/FDdCpneZ5vCZp8bWgJzMnPv2dLg5mdJOJ9rkayIxg2EzBhyqdB4vokEJSIeTz33HOW5cHHjx+HU88wUSU2ldC8JUpfmwJLzWUH0zTpH/7hH8Q1/epXv0rV1dVeEpn9wWXhwWJXA8e+xG7u1TuYDB9dzJzl/Ym30exvBZECJ/icI49S45DhCbpPZPXYFsHE2ynxLJS83pP6PhVuRxH/qcW+unH3WXDeebffJfZJ1kZlCvh1CGU2ua1c8tixYwf/h//wH7zkgRIuK4xTZS4xoRgda6k5RCGu57e+9S3+b//tv/HIyAg8tTWzvhjVcYkK901ftgfvxHcioIRoc/XdCPsqsDe+A72ZHuQaT7IjQJ3vFmzD+d29d8d7OeThDiWDZyImT/g9LvzeVL7vXSkWlGkxAOfOxT2m8fYpztvdX95im/B44TlPCUkgV5U8Dhw4gC9+8YvYt2+flzyK3VYTda6VmLxLK0fIrnZrWSJ/8zd/w3/913/N2WzWtT5oNgsId0CYK0QPD+/ns9kTvDi8Eo80PU5LQivpTPY4Hx7Z7y2+9JJI/nqx/fIQiX39zAwxJ8lkPXdNi+J5BV2R3Zdh6qSbWTJMo+B7yA84Y6+F7v2+buqUMTOUNbP2cbn7dInP1RHYKxBEHJFMNsX3nGePijPTcr/Dc47WNTRZWKvW93PHC7FPkiQiXVhlfai9Qs26+06cOGGRB7/55pvipi1yW000hEniykiEPS1gYBgGfe1rX+NoNIovfOEL5PP5Zm2GkrcNjnWuw+Yw703sFGe9uepuVPvqsK7iJhwY3Y13EjuxNrYRVVo1is5TfLcn08n7U28jQH7cUnEPNPLR2dRJPpzcjwGzHRkjiQBVotW3ACsr1qPWV08eQSzox2CdhrIDfHL0GLqMi0joceicgV8JokqtxfzAEiwMLyONNHiKQPPXH0wXU2f46OgBdOntSJoj8MEnvjvPvxjLKlZRSImwd7m9CQF74jv5dOaI+J5uGqjWarAstApLIqvJR/7idRb7T5ojfGR4P05njmMECZhsokKJYZ62CCuj6xBRosUkIjO9JIGUx63gPuBdXV348pe/zC+++CKX8NuTJI0ZIRGM05yRk8kkvvKVr4hakccff5yK01wxS4oNPeQhcDJ5BKezR3lhYBktDa8Sf1xesZbaBufjVPoIn0oewY2xW+1ELPubxGSCoKAzdQG/7PseR6iSVgU30cHhPfzS4C+5L9ODWKgSlr4Tz/TB0A0sCa6kBxo+zmsqNnjrTehgci8/3/9zXMyc59HsMEJaGEQqUkYSWSONOrWZbq++j++p+TAiarTguieNYdo5uJXfGHqJL6bPoiIQQ4UWRcbIYCDVgyDCuCG6GffWP4w5/nk5V5RKCpLGCH7d+yN+pf83rCOLsC+MRGYII5lhagg0893VH8a9tQ9RUAkVkMeF0bN4se8XeGfkTWHj1EUaRAHmQLoPvzMMrBu+iT5U9wm0BOaRp/5EPmGSQMrjurL+zWQy9Jd/+ZeiKWIJ90qBFjhrMq2ufQfbeH3Ccl0WBwcH+cknn+QFCxZg8+bNYsFmowXiavFpI4W98e1I6SPYVH0HYr4q8ZFqrY42xrbgpz3/jL3xnVhRsQ4hJVxshUBVNKiGH7puYmvfc7wt/gLPiyyiB6ofRYO/GRatto+exc74q9if2M29Rg8eb/5jrI1sICaLdRVkYSKZTWJj5DZqUlsR06rgU/wY0uM4njyEd4ff4t/0/hgaqfTBukftALh17GaKXuz5Jb8w8HP2qwHcU/UQrY5sQFWgBqP6ME4nj+ONgZfxSv+vOWHG6fda/hQqqeL8s4aOV3p/hV7q5lsq76IlgZUIqWEM6L14d3AX3k2+hef6fsaNwTZsjN7qHCtRZ/oiftzxT3xgZC+viW6gO6s+YBGFZWegI30Ovxt4Hjvir/FINoFPNj9BTYEW8sSHJJFcB7jm6kBKVALTj370I/7qV7/KqVSq2NKYXW1JaJLvXUPLMVFnX7d9zIULF+iee+6hWCyW0+png4DwBJzFYZ8ePcrP9v+Um/1z6MN1nyRLiDIYCikUUkM4nDwg3Erzg0tQ729yrBCneEQI1Ha8l9qNocwAzo6exM2Vd9Bnmv+EFoaWUo2vTrzmhRbTssgaSuojODzyLvozPbSiYh251kS1WkvrKm6iG6O30tLISmoLzafm4ByaG15IKyvWkWIqODZyAL2ZHloSWYUqrUY8B28Pvs6/6P0eh5QIPt30R3R/3cPUFGilmFpFtb4GWhReTvNDizGiD9Oc4EKsia6ntJnCjsFX0ZfpprSZ5kcbPkcfqPkItYbmUX2gieaGFtKSipUUzwziRPIQssYoLatYi7ASQZYz9HzPz3n70Et8Y3Qzfab5j2lJxSqK+iopqsWoJTiHFoSWUX+mF3uHd3KAglgRXSdcdZI8rh8o16A2WEAGu3fv5v/6X/8rDwwMFPiqxxHD17w4js0NY83vL8K8u5ug+Gi2WCFUym3odut96aWX2LIQR0ZGZl1Q3XW36WYWe4Z2Ch/+qtANqPJVI1ceAnCDv4XWhTdSf6YL+xK7YMCw4wfO93MXxgSN6inaGLudHm38PYooEeQTO2ynUb2/CR9qeEwI9bOZk3xs+BC7OwupIW4INHNQDTGRwu7lVqAgrEZwZ90DND+8hOLUx73ZTvG3YSPBrw++CIsQLMtjU+WdpMLHdjcv9wVeEF5Kf9D2r+mB+kdIheaQowjE46bY7bQhtpkUUp3vQfxb7avFXXUPoNJfTR3GRe5Ot4tTPTt6it8efoNrtAZ6sP7jaAg0g2EW5IU1BVpwb92HUe2vo8Pp/dyT7fLGbKT0lQQyIz7pnB/kwoULePLJJ3H48OFSd92sKgzUwioWPdSGLV+5AZu+uBK3f3kdNv27VahZHpuN1ggVC+HvfOc7og9ZqYyda/NkXOvDPp/29HnsS+5CtVInAuUExRKI4jMmTGjksywK1GsttC+5izsz7d6sqRxMNhD1R3Fr9V0IqmGYllDNkQzBJaTW4FxsjG2Bjiy9N7JbxCCcQLYg65QxSr3ZLjo1epQPj+zj4yOHuE/vYp+iocHXItJvh/WE2OrZ0VM4mzrNLb55tLFqc76+RBCcE513MhmjWoyDSijf44uAoBbkldEboJFWWGHvfMeyYOp8jciYacuCEX86PXoCfekuLA2vxoLQEmdCmUtHzpUFsCC4lBaHl6M9fRYXkmekxL3OoF2rrqtMJoNvfOMb/Ktf/cotaMOsaorocfzUrIhh7R8uxry7muCL+GBmDASq/Fj9mYVou7UeB75/Cid/exHZhD7mu9fmGRUunbVg8XgcX/va18S89U2bNnkLEa/NYLpTOOgGw/cP7+Z+o4c/GHuU5oeWOpJcIVf7t9AanE9rwxv51fhv8PbANrQ0fLrg3CzBa7Ah4haNgRbbzcdUnFjA7mfnhRYh4A8igQGkzFEOqxGySGF/4m1+Y/AV9BidYMVg07F2NNYoZlbyiEU2KpA2UkLgn0ueQDKTwPqqmyzLiVx+dIsUPfNwnDp7u1jShU8JoEKNesnVaXaiiGP1kYaYVol+sweGqFk30JE8CzYAg3XsGdnhbM/zKLqjd4iQzI5ApyyGeOC66GYscQ0SiMedIO68119/PRc0LxoGNTv6WjEQqPZh8cNzsPwT81G1oAJsMIy0YR+x9bPJqJxfgVv+7Wq0bKrHwe+fQtee/mu5iqVkYN1aG0VR6NChQ/y3f/u3+OY3v4lYLOZqA9eczztXFOdkwXZm2rEv8Rb0rI4BvQ+vDTzLWSOdrxB3XioUDOmDlqaNt4e24dbqu9Hobya7Abx9RRRFYc30k48CXouaPNXmOavFZz1+BqCzDmYTI8Ywvnfxm7xn+A2O+aqxKLCC6v2NpCoqDNNAWk+iI30RvdzDIoPdcYqNmklhLYXUMDTyF+wXnmy4fA+vwhVVqKghi7O6uWMli0qVnGVisincZRaOpN/j033HctUwpdpgZ/UsQmrEIslZ20NM4honEG8qY29vL/7+7/8e58+fxziTBHFNkoeH0hrWV2P1Zxdizp2N0AIazKxpP2CKx5vBDDPLIJWw4IOtqF1eicM/PoMTvzmPVF9mtriyvDU59Jvf/IYffPBBfPazn6VrOZjuFeQHknv51MgxoXhvG3iRXx94Id9csZh4hK5N6Eq1876hXfhA3UfHBLJ0ZJDlNIAIvPUZRfc5ssgKJ7LtOgJt63+R3xx6jZt98+gTjZ/D6ugGCiiBgm0PZvvwTNf3sTu9jR1nkcgIU6AKAsqaGWiq5rU68uTh/Mx0iQen+LyLEh4VUhFUQ+Lnxb6VtKnqNmiqUtqycM7WBGNeYKkkD0kgM6MRev3JP/3pT/mll15ib6C2hOvqmhSt/kofFn2oFaseXyisDiNjwsgYgji8mqD3YbVO0UgZiM2JYOO/XoGGddV4759PoOe9wWvRpTVeoaE4qaGhIfzd3/0dtmzZgnnz5uWO/FohEqcbrbi1rP8NZQexu/91+DQfNkfvpTp/o4hj2OHBwgQ/6z9N0dA+eg47B1/ld+I7sbFyM2p89fn7mEls82zyBFdVbnJKH1CQvuoOcbqQOYOskeZK1JFKKg4m3gErjDtq7seGys3kBLILXGSVWjWF1QqAFXEe1nttofmI+CpwPn0KA9leDqlz84Oi8tXnk45JuTGUcR5W4dJrDrZBUQkBLYCbK+8iy0KZ/OMus7AkgUyzO8ElkYMHD+LrX/86ksmk1wyncbTfa0ecAsIdte6JJVh4fwvUgAI9ZcJ6rhRV8VpaBVph7n2FBdlYn1/4gRZUL47ivadO4uRvL8BImbOFRMTPu3bt4m9+85v48z//c9I0rSBT6WqTh+O1yl3JwyP7+OToMV4aWkkPN3yKqv21wkVD43zf0r77Mz1oT5/BifRhPph4F1tq7s+lB/pUjQfMYbze/xItqliOCjVGTGYu+4OJWYFCXZmL2Nn3GshQsCyyChEtIiwXTVFFvAHCy2mI1iJuIN9SQUbMYZxLn0Qmm8o5o+aHFqM1MJeOjR7kHQOv0qPNvycsEjcJwCEDceaWlWIhIkjoMq6hc+kWhJai1t+IIyPv4fjoQV4WXkMGG1xMDBbZpIxR8ik+qKTJ8cjXGZRrwHWV0051Xcc//dM/8eHDh72Bc5SVPGiKL4YIaC74YDPu/osNWPLwHCh+BUbWJgOv1eHkwLt5KoVEQiQ0Omt7RtpE9YIobv7iKtzy71cjOic8dijvZF9loc6xxPLUU0/xtm3bvB19r3rqpuuWcgnNEqY7Bl4Bk4kbYrfCIg8Gs0KKSKEtfrkprtW+WtxUdScMU8ee+HYkjDi72rlFFX4lgGOpg/yLzn/heLZfBOPd7CSLEHozXfh110/4bOY4Lw6upNWxDVChoUKthG7qODpySBT3qaTmaqGs7xkw8FLPM3wieYhVyut+Ua2StlR/EAElhK39z+O13mc5Y6bJTgKg3L7b0xfw3fZv8E+6v81xfVDENewsX0zqZiFQLqFgfngJ3Ry7k+JGP/+6+we4mD4tjlcRW82/zo2epB90/CO/PviimLEiyUNaINPptvK2K6GtW7fyD37wg1LV5uWzPKYo4wKVPqz41AKs/MwChOsDQvhb25jI6pjoZ1Lsfy1rxBfRsOKT8xFri+Ddbx1Dx9t911pgvZRlKNDZ2YmnnnoKmzZtQiQSuSZcWPn24/bxHhs5yEeTBzHXv5BWR28ck5pcQtlxfK0Kbojdgq39z9HJ9GE+NnyINlTeKtYwa2QoplbjxugteHN4K7efO4/N1fegKdgmLJuO9AVBWsfTB7k1uAAPNTyGGq1O7OvO2g/gdPoY3hreyr6LAdxStwXVvlrKcoa70p3YPbQdJ5OHuUZtoGF1qGCe/aaqLTSY7cWzfU/z013/jHOjp3FD1SZUabUi/fZi5rwoGjyRPMjrKm4i3czAR37Hk8eXeljHzIdXSeW7ax+kruwF7Inv4P99/m9xS9XdmB9eLKybpDGCUyPHsHPwVZzPnuKQGhEEaFlGEpJApsXycB9URVFE2u4Pf/hDdHd3jzdfYMbJo6I5hFBdQGRLXWpPbDK0sCXgFwiXk6XMGaOmbdMJErDHIHhnNxS7rrzvj/mMCjtry2C0bq5HbG4E733nBLre7c8H4iciQet4siYS55PQk0Y5KTcXr3ruued469at+PCHP1wQC8FV75NFInPprcHfQfen+cbKzdQUaBXWh5v+Wmr9vWmwDf5m2lC5mZ8behpvDf0Oa6MbhXvLjZM83PhJtIbn0i86fsg/7PkWglpIWCej5jBYZ6wIrqePNH4GyyOrc9dmdcVG+ljd4/h194+xbfRZ3tvxBgIIgslASk9z1KykjzZ/mk4lj2F76kXhonKJ0bJ6Hmr8FFX6avGbnp9g+/BLvCe9HUEERept0khAMwK4u/LD9MG6R6jW34CBTK+IuVjExjz+QCk7zUyHqRq5wVPWPmt9DfhM8+cpqlRi19Ab/NO+byMyGIUGH+mkczI7jDBX4JHa36O76z5sE5aEJJDptD7ce3TPnj38/PPPM8YZaDPT5KH4CGv+YBGWPjoPelIXmVGXEpvWZywrwfrZ1NkW+q7sEU6DQmIoFpoFMZBSn1FsjdmyRiLNIWz6t6vFsU2G3BRNQbInhTe+ss9ODZ65GEopK0SYG5Yy8JOf/AT33HMPQqHQVbdCvMFhSwNfHlmLeaFFdFPV7V4X17iKilt86K7XltoPIEAhimox6NBz+UpMdqzkjqoHaE5gIQ4PH0av3o+03i9qRNqC87GiYh3V+OrgBpXd5+H2mvtpXmgJDgzvQV+2G0l9RMwjafS30JqKG6kp0IaoWsVRNSZamSDfll0c923V99L88BIcHt6HzsxFjOgJQS7VvlosDa/C0sgq8tuZXRzWInRf9GGMGmnUBhu82yq4Vhb53Rq7F0sza2lOaEHBPqu1Bvpk8+fpxthmnEodR2+6C2kjiYi/gup8TVgRtq7xYjfInkvLl5AEcqVxj1yKYzqdxne/+120t7fjagXJrWPSQhoCMZ+IRZCqeBJZxlG7GTlrxbUK3GfDGcKGyUzrK7ZScv/mffZCa7X24Y/5LnFhyCYQH0EfNaBoVB7v0DhWyKuvvsq7du3CnXfeedUzsryFdVGtiu+qfWBMM86J1qooLZmbfK30kcZPFSlGBHHn2Bo9LwgtpQWhpeLvaTOFgBIs0qW4uMEgzwnNJ+tlHVLGzMBfmMrLqyrW06qK9V4Hk1vJwZagnhOcT9ZL1GvwqND8NfIV3rrMFFBCfE/tw6UakhZcKx/5+ebKO8ZeK2cMcEAJYHX0RlodvRFZzgpyDqhBr7uqIJ1NxkCuHyhXywJxHhp2rY/nnntuvDbtZSETcTCmrb1bpMCmKdpvj/cSn3NiFvkwJRUEyO1/J+euKUUiBS/FqfWd4Jjsl3PchnuMZYuFFKyVW0R44cIF4ZocHR1FQTX01bJACoaUca7vE/JdESd7u7hptmzCcE1qQR+eoDSxZx8BJcieiEJBRlJRK3znM8R+JTDmO97fcwOb3BoPz3kppHBIibBGvtw2vNaOM0Rr7DWY5LXyjPTNbcdHPg6pEVagFh+zV2mUklcSyBWTiLiRDMPAM888g7Nnz5bUVspaBZErJ7aFtqIol3x5CaNovKjz79Qts+LteUlkMsekeEitrAr+OOv37LPP8t69ewvW8ipnZDkCzZ4e6BFwdKlCNy8Jis/b5XzibyYbSHESGco4wWmHkpx9uC/3d69Fk9uumyU2zneK/w47ckP5psCF51W8DYf2yAnR2UNpi67BZK+Vk5SQ3/cEx+x+TpKHJJDpsD5yWtzhw4fxyiuveGMiV7fivET18WReBem6pQoGp0Aixf9O9hiKhTKXXyhTodCxhU17ezteffVVYR15x7BeNfep454pOUF/KvcIuVXd9htVvhrcUnkXbqq6DSr58oqPJ5nW3V/BcXi2m6uAd4Wt59/iv+cUHnIaJxJP6vtuJTo7xz/eNbjUtZraPmULE0kgM+Azf/vtt/n48ePFdR/jDY26akLnUi/MQGZRMSlN5hiuMsakW1tkYVmZW7duxcWLF21N3TSvejDd/df9z/v+VL6fswAAbgvOp0/XP0GP1HyOAhTKa90obLg43v6Kj2ui98b7zGS/X7ydyR7Tle5TQhLIlWuAjtk+NDSEl19+GYlEQrheJiIaiVmBMe5Gt8PAgQMH8M4773hboM/6mRBuY8BcqxAnZmG9yGmGTvIOlpAEMn3uK0doCEFy9OhR3rNnj/s3vrRDSWKWkMgYpaG7u5stZUHX9VkzsXCylogbOymIOViEwlIDkpAEMt2uoFy/nG3btuHkyZNu+sk14a66np54wjURtMxZJTt37hTr7UnnvD6ucylXIzyxAAkJSSDTY4GYpimeqL6+Prz++utCI8XYTk/lrwMBPFWA1wdKBdbLTBq59E3r53fffZffeustr+C97kabip69+ZTanMXN7pRYO5U2917+M961en/bLW4BI4/zn/cz18r6FXzvfbR+VyMGIgTL2bNnXffVRE0Ty3fTmuypPufrgT1AmtOg0VPgeJXsOGFkWsqCteaZTOaq14RMBzmXFjJ2QqsTWmdP5Xq+uY3zDDjWuPN5JxG2YNN5Yim3UColSCfK/LscRcDeR35fuevHTmpCvsNz7kXITXTk6Tg/z3myU7xbav1onPWDu365ROZ8B37Ob39qpDLZ6+695tOxHpcD7WqZ+8eOHUN/f7/X8ihpFJQLrbc3oPmmWpgZc/a7HQiikDBU7cfSj81B/9E4Uv3ZslfUFBTcOTe0ZYEMDQ1xXV0duS1PZhtxuIKjeO57qTT0pDGMUSNpV2hzlk02oZFGPjXAPvgookXhy1eJe7dTsA8WjeA9jTdneLIfsTNK/RJzRJxBWVM6GG+XhXzp08TXsYSCQlMlDLc4ssgCpkKSR0EtUNpMIWmOcMZIk7V+BhvQyEcBa/0UP/wUoKASKlo/FK2fUxVaYozDeDLSKUDmS3S9RvGo5FyRZ5meK+0qWB9CA92+fbuoTh7P7VFONG+qxaZ/s1IMdBLddJVZbf/bN6hzDgsfaEMmoePt/3kY2WG9nCRSsoPy8ePH+dy5c1RXV1cgkGeFW4ULR9R6BZ0BE6PGCHoyndyVuoiEmRCddwfTvUiZNoFkOCuKDf3kE8LHR36OqBVoDsxBQyCKsFaH1uAiRNVK0a+KCmeo54R5ORIQ2JWpIDZFhllpnc4+Lk9xySQ069w5oFBwW3/PcNoS2BjI9nF/pgcjRgIpTiPNGUTUMDZEb0WVVjNlWVFcWV9MGtb6pjmFwWw/t4+eQ1yPozN7Af3pbtFZWDeznDUzoueZX/Gzj8T6wacEudkfQ3WoHpXqXLQEWlHjr6Mghey9jrN+xendY66TQwMZpDltpkmFIhpZKqQipIRFu35V0SxlRGxfZ53EvWV3LqByPVdaOTU3t/NuPB4XmmhO9Sjtwpp5HZmB+rXVuPX/XYPqRdEceUynZlfcZXd8jWOaFpzGxj6WfXyeGG61++8PwyzfcCoqUZ0uUrbffPNN3HjjjZe8LtcKaeSEnl16V0AcQ0acz42exKHhfTg+chD92V5L6HHKSFpCx25tYg+FAnkuS96FYgpp4lcDiPiiiFKMmvxzeFXlDVhesQr1vmbKdbGlwvYnM1qg59GAz6dP8/7EbtG0hZwwpQEdbcF5WBe5iXyK37k2NIHFMWZOe+4ajppJdKTP88nkERxNHECX3i6Edtoc5ayRETPjLQKu8zdiQWAxVWk1k7bA7DWkXAt/j4VAroXRlbnIR4b342BiHzqyF5E0EqKTcMZMC5klZq8Ur5/jnjJME4oCDqhBsX5BClFLoI3XxDZiUXiFaIIZUsIFCrRDHnbn53HWTxA3GbQ7vh17Bnaybh0LGPMiy3B33QP0fM8vuCU4F3dVfZAs0n2u+2di2w81fJJUUsumiF8NC4ROnz7NTuPEXIC1rNaHs7fqJVFhedQsq4SRNnJVs8Xt1q+EOCaznWJf5nQQSU44m3bX4BWfnI/R/rRoCQ+znM60wi692WwWb7zxBp544glomjYZd8XVtubGCD1LE+zP9PDexE4cGN6LM6mTnNQT0PWsvXaipaGGgOOaIsVD10Vn6w4/ZJORSA9hCAPcnj6PQ+m9qO6vx/LIGqyM3IBlkdWIqjEq6PDp8MeYivZpxoXRM3hx8OeczqTs0VggpM00Nka30PLQWljW1KSsNs81NNhAd6aDjycPiqmGR0cO8AgnYO3DZFOMo3IFqxhNxSr5SOOpkGXe4sm1ZmNXfMf1AT4ysh+HRt7F4cQ+jpsDyGQzDkmq4iwDFLKenbwWUcrhrormpSTWLzWEIRrknnQnjoy+hzBFsaxiNdZVbMTS8BphmeR1PFsRIJHtXWL9xFsKLwwtpbSe5q19z/Gq6A20IXYLMnoGF7KncHjkXSwJrsD51Gl+uf/XvDaykUQTTyrfzBXtaviP3333XfT09PB0+DYvV6SFGwLY8IXlaN5YmycPzyJO1IZ9KgLcSyKXigtN9z5zFonB0AIK1v7hIqTjGRz72bmrGJ0BHz582Fp/NDc3i6y8cYpIr4VYh9fdIYjj4uhZMUBp/+gePp88AZMYZsbWT1WLMBwHAnKCASwK7703Hxf6yt3PESuiEZu1ZOlUhrrUi9yZvsB7h97E0tBKuqnydl5ZsZ4iajSnzTqtVGbYrcUwDQN61hR7UBTirK4LoTlZAvYqCl3pi3hr8HU+kNyD86NnOM0pkGFdKCJVUVkRUtlrUedIYNKGc2EjyDxxJYw4DiT2sqXZH08d4qSZgJm1FC0iRQheNReXgRsTN4s8eOx95twHm6Aq1v4UceyZdBZZpY/fiv+OD47sxfzAEroheivfWHUrVapVVLj2hevnjXE1+dugRX3YH3+bVkTXYH5oMV1MnUPEiCGohPFM5/es62VtHwEKlj3Z4qq0cz969Kg3E6dYwMy4VumLalj/x0sx984mMWtjPCE8VUFeanBUsXVRrMlc6vPTsn+FYGQZweoA1j+xFMnuFC5s675aVogYGnbixAlubm6ma80CcQWP+zS7xzdsDmFH/2v8ZvxVnE+fYcPUQYYl6BSoCrNp+7XtgnRWLFqx3VTkOKvMnDbsDsUQVGF/TYEdZrBDraZ1CGKkOZFiKBjSB/F2dhsfTR7AqvCNuKfuQSwILSOV1AJtduZjI+44R/b0vCqt9JUi4KQxgr3xnbwz/gqOjx4WAWno1l9Vu2Tfbs+Yuz6lIxlTJA/n+AzWcXz0EL/W95xldfCIkQB0hYgVe0S+4sz2ZUEJTqtwFn8zFWv9TOTtF9dLQXa4Gu64apfLxdBKFpZoljBsjOCAvodPJA8Ji/Wu2g9iWXgNiY4FNHb9cjLAeTR01sEKs85ZcfqWIuMjH26rvgev97+EOeGFiGlVdGrkSNmfF62c7itn7jl3dHTgaqTquuJs+SfmYdkj8/J7Vwqqii/blTQe6XiJg1SC4rNnUVvk5QbMvPPSx3b0pSnvP7cN9zIr9qz1aEsYN/3ZCjFsqv/IUDlWYczW4/E4X7x4kYoCq9cMebht2MlJfj4y8h6/1PsMDgy/w1nOQDFUW+gptqgRAt+pRDeQEYIx7KtA2BdBSAuRXwmCswwNmliPLOsgvz3rI6WPcjKbwKg+as8cZ40UKMItQsIh4bg6DJ9FYvym8RqfSh/BHVUfxB01D1CFWuEIrckFaKc1PlTCczAmUO5cz3Opk/xs10+xb/htziAtiEOYTxb5WkwJO07BJkhRx2Z92eGXS9sgxeRhbTWhx/G7/uf5dwMvcL/eA+vyW1q7nddmOgq/bTEy6aybunDLRQMxBNUQBbUQWCeopgoVCrKUBfkBa51TepJHMgkks0kxIVJln71+zmEYMEkBMekapZHBO8M7+HTqqGi6+WDDIxRVqlFMIqWudio7Sobre2YW8/wjWgUeb3tCxFi29b/MaTN1/RKI46rg9vZ26ujouGqR04UPtmLN7y8W9RH2FEEq6Ua6HOFTyorwhpG1kIpkbxpnXmlH1fwKNG+ss2eL6LamWsrtdTkkVnAclFMcbRLJGCLmc+OfLMX2P9+P0d7MTJPImK2PjIy4w8MmJN6r4rJyTAFL8Fha66t9z/KLvb/kPr0LMITdACbTjgqbwokNUzHYMHRUaDHMDa2gluA8tIYXoMHXgGqtFhE1KibyKbamYs+8Z90SAjyoD5C17fMjZ9CeOgtL0A5l41BVDYqpUk4BcOWxrqDL6MAvM9/n08kTeKjhEzQvtJiKA+xl7n5LXlIpJo898R38q+4f8YXMaSG8bYYTZCAiHYozQ8UiElZMGM6UFdeNYwlzTdHYT0Eo4/j3S2TJiX2fSR7Hr7t/zAdG9nBGzwriUGzisK0HJhgwyITOKvnQEphP88IL0Rqaj+ZAG6rUasR8VaSRzz5OYdJYNoBhKQA8kOmlvkwnOjKduJA6g9Ojx3gg0+PEbTRSWBHqiJgHT4ogkgG9Hy/pv2Tr8w/WfxwrIuuoIGXbbYHvrF9IjWBd5SY0+VvF7xEtijVVG1DpqxZjhS20hOZYygqcyY/XF4F4NbvOzk52CaTcGTj1a6qw7o+WIFwfhJ4yoKgYI/Snw3WFglQ8p8WFD+g9FMd7T53Eyd+eR7Q1jDV/uBiLHmyFL+IT9SesFH7nSjT0sRMO8yRi7Wve3c2InxvBnr8/Kn4vNzo7Oy/bVVeOeMdgth8v9P6Ct/Y/x8lsUggQWMQB218uam1UgzXS0OBrxorIWloZXYf5oSWo9zfRpawwCzW+epoDe0QsqoC+bA+fSR6nw8P7cHjkPe7OtLPOGZChOWnD9v4VU6EsZ2lXfKv1GXy86XNYG904jhAq54UsFOBZM0M741v5l10/5J5Uh6iZEFo5m06IXLEUKGLVYEUh+NmPsBZBndZITf421PjrUBOshx8BWILY0rjr/c3kKesYd9/Wr/sTb/PPO76Ls6kTLCwDS5grplM2aOkCtkUTVSuxKLRcTFRcElmBluBcKqrNGU9QUaO/BcBa8UvCGOKzyRN0InkI7yTe4oups5Z1BTIUsmxW67yF3WUSmTrTvqFd3JXuwCONj2NT5R2WklGsBIhU50qtmh5seCTH0zW+Otxb8xB5RhljTcUGyt/O5Suv0srkvsrNgrAER1ldWM5eAtV+rHtiKWqWxgR5kDJ24NOVkkcxEZkGQ9HsIODZVzux938dwcDRhPj70Lkkdn71PUEqN/zxUkQaQ8KlRYqTg89XFhMZb0yuN4674pMLMHh6GMd/cb7sQtuyQIaHh1FRUYHJjJMtD3nYx9Gf7cZPO77Lbw5tZcvqyJOHI3hUkduJRrUVN8Vuo1uq70JjoJUsMilyWrpjC6k4oOspMMt592t99VRbWY/1lTejN92JXfE3sGtwGzoy52zXjaGQdRwmmVCIWGU/nU4e43/p+AYew7/CpujtJUmkXExSQB6coRf6nuEX+n7OI5lh+BAgdq6hEOTWFVUM1hQNVUo9zQ8vxsroDVgQWopqXzVCSoSKRvmiSEDm6jcKsuWc9w8Nb+V/6fgu96Y6YdkucFtcOjELVnQOa1GsCK+jLTUfwJLIcrHP3D5Q4EUYZ/2o4HNRNSZIyHrdVncvdvS9ip3x33F36iLDVG3XFkxnZj6xjwPUnb7IP+z4J86YaWyp/oC3PgWeccXeHkvkUcjhWeOCscjlIpGyWSAuurq6RBv3smpFGmHV4wswZ0sDzKwtpDFO6uOVkod7Q7PJUH0KMsM6Dj99RqTPpgeyBSFlM8s4+tOzGL6QxPo/WYqmG2th6qadZqtg2mIiBeRjHZtij+31hTXhzus/OoS+Q/GyRqXOnz8v7gWLQNz5IGUnD3jcVmSLIUuj/0n7P/O7w2+yYqhC8Bhs2BozK0LoVfqrsSm2hTZX3Ys5wQXkuA04X+2cFzj56bbwPtDkHaBbLJBUqIKQHmr4JDZW3Y43+l/CrsTr3DvayYrpI0UxRdDe0oF87Ke+dA8/3fVtzpop3FZ571WxRLz7NGHSa/FnBXkksyPiukE1mA1LX1NhqjoHtSBatcW0rvJmrIregJbAHAoooYIMZ5TqK+W5tu79XGw9vh1/mX/R/T3uT/VBZS1HXGCFLCtO1RQsDKyme+o+jDXRDRRSIu79wKUIo9T6uYETt8bEjbm490C92kwPN3wa66I34/men8O6nzJ6hshUyDI0hBVGxAprNJyN8897/oWzio67qh4gFap3XHFByx+PZ4JK/e51KV5vQfQcgZSMFcyg9THn9gYsf2yeyHoxTXuO+ZX638cV6HbmH1S/guHOUez7/47j+C/P20WKpUrrGLi4swcjPaPCElnwgVa7d45znKViIlMlkTGuMLatHIusqhdHsf7zS0Q8JNWXKZtdaFmhvb29vGjRIrcnVPktEHaKhZ10l/5sL57ueIrfGX6TLW0/524huzs7+cCLgitwf83DdGPlrbZlglznJluA5aeqT6gB5lp5eGMIBdqjPXO82d+KjzU+Tssiq/Fc109xIn2YTd2Tu0bMZCjUN9rFv+j6Hqvswy1Vd44hkRm+rszCPaOIo9o28BI/2/0zTmaGhdAWOrNBpKhgUoHWwEJsrrqb1kZuouZgG7yuGPcCeq9nwT3vEealXI97h3by090/4J5Un3D1QcmTh0k6R7QotlTfR3fVPEiNgdZC95RLHLlOJJdoOZJfwBLrR2xZHPNDi+kzLU9g7sAivD74PHen2gFDJVUh596yA/iJTJx/1f19Thuj+EDNR0W7lPHcUZNRfK8rF5Z7QoZhWELDK9Bopsmjcn4Ea//PJQjXhkQA2SWPy9XsxxPouXOyyMOnYOD4EPZ84wjOvtZpWxQTCWYCBk8MY+d/P4DRvjSWfWI+LC1JpH4q8FZDX5ZLq5R7zX2fdcacOxuxZP8cvPedk2WzQBKJBCcSCbpaMRCvG0AE9o0Eft31I353eKcQyHDIQ1UUNgyD/D4/b4xtoQfrPo624DzKuTnYbYqYn/N/OSq/V5Ms/BnsIx+vjW6kBn8zXuz9JXYNv86jqWGyZTYYCjOZKvWluvnnXd/lkBrCuugmKu6lNYOmCMHZx+74G/yr7h9wPG0JcE3EGWASmWRwSK0Q5HZ71f1YEF5SUFWRIwGGk/xWKMTHEZoFrsfDw/v56Y7vcG+mWyQg5MlDpLFxra8RDzd+kjZX300+8hesnycRgK5kFLV3rr5rlcS0Knqg7hFaEFmE33b9FNZxmiYLxcS1JGEQJUYT+G3P0wwT9EDdo2UPiF/TBAKnB1Y8Hi/U/2aqCp3tgswVn1qAxhtrBHnk1L0rCJqXrttwjF8TUIMKOt/pw1t/eQg9+wYuHYbzXAnLAnj7fxxGaiCDtX+4RLiYzKy10ZxxPYb4LiceUrBr4WpTRaV678FBdOzqK4sVkkwmxetaCZr/buB53j70MrNOReRhkqZpfGfNg/Sxps9SmML2anu01Zwfero6CNg9LnKZOK4gagq00mNNf0BV/bV4efAZHkkNw9LsyU4nFoHinnQH/6zju6jSauBmZzmpQzM5l1w4cs4kT+CZzh+gP9MryIPJZDIVYtXkOl8DPlz/GN1Wfa8b2ygU4B4CvlRlvSfu4ZwfUUf6Ap7p/Bd0pM5BhY+8MSvL8mgMtOHTLZ+nddGbxpB/jrSnIV7kHn8RMYneBCvC66mxrQ2/7foxtg2+yFnDyJO6cAyY7DP9Yu1mS49RpZwxEItAnPhHKZbnabU+ALTe1oCFD7SWbkFwGeZeqRbKthB20nTDKi5s78aOP99fSB6Td6cIV9f+b5/AO988ikwiC8VHYvtUtP+pugDHNXvJzsqKzY0IsvXHtLJYIda9YL2mak1NU9wDXvLYHd/OL/X9mrNZg0yRYmuSSi55qHxPzcP0SEMJ8phGwVPsGnGFfYFmDuaQGuYP1T1KH6n/FFUEYmAyRY2EoBAyWWEfXcye5Zf6f8XDeiKnzjvbmJHraR3yiDGM1wZ/y136BXYtDxH78Bm8MLIMf9D6p3RX7YNkN/tjLtDUXeuIvAGiCdYv36dLEFfaTOHF3mf4eOoQ2+TBOfLQkeXm4Bw83vLHefIYayVccr9TXT/3HvN4J8T61fjq8PHm36cH6x+jkC8oaoYs69FAlmO+ajzW/IfCQpr57gKziEBcGIaR68BbQvjRdLquKlpCWPO5xQjXBW0tvkSTxMsJmI9xAbkCXSOc39aFN792AP1HEpd3Np7g+oHvncKe/3UEqXhG1KowT0/caIzFRe4+TRErWvjB1rLcC6ZpIpvNllQ0ZpQ87Fhjbk5HV6Ydz3X/FH2pLohAucKsOOEYVSPeUv1B+ljjZyikjkMemJksJ0KBqzUXIrIOQCMf31P1EN1T/SEKBYIildB1hwjNW1dob2IH7xh4LUcaXu1+Jo7zjf6X+K3B37Go83DzEnzgReGV9OmmJ2h19MacUIRHwHpdfpO5jk51YEHQeEf/K/xmfKuIs+TIQ9TomFzrr8ejjb9Ha6IbvDEFb0flGctSc5WLovXjsFqBjzR8ih6q/zTF/FXIKmmu9NXg482fo9uq76F80c+1P3CtrARiCQ1nAuGMY/4HmkWbdiNrFAjz6UzVtU/KDphf3NGDN768D4Mnh6/MBcT5/lWHf3Qae/7uCDJDWShOTKTUYU/lJiv+rHh8FLuoUgtpWPnpBaLJJGYuQpWLexQTyExrW46Wm8uuyZgZeqn3l3wmdZw1+AuFj2Ly2ugm+ljT4znyIGeYULk1Q+/wLadfChSofH/tx+jW2D2kqHb7jByJgJFMj9LWwWf5XPqUZyDS9PKH3elAoTOpE/y7+As8mhl1h4gIt9W80GI83vQnWBReJgRnQY3DFRTsEig36Kk9fY63xp/nlD4q6jys87csMlLBQV8IDzd8ijZW3j6GPMqVp0SFZOl0N2BWSeMH6z9Ojzb+HuYEFpBllWypvn/scUoXVhkJxBHctStiWPLwHCgK5Qv58gs5JU1+vFRdt9OtGlDQvqsXb/3VQQy3j05P/MDVGg3g6M/OYt//Po5sUrctEbN0PGayROJqXZ7BSPb7ol+WKepkhNtPnXanojfOJSSe68IqlzDOJW44cYHjo4f47fgbuasmhK9we+iiCvmjDZ9GTK2Ep60JTyY7Z6ZIJCeIYPujwkoE99d+lBYElpKp6OJPImNMxEM09GQ78Vrfs3BbXEy3QFJJRcZMYcfAq+jJdEAjv3g2dMpyva8Jj9Q/TvNCiyjvOSzU/K9gHXOt2Lf2voD21DkoTmsZRSQ0KOLZvyV2N91adXdpy6PMVZYeJcAt6RV64u3V99IXFvxHbK6+x+u2mpbrdN0RyIy7Kayl8REWfqgN1Usq86mzV9AkcbxUXdFeyq+g5+AA3v6fhzB4IlGQMTVtp2QAh354WlSw2zUsVDC+spgQpkqKBQLKCaovfLAVjWtrZtIKKYvLqqRLwfGbJ3mEt/e/gnh2ACI3X7RAFGmoiAZjfF/9x+wWIQWZpdeMRuiEApibAq34VMsTaPC3wCTddpM4rUwsZW13fDsfGznAOe/PNLlFhBVEKiwLZ1/iLXYVQ1JE1pEImK8ex210RRZPfoQsnUoe43eSb7LpNDq0FQCFDMpyW2Ah7qt9CEE15ObnXvWYgls74o2L+BQ/N/lbSYPG5S4CnHUEYl0UTZvZxK/GdTVY+IGWgq6n48UypiJs3Z/dDBDFpyB+dlhkTfXsH7QF7SQ7gigaFTl0JtbdLSJ87zsncPjHZ3LVZ8Vzk6diVY1Lpta+siYq50Ww+CNzhHU1TYQ4ZjSntU+fz1duxSVXOXwg/g4ODO9hhdVca21LdzUVg1eGb6CNsdu8xVsFgderiYIEAOdWWBRZRhuit5HHZSJ6yiqsiEaCbw28gawYbjV9c+hVUngkO4Tf9b6IvmyPKBZ0/Gi4reo+urXqnml3G3ksMNGIck98B/ozXUIBcK0P6xaL+CK4o/p+agnOpYJ5VtfC+qEgLpKzSop+nzUoK4EoijKjBKL4CYseaEFFazjXFsTrN/YOi5qqdpwjD9MmgHQ8g73fPIr2N3sn57ZydhtbUIGbvrgSSx+daxPJJKc/66MG3vnWMVFXQtb3zLFZYVPR6sfUr3jcJKbBmHtXIxrWz4gVknMD+f3+gv3PlEVSkHkFwqg5gncTb8ISrgoUmGySHfdgrgs1Ykv1fYiqUTc5m65KX6lL3EvFrTQ219yN+eHF0JEVfzLtxh3inj84/A6OJw8WWiFXoBlY66SwRmfTp/jwyLusZw3RZJJUk+f6F9JdtQ+QT/Gxd9bFlWaquQqAa32cSR7nw6PvMKylY7uQE06ngOWhdXRD5S3FCoA7pveaIRHvWnp/ny3WR9kJRFXVnNCYiTTe2hWVoigOhh1szlWuuv2fiKeq7Yx1XTkDbg7/6DROP3/x0kfuKZeae3cj7nzyBqz+7CLc/MWVuOnfrESoIXDpM3f2m4ln8c4/HEXf4SHR2VdMGyxRgToVEhlTqGWdn86I1AdFLIRckiuDNTpjD04uqdMOvJ5NneITqcMiNz/XINy6VTTGyuA6WhxeUeC6Kmc/qckKIHdcievKagvOp02VW0hTNXGkdiwAwsLqy3byvsTboodszgrhK1+/oewgpfQUaYoqutuG/THcW/8RNAVa3etO0xVzyKU0g8TEwv0jb6MjfRFuaxCROQdTNFy8qWoLKu2xtzkF4GrEPS5JIp61nEom2vuOQFzB4PP5EIvF4AZRxxG1l7cPjYTvPtIUEhq0N7c7FyvgqdV7eIv24BQKKj4Fp19sx4HvnRbxiQmP2iEu1a9g2WPzsPk/rkXTjTUiluGv8GH15xZh85fWonpZbNJOoP6jCbz7T8cw0jUqztkdVHQlQ7BKrZX19pwtDahbUTkj94R1L3hdWDPa2saT9mmwjoOJvRjQe8VAISjMqqjEMxFVq7A+tglO1tU15bqawL2au6vXxW6m5sBcMiDmAzhWiG35Hx05wD3pDq8VckUpWXbMyG3gB9FRd0lwJa2p2Fig+U+zFem2nBGjcG3qtGMfdkKYyfN8i2hFZC15hDHPMpksCWQ8WNZHZWXlJf3jUxUOFmqWxjDvriZv57PSnWinQHjem1eY7T7CwHFbgKcHM5dsTyKmH1aoWPf5Jbj1369GuCGI7Kghnj6L5MyMifn3NOOOJ9ej+ebayWrSOPNiBw78yyln1ufYIVilXFuXskKKYyGmbiLSEMTih9swEx0VQqGQeJVH0uYnC8b1AT41ckR0RYWTeSXSPjXwHG0BLYmsymuCfG0rhPliNftuawq0YU3FBoeYXce/9QGVutIXcW70ZKFShcud9+8ULrqZVcSo9Ffjluo7ENNyCiJNVzC4mOjOpU7hwugZRkYhdjoTW1aJjwJYX3WLmJNRcAySQa4PArFu7KqqKvfmn9aGGW23N4gZG5bgK24gONUMpTFBadNOc82O6Nj/neO5luyXIo9gjR8b/++VWPevFoM0RbiGSLWT+ERPLktQp03Ur6gS1sm8e5omTZgnfntBpA8rmmLHQ8CX7Q4qtl5yXU4VQsvN9aheEpsGG7EQkUjEbeVeVp/vhfQZXMicYyPNwvXhVn2rrGFZxWqElYpcULPMQ5kum0RcTV+FgjWxGxFRoyIuYM+XgGjrlzFTOJjYh4yZzlkHubje1FwvpDj/Ac4EdzJ5gX8JLQ2vwkxYH3benL29rJnBkZH9yCAtZrPn5perzJVqNa2K3lBwDDNRPClxFQhEpNoBaGpqKuk6uWzrg4FISwitt9RDUZX83OISQmmydRJjCQXC+riwvVvM9ZjMMQVr/dj4r1eI8bki9dZpjOgVSGJfYkqgieqFUdz871aJAsjJuLKSXSm8992TYjStdWz5aZeXX+dSfB5mlhGbF0HTxtrpJhCur6+n2traMccxs4YI42L6HLJqSjSqsxvZEbNiospfi2WRtbkGdkL48OwQPt7MnZbAHLRoc0jRHOXbaf0BhdGePYeUtybkCmI7pnVDM8RAqKAvhLXRTajSanMFg9OZikrEuXMcMYdxNHEAetbIWUKKQ4YLQkvFTBVXAXDvWGmBzHIC8d5IFoEEAoFp3X7zhlrUraqCns5XnRdnFk1GsHpdP17rQ/UThs6P4MjTZ5FN6OMLUoc8/FENN/zxMix7ZK69LQOisImK3GvFJBKbE8Gm/2cl5tzZMClXVvubvTj9UvuYc54scZQS3t5RSJaMsCycllvq7GD/NA4unDNnDhoaGgqK82YqBuJqr6NGEqeHjyOVTufY0Dp1SxjWqfVUH2jwks2ssEBQVKQWVatoSWy1aJCZzw6wvZ396V50Z9rzlel8ZaXplgXAqsF1ahMtjqwojH3QdBJk3gU5kO3hQbOv8NwdX+PS2CoElGCBhSVxHRCIV0A1NjaiubkZ0+K+ciyDhnXVCNX4xZxzd5jTpeokSt1cpXpdQbG1+xO/uYD23b0Tu66c4VVr/nAxVvwf82Cy2xWY4Pb/Ke6mmyMTp94j2hbBpn+z6tJav5Mtdexn50RWVqmajVLnWOoaFKf02kkDdnxF9SloXF+DqvnT296kra0NlgXibas+ExaIcz5iwwkjjk7jgpN4wO4kDyF8WoMLEFajee2VZ4/m6r2GKqlo8DVB0RWRdWWvGYsuw8PGEJ8bPXXFVpXbG1rsViXMDy5Bc2AOcgWOMxh3ODd6BmkzZWfQuel1YES0mJhj7v7OYGl4XI8WiEUeTU1NNF2iyNQZJ359QVRqJ3vTIr1V8TsEUEQkXgE+kSaee49t66Pv2BBOv9AOGJc+6hWPzcfqzy60Ax2e4VXOvIhxj8NdDTNjD3m68f9ahtj8yPh1Is5X+48N4dQLF8V1IKUw5dZ73UudZ6lYkRv70EKKIL6Lu3qw9xtHxX6A6YtaWYoEyjAXxiFncRUT+hCnMSr89l7yVFUVLcE58JEvn+0zi4RPcQFaU6AVtZY1pZj5OAgpMH0GBrK907CGIk1eBK4DZhCLIsvhjvPNtWafIddfp96BtJ7y6FEEEwYa/Y1UpVTldBzRdUoyyIyjnPNA7EyRpiZqaWlhTFfqJgPd+wbQc2BQFNktfKAVrZvrEWmwWxiYWTPfyRaFGvdEFokrZC3BfH5bFwZOTBA4dxwxzTfXYc3vLxRzPCxrgtSCB7xk8V6xsGeFoadNtGyqw9o/WIyd//09GClzQpfZua1d4rzrVlQKV5h3nnquiJJoHFeVQ2xOooAaIOgpE32HB3Hq+XacfrlDjNydTgQCAbS0tJS0UGdCO3flyJDej7SRFsPzFIXEUB/r7yEKIqpVFi7HbBM+nutXrdWiyl9NndkLTNm8oGU2MWwmYJIpxuZeyaNsD7kwUK010Kroeu/1ntE2HP2ZXuhmFn4Kkp3GyzCJUe2vR0SNeSrPWRLI9UQgYlayaYrMGyeQPq2t+thgXNzeg87dfaKCeslDbSIzK9wQtFNms6LqTsQiSk3mK+mO8hMS50Zs62O8ZGNPIP+GP1kqXFCCPBTXd1valVc81TD/s709I2ti0Yfb0HtoEEd+cnZc8rQweDKBC290oWZpdEzbwpyZP44bzyYOQAsqgny63xvEqWcv4oxFHO2jBed4+RRfiFgsliOQcmZg9WV7MZpN2lorsyCRrKlThVpZQCBXY0LiNDClO2OJ/QhQRIvaJYYmxNRCYRCbJoaycYwaI6hQYx4quMzHTiGu9tdQRIkWtuOYIeGdNEYwnBkooHi3gLDSV42IGslbQZDscV0RSL4TJbBo0aLxBPflLbxnYJQlvDve6kXP/gE03lAjNPO2LQ2ipsElEuG+KUEkpYiha/+A6Hk1rvXhHPHiD7WiaUOtEPzCMVhChx2vL1dhLMJ6MBmmAagBFaseX4iufQMYODo0oSC3rJClj8xFqDZgu7OYSu4vTxz2vrWgKqY1Wlbc6ZfbcealDiQsi4MxHeRRcgu1tbXk3gMoVxt3AMN6ArqegZMOJzyMIOYQRahCjeYOFjQLZY+dUSWus6b64DeCyGYMBBTNnkdmiqgAp/Qk0kYqRyC5cYVTfOwESZiEJn9rgftqJiwQlxBGzRHOmCnRU8CN0Qnl0bSsyLBo7uiZBiil+3XmwsoJirVr16K+vp56enpK6fO4Yl3X6R11cUcPuvb1o+lFi0ja0HZbvW2R6CwsFjfdt7grrdsULpvUhVvsUi6kxvXVWPLRuW7L1oK56xNptF5rZCyJ2MV8VYuiWPLROdj9Pw6JtNrxMHAiIdx4c+9scvrGcumguvOeRRwWmXa/NyAq689t7UT89PBY4piWVIdCElm4cCFaW1tnZpTxBMgaGRhsinoJ5DxbjAD5oZGPZqvxUeQ+YgUqfOwHmaI4JNeBwTo5nbPQWffcwlNbAidNVwSpfYrGc0ML4FP8M+q+cs8rY2YoyzoXxPaceId2RS45iVlBIO6NsGzZMmpoaOCenh5XePK0zkb3EsmIgQtv9KDrXdsiWfSgHSMJ1QaFClrQ9sQV5AyR0TV8MYn+I/HxNXEnyL7oQ22oWhiFPqo7GVdTm7teyhLJZQkZjAX3NePca53ofHv8eeXZER0Xd/Zg7h2NJa2O3FwUH8E0TEE2FnGcfbUT8TMzQhylbDZWFAW33HJLLpW7nO6GjJkWAVfVc9tbO9cUvwigz2b3hxvrglPc51cDooUJexeWGWkzI0gkf/bKlB+7nI6lKKj1NxS6SmfAfeV0Syads6ybetGxssg8C6ghKc2vZwLxVszW1dUJK+TgwYOl3FbT9wB7np3ssI4L27rRsbtXpKUufWSesEiC1QE70G5wLuDKTrv2/uNDolCvpCh0BG310hhaNzfYqaETDICZSDMbt07FaSkSmxPB/Hub0Lmnr3QthnMsAyeGkIpnEYj57OPxnL8aUAVxWJ858ZsLOPVCe2FwfHqJA+O1qIlEItiyZYv3XMvmbjBYL9nShgqtxVnp/ijMeiLhzhlzHuSmuE7P/gJKGAEKlc0VaZgGGEbh8vH0OC8kZpEFEgqFcMcdd+DnP/850uk0ptWNdQkiMUZNtO/sRde7/WjeUIeFH2oVWrsdOzBtNxEzTJOFsNWTxrjWh4XmjXWIzgmLOILruposcUz0uVzLZ8fH23RTnSCSobMj41ohiQtJDJ0bRuP6WuF+U32KSGlmEyIYf+r5izjzSgeGzozMJHEUb7ngaNva2mjp0qVX52ZXfM51zh+S9ZPOes6tcz1YINa5WedjtzMpvGH9pOViFpdr9Nv3JnMFRcW432JLeqbkhqqopJBaGDkVyQEG0mZaSvPrnUC8N9nq1atFRlY6naZxNNaZIxLYRHLhjW6h1Z/dXI9FH2pF8011wiKxPpcezCBxfuL0VV9UQ+ONNYI4Ctoy0+U/TAXuLs63FKmaXyGsHUEg45xXqj+DkY5RqJsIpm63Ku8/khCpuGdeaheNIC/pZMLMWCBuZfBNN92Eqqqqssc/hPBU/E76aqG2rptZZB23zvVggZhsImukwaZpj0H2pK/7FL+HQC6fRExmqtAq4KeAd2TtDHkvxKRIMb1PtY6dC7ttm8QwKCul+fuBQFwsWLAAK1eupG3btnGJSVzlETBOsP3sK50iftC8qRaLH56DttsaoacMjPanJ9StQ7V+1C6rtN1KhQNiLqu1eo5gUZgKab2n+lTUr6zEuVc77DbyJWCdS2ZYF+1HBo4P4OyrHaKWY/DUcCElcxnk2ZjTsrPwNm7ciHA4DA+plE1a+8gPRVHzfcOcazxiJpEyRznfqHYWkki+3QdMNpBVMoDbmUGcpyJcrH41ICwxL/FcbsxCIz80Rcu3Rpmh59VdD78Tq/JaWnCm1bsWiKPAyTTe65FAvD17Ghsb6fbbb+dt27a50/aLtVYqm5iziCRp4PzWbnS83Y+5dzagckEFEm4dxDjuq4rmsB1vYJ62SWI54mEqFPgEVC2IQgtowj01Htp39SI1mMbJ31zA4OnhPNlQWYgDE+1t0aJFtGnTphwpliv+4QrJykAVfKpfjEN13TDEREkkOJEdJMzmOKxnSmHWzCKtpKD5VHAqXwdiWcoVWiXCSqTQHXV5Ul1YMopdLVsO0uWwUkFBJZRrJJ9fW0XMtk8aIwirkZwyKlN5rzMCcXv2WP9qmoa77roLTz31FLW3t5cij/JpEQVZWzpOPdsuhkCJDK0JEKoOQPE7FYMl2qVczg1cEEz3KFqkQMRpcvPUxyGEs6904PQLF8cSB5dbH84foaIoZJom33LLLbRq1aqCBoploTIHNb46hPxhZLIZdzwxWRbJqDksKrQLhPFsq2T2NBxMc4qHs/HcmruV2aqqcFSNCUvsiiwQymevqTaBlOVCBZUQavzV+bGgDk0oUDie7UPSGOawGqFyW7bvZyjltkByM6YBXrduHa1fL9ogsCVkyi7mJnC8GBk7M2si9B6JY+BkAuS0kXcHT021pbqXPIp/Z6ec3TqeCzt6hItqIjeUkTYLJyXy1byK9u+maYrsK0thqKioKFAkZvye88iRqFqNgBogUvPT9Kyj1Y0sejNdOY3c7pExex/q3kw3+tP9bGYhJi7CiYsgS4hp1dMk7sW8ESG+y4nqQD18is+WIs48E8sC6Ul38WC2P0eKEtchgbhCUVFEUAwNDQ1CqLhz0ichjK4pxE8N4/9n702A5KrLvf/vc87pnp6eyezZyB4CBEzg3hAIJCgaIhLAC38wessFVBQssSyX0tIqSyNlqVT5L6p833oLX68rCCirXFEJcC/KTnKTkD2TZZJZMvve3dPbOc9b53fO6T69TcKSSffk+VhjJpNhps/5nX6+v2f5Pc/eB9tUSEmd/7AKX/LbnctRsHu2AKNKU+XHBx475pYLvwMzPrWeR/6mQZ39WbduHfmud2rCV86BSrfVeT1VmWFVtWP/em9Gvmkx2mNHEUmPZV5bJRkifzdem97kCYwkB6FZvpknxAhTLc4JzX9vPaspbpk+05iHUKBazSHJGjENw6lB9CVPZN420s59mgpIZmPoGsx169Zh4cKFZO9SixgUKncROfb8CbRt6VKhpZywk8+AnvRB5hJnQdwZ7NHeCTXCdqI/Ue53hEpV01111VWqcGKqq6/c6jj1WmqNGZgfXKS672bjO4BuaOhJdWHMHOXMiAnCKc/QP+M33VeEkrKS6loQyEaW2AJpBrg+2EjzQ4sL7k8lsaB6CQIIkclmdjQvESzLosPRg0hZKed8faalvIjIdBSQjLFZsWIFXXnllfmGZerzIO/wCtIxE/seOYbBg2PQg7o6c+GFsk55kBX5vh953XoJaH2qA10v95W7T8ZFxEPtAhsaGrBhwwaEQqGC3fIU7dDVM1StVWNxzTIEg1VZcdHAMDUaSQ1xW6zVLztq114hEwmzM9/NYW4d2w0zmcp559jP5czAHPgbH57OtuvvrUBme+k1BppopjEbmu6Ms1Vt5S01PBKHYnvVzBevKoylGGv6CYjPqCrjUldXh5tuugn19fX+Sqx8EeGyNZkEDO4dxf4/tqnDhOqOWkWvt/SbnynXBPu8j77dQzj4xDFlAMp9PHeBLro9Wa666ipau3ZtgUE/Ey9xXtUiVJnVynBqRGzZO1WLkEAM+yM7ETd9I18rYKhUZn6JS0f8GPq5hy2T1VtMGViyVPnr8pqLEXJbfngTCSvBA2HfTPRqqsHyuosRMALKs/L2XTppPJDq44PR3ex77zGYJScynQTEtyPPHAlev349feADHwAmb5pevvtuQLV8b3+x16mS4mwC/GQeSKb9td/7sFhNNowPJ7Dr14cx3jFRAcG8goOD6prr6+vxqU99SnXg9XuUZ6rEcn5oERaHziUtSKwMkNtV0RboI7GD6Eocy4SxKiKOzllBTnEKb41vRTQZgUaGyn+oCiyNuSHQgvNqLsqITkWddfHNRDc0A+eH34cQwmriojMPHWq1EhzD9pHX1OhibxPAMhN9+nkgOTsEAI2Njbj99tuVNzKZUSrnvXdiJIU9vz+CsfYotKpsVVa+eOb/vdSgKdJJlePaolTmoSuUOCmj1m3NmjW0YcMG8odaTuf881Lr44VAavV6WlpzIXR2ureqaizbBplEQ9zHu8a2qZ5ZXhy9IkJX7sG5zngbH4i+parevK5X5J60Xxa6gGYHz8k5NV4pO/N8AVgQWoxFNUsJQTVNirxQle3JH57YjyOxA5lDoZJMn2YCUrC3cBf3mmuuoSuvvJL8oY+TGKmyM599bw2j9cl2Z+ZI3nhZ+Fq1FxNT+Nqta0ENA3tHcOCxdjX3vAI2UFTMuFVXV2PTpk2qeabXcVntCqe4Zzr5TmlrpGF5+GI0B2cDAUsZIBXGsnfwaRO7o9vQFW9HJXghmfkb7u3fNvoqeidOQGNdpXBUiA6WKh5YUbdKha+8kJfX8aBS8B9Cbgw00QXhlTBgqCdPU5sSW0x0GrWG+X9GX0XCintJdhIRmaYC4p1GtiyLGxoa8MlPfhKBQKDU7rT864/gJLw7X+6DFqBMTiM3oT5JeIsdzyMVTWPvH45i6CRDpMpIPotVXqncx8aNGynf45zq0InrR2TOHy2sXkLLq1eSF6vyvBAyNeqIt/HWsVfYdA/TlKMB8oo0Mj0UAWqN7uOtoy97p5FU+AqqVNnk88IraEXdav9uvuJatWQLBZxHbWXtaswPLwbr2U0AswXNIuyMvcEHI2/ltaYpr4IB3xrm2AO8jdL/s1pAfMOU1IwImxtvvJHsjzwvhEt1di07M0rAxEACex48ikhPXCXBsw9FbkK9qPdBzhyStudPqD5WFRK6omL+WCgUwm233YZ58+bB3iC4VviMGC5fuSc7bchD+Ne6K9AYaAFrWQOkEq5sYevYP7k1ujfHAKFMzoW4E/c8MVbpZRNpvDT0d/TFbe/DUI+Z5opeUK/C6rq1qNPrna2L6wFWGq4CODkddxOwInQpqfNX7iZAVdRZGg3FB/Bfg3/FSGrYV8ZdZodDOXtWxQ3rsv/vlbJGWpm4pcoLaWpqwpe+9CUv5FHKAyn7hHr31gG0PnkcnLYyzRXhlfa6xqyY96FmkBwZx94HjiIVMVH2BUClz33wDTfcQPaHfzNwJne9bviQvEOF59VcRO+rXkVMViYMAo2ZTY26Y514buDPGE+PZAyQV7V0psXDHVWc06pj29jLvDPyBhNrBC86ZWlEhn2dF9LFdauzvWvdHFQlkgm/gaFBx6r6KzA3OB/weyHEbHCAWhMH+M2x51kdv/e1hC8Hw+wTiUzbFWaLMuXHFRR208piZ+EzMh/60Ifo9ttvJ/e0ut8L4byQSfmGsixg/x+PoWf7oApl5VQnU4kHSiOkY2nsf7gNQwfGyt37KHVOR73iBQsW4Fvf+pYqjvC/WcrhZXthkJBWjatbrkWzMRsmOyfTlRdCFhsI0N7YDn5h6Bk2OV1ggM7EG9sRD98MWvfPtolW/nPPIzyejBCR7+Q5LIS1GVjf9FE0BJrhnf2o5B5RmQ2n54WEltJltR8g1eLd3QRYtiFmIJ6YoOcH/5P3RrZx9j/1rSH4jIWt/CJhv7ad42/yc4N/5nH3ICvyXqsIyMkVOXOzAoEA33nnnXTJJZcUS6hTnjdStl7IRH/COT0+kIRuOEOdUKThovpwz3x0vNSHI3/tLP+NYKHnwd5a6brOX/ziF+nyyy/3f09ZxNw9A+SFQRaHzqN1jdeQ/czBdy7EfqMnUyl6YfA/+bWR/+b8neEZCWc5r4K9olb7CRpI9uLp3j+iJ9mp5pyQmzgHa6QHiS+tX0srai8tyEFVMv7JprZwrGveQEtD55OlpdV1e56kfdH9E0P4U9cjcA6IUo5hnvLlY/aHrTLisWd8Oz/e+zt+evgRfqLnAfQnexw/0e+JlPFOUiub+GZm/h5w/vnn4+6778aMGTOyycLJwyZlSccrfTj8l47Mq89PmnlXpAc0jLSNq9xJcixdCQcGC06ce0/82rVr6TOf+QzlHxgtp5efNUA6PtR8PS2vXkFpJNm+CqeiR+UWEEmO4aneh/jN0ZcKRYSnLtnp37V64jGeHsXTvQ/znshW1kyn6sr5Zo0szeRFofOwvvl6VGlVOd7HdGhxbi+UVxDRbLRgQ8tNaDBaYHFaPYmOJ8msQaeO1BF+ovf3fCLe4Rrmqd/d+8qtfV4waMfoa/xIz6/4RKIDiXiCXhl9jh8+8R/cGT+GnOetjA2CVjYPRZ6xufnmm+n6668nt1MvSpxQL18RIYBTjIOPHUfvjiGn7bvliQfcDydxbjHj4KPH0LdjqBJCVwXi4ZVjNzc34ytf+QoWL16cU7ZbXuvCbjKWVXaq3mjEDbM3YX7NEqjOtZa7myFmHQEaSPTi8Z7f8daRl9hCdkfo7YRPpxHKD3nAETYaM0fwRO8D/PrYi2yaTtcVpwqJyIKJWn0GPtx0Ey0MLXWO4Pk8p2kB5wwj40vrr6T1zTeSbuhqbXTS2AtHkqnR/thb/GjPb5SIIH93f5pDknkhXPWGN9mkV4Ze4Ie7/4O74segmZpaQTMF2jn+Oj/Q+X84e6BVPJC3FV7wVtU2Rt/85jfV6FvLsvzt3rkiemW5r2z0WBR7H2pTpblqkqjTnd150RbU9MATr/Xh8DMVE7oqDKwQqQ7Ld955J9nC7/v6GSnbPYn/4TsL4YSDltdcQje0fIzCgVo3h+UlZJ18SH+iGw91/5JfHX7BfpuT+zNyQgzvZVw926bc27U6uQ8Vtkr14pETv+SXhrdwOm2SRmCTLdLV2FdGVSDIH275N1pdv85/aJCni/eR2Zz5RNG+Tx9svo4unbGOLKSVJ5kVEWZOE+2KbuUHuv43t8VaCwyzfw3fC9HPWcM88U9aE/Tc4JP8UPf/5YFkD3TLUM9ZNszCal5LFYUrYin0zZs3by6zGGdGHObNm0czZ87ECy+8gFgsRr53ABUJp5Qtke4Ywi0hzHxfg8p3qDnOlqWaL0Z7JvDm/78Xw4ciFfC2LfT6POu0ceNG2rx5MzU1NbG/XU05Gi3fa8sY2DnBeSr5ejRxgNOWmTFAKpzFGk1YUXXKOW7GcU7VQgrp1dldvfszCO5kTcoTq0keT+/fM8aMM32qiDLBC8ff2RfZyQ93/RK7IttUGxbV54rZfa0gI6DxBxtuoBtn/TsFtADnXes7Di13xNvUAct0Ou28JoLaRc+vXox/qbscQa1qStvTuJVxmQ0nnNJsWli9lHrinehJdTK55cxeUYG9KRhI9/Hh2H5Ua2HMq15EGrTsa3bX0KlVcCeMvoP18zpr56whOa/4+MQRPNb7O/7H8N94IjVBGnJDj6aW4otrL6Pb5t9NM4OzaYomPU4fAcl5Y7u26bzzzqNoNIrXXnuNLcuiPEOWP0e9LM2ulWSMd0Yx+1+bUTu3GmaKAc2Zqrb/kTa0PtlRCd4HSuU9li9fjvvuu09NG/TlrMr6wc971lRCdmH1uRRLx9CRPMqmZZLGWuYpsw12CgkcTbTixEQ76gINaDCaSCc9m1h3f55bLAvOixqVjLd6RsexJuq2ZfOCRCPpIfxzaAs/1fcQH40dzJz18MSDXfG4vO5q+v9mf5pq9Nps1v1dGKByFRD/DaXMZAjiWmMGza9eQu0TbRhI9aoQpHOfrMxGYCQ9oNYwao6jpWo21egzKOsts7sUhZuBSdeRs6Lm9/a8+xdNj9PW0Vf48Z7fY8/4NhV2dO8jZ2pQdeaVtavp43O/QHOq5sEnHqxcqjI1b+XogeRUZRmGgZUrV9KBAwdw8OBBFcryG6lJdsllRXw4qdzauatbVMNFPaih+40BbL//YDknzrmESGe+Xl9fjx//+MfqzIeX9/BtACrBp8p4tgEK0JLq8yllpdCROsq2kSTL9961iNiy6ESynQ8l9mI8NYYZRh1q9FrS/ELi5kj8u9rC20i5HjfBF+5z/i+SHsPu6Hb+c+9D+Mfw3zmaHoXOAcemqP9IhXVVxdXaug10y+zbqD7QCC/R/m5HB5e7gOS1KlF/1gcaaVF4CXriXTSQ7maNdcp0XXYT6wkrjsPRfTgePwzSdNTpDcqjzORH8hzs7PoVvhX8m13PG/HuW8KM05H4fn669494bugpHkz1QbMM0jSvENlZZ83QeHX9Ovr3uXco8XBbCFdE6LHsBMS/ct4q1dbW0gUXXIDt27ejq6sLRUp7qRLCWWMdUdTODWPWJU2I9k1g2/86gIFdI+VaClD0gGC+kHzjG9+gu+++mwzDyKlUKrfcRykDlBs2ZbaN4dLwBaTDQJd5nJMcB1k6QXOqf1TnBNYpbkZwNHEQrRP7MJwchEGGMqRVWsg1sdldrfd0EuU9reTbubr71xSnaNgc5F3j2/C3/sfxX8PPcGfiGDjl/gRPPFgjky1Uh0L8gYbr6KZZnywQj3drfMreAynccKq/NgRaaHF4GQ0k+tBvdrPjgHgaoO6QOmg5nB7gA9GdOBY7jBSSqDZCCFIVGWSQV0pbYGHy19F3n7x1H0uN0KHYPn5+6GlsGXpShc3SZlqtmTdi2Fk/E6FAFb+/8Vq6Zc5t1ByYVVHiAbdKpixT/PnVC/adfP755/nLX/4yHzp0KGcK2yT7y7LLILS8rx4f/OkqNd/8jZ/tVZVaZex5cJHp6pl/+9znPkc//elPadasWWWf9ziVZ80TEfuPpJWgbWOv8DMDf+LO6DEYHCTXALnhKmfPSYb9mYbG4ExaVHUuLgivwNzQAswMzkFToIUMCpz090fNCAaSvdyf7MGRaCuOJPaiO9HFE2YUVtq2dhrgJlqddmoaLEpxU9VM3DzrBlrT8FEKUrX7z0zucfR3tQ7+e/LKyAv8UO/9PBGPZ0IvCTNBVzR+EJ+d/xXU6DOmvEHmZPbCe939yV78vf8JfmP8RY4kIqRDh1ex5pyXcSspAuAqCmFOeD6WBZfTsvCFmFk1Fy2BWTTDqD/p705aCYykh9j+fe3RIzgc34fjiaMYNYfYSluwxYphIdsOz9avNDcFZuLa5pvp/U3XUlivqTjxKGsBKfVQPProo/z1r3+dPU/E9/qpSKK3/FZAA+ZfNQujbRGMd8QqQTy4WB7k1ltvpZ///Od0zjnn+AvrUQmeR+EFu0O9qNDrOhDZxc/0/QkHJ/ZwMpUinXQ3ROWGIUw3xGXYhslSvadmGA2YSbNoTmgeaox6FeYKadUIUlB1A05xSo2ejaTHVSx+JDWIE4kOjGCIo8kILKRVqAMWgXRmy7SINMfgWWRyQA9gUdW5dN2sW3Fp3RUEaNn4Pd4b4/M2BaQsNg7F7EXcisF+/c/2P8X9iW6VrNaUILt7HjWR0llDSzfZ/rdwsBb1aKS5wQX2JgC1Rh1qjFrb04K9IbDYVN1+E2YcUSuCkdQQ+hM9GOR+HksNKUHRSAdSqrUMsolyZ/10Tcfi6mV0w8xP2B6c61ayU3NXYRVzRlmrGxXGODdt2kSjo6P49re/zcPDw37DxUXyIOUnIhbQ+c++8rWlxU+ZZ6KKXsXVz372s4x4+P+bSiwVdWoslYhQZriX+7wtr72Y5lYtwD9HnsN/D/6VBxO9SgSIdVKTJzW3bidl23gDpmViMNmHAerhA4ld0DQNGuvQTF15Dl7y2yILrJtswQSb9i7V/lfnezTLUKN2TXIS+U6LEossSnNdoAFr66+hD7f8G7UEZ/mee3IbPZ8R40NlZy+cBAOHtDBd0/RRWhK6AH8beAK7xt/kiXQMAQ6SG9GCSWzfedbSulLHWDyKCMa4K3lMdcfW1JroKpTpDbAyYaoeXBaZqqKSTScsZW8wNCvgbDJ0y0mnsDPbIU0prtFrcWXDeto489ac9SPfSflKmn9llP2bu4iI3HbbbRSJRPC9732Po9Fo5YlIOdvS4gc0M+Kxfv16JR7+w4LT4ZxBRkRKJGZvaPkYXVizEi8NPIe3om/ycGqQDd1wPBDb+OtQVYJsAbqmMdtGI+3uGcjitGoP7+ZD3MirbouDZYuGd0DI+RmaTsymF6qyiDWL7V3+ReF/ofc3fxgX1V5CBgVyKr+8UqTTsQaOa6/BHaKuBFRdgzf1t4zeY/mVnN5zvDR8Pn1uwVexfeRlvDz4Ao4kDnLK9hTUMFz3OnRmNp08ipqpYgJsOqnxlL2YnIK6dK+EQbktrkfjJEGc9dPcxLupEmYq3GgLy+oZ62hDy0dxbng5BbWqKVu/s1pAfO6putH2AgWDQb7rrrsoFovhJz/5CUcikfzeBCwi8o68DxQ7Ze7efzXf495776WLLrpoWomHX0RKbVpsM7EsfCEtnL8UqyJX4o3hf6A1vpfHaIhNsmAmmZRhzfy3cM5qaM6EYs1pKQ7OnBkBLJMdYwM3seumEUz76wGwQTpq9QYsqTqfLqt/P1bWrSJbSLz1yXuNp89pZoaJtGo6aYtbyt4l66b9VSrbTaenbr61DCNMVzVeS8trLsH2sdexbfRldCXaOcEx5+Bf2vWg2Z38pjoTIDM3htTGgEl3y+DY4mzRFpN7hIegphcYKtGCIKqwqGopXd5wFVbXr6M6o3nK1++03utKaTzvi6+7Kq/xxMQE/frXv+Z77rmH+/r6oGmaags/SdNFEZPSIav8e8R+z+MjH/kI3XfffXThhRdOS/GYJKbu6ad3mljdo7g5gfaJo7wn8j9oje3BiUQnp4w4ksmkLQzQSKdT6hvtxlEsVmqCYFUQQSuEWfocWlb7PqysWYXF4WVwzyvkJFq9FjKn4/77cyDbRl/hx3p/x2kr7VSNgZDkBFbNuII+Nvd2Cuu1ZfscFLROd0pt1QsdSvXzoeh+2Gt4NHaQR3gQaUohGU9BNb6wvchTWEN28xxsWTCqDJUnqbeaaWHNUqyoWYUVdauoKdCCqVw/EZCTiIj3QJimSX/4wx948+bN3NbWViqxXirGL8JRGMMuGCW8adMmVW21dOnSs0Y8Jnvu/EJiclpV4ByfOILuRAfaY23oTnUgHUhxPD2BeDKmZqybloW0alwFlRfRNR26biBkVKM6EIaeMmh2YB4W156L2cY8LAqfiyYjW8XlludmBP5033v/NY+lR6gn0ZnTk8l2r+oDjZgdnEca6WX9LPiHcHlVav7n3t4MdCc7VBPDzng72ieOYJxGkKQkTySjSKUTKrdlr6Htktiepq4ZzhpqAYSrwghaVVRr1WFOaL5au0WhczG3agFV6+Ezsn4iIG9DROw///KXv/B3v/td3rt372SehoS1CkUEJebPq3v0+c9/nu655x6aN2/eWSkeBbtZ5zxB5swBskZBGaqoOY7R9AjH0hGMpUcwkh7EhBlDwkwgYSXUNwa0oOqSWx2oQYPRhBl6A2r1WtQZ9W7ZKBWI+RkKd2Q7dZR+r1TMs5AjJIUNJtUFpKwkRs1hRNLjHE2PYTg1gDFzXFVcJa0ETJgIUABVerVaw5AeRmOwGfVaA8J6LXkVd5Otn3f+ZzpQkdPmi4mI/deXXnqJv//97+PFF18sFZqhIsbzbBSOYuG9nOegoaEBX/jCF+g73/kONTc3n/XiMVloyz+ru4hH500pV7kEG1XF5f6v+Npwzjz2MxHqKPEeK9hjVGIcP2PyMq1QinYrJv+1Wr6GmaR6AGiTrF+eaLjJL1Rgifu0FpCcsIJ72PD48eP44Q9/yA8++CCnUinkVWidrbmRk+Y6/N+7bNky/OAHP6BPfOITatiS1zpGxCNvW86cc1f9Ia7sTaaT74qzf8k5ye/9bDcpPOW71oKxy0UtCOD1/aqkXfXJ1tBNo4MK9wNFV5C8Q55ltH4iIKf+kPtFBKOjo2QLyL333ssdHR3FRIQmCedMZ/HIz3X4E+XqPm7cuJFsL27NmjVerDbTOkbEo1R8J69ponMo8ZTbg7t9s4o0XywHw3OysTuVvfcq6IacERXy6nVPYQFzRTTnZ01T4Zg2AlJKROxre/bZZ/lHP/oRXn31VVW5NcluajrmRibrZQX/fbJvXGNjI+644w762te+pvIdueGZyq8WOWPGaBID8na/XxBEQE6zu63Ks90yX/v6Dh06hPvvv58feOAB7u/v9++m/eJRaotVSYJSaqtYrJeVV/IMXdf58ssvp69+9au49dZbi4asMA1jt4IgiIAUiAgK8yJIJpOqEeMvfvELbNmyhePxuC0wqgVBCWOLPKNbzkIyWUkuingdmXDeokWL8OlPf5o++9nP0rJlyyAhK0EQzloByfNGCkJa3d3dePzxx/lXv/oV79y5E6dQlUVlLiSTdc0t9n3q83A4jFtuuYXuuOMOrFu3zvY6CqqsxOsQBOGsFBAUO0Xs7r7tL+zatYt/85vf4IknnuD29nacJPRTjkJy0vxGkWvhYDCIK664wvY4cPPNN1NjYyN84TypshIEQQTELyLIC2l5ltI0TezZs4d/+9vf4rHHHuPOzs6MUPiEp5iQTHU5yqmWwcB/fb7rV8Jx2WWX0V133YXrrrtOzZn3XWBu6aF4HoIgiIAU9UgKwlrpdBq7d+/mRx99FE8//bR3kj1HTHwty4t5J5Pu+t+BoPApeEQFv9NfLeV9fcaMGbj66qvp4x//ODZu3EgtLS0Z4cjO3JZchyAIIiCnKiLIC2tljPOOHTt4y5YtePbZZ7Fv3z7VoNEf3vHds1KeQClBKSUmfJIKsMkEKv9a1OdVVVVYsmSJClVt3LgR11xzDZqbmyl7C6TCShAEEZD3VEjgC/10d3fz7t27lZC8+uqrKtQViURyDLd3pqRImKuYAJxKT1acgmBw3u9VGIaBc845h1atWoX169fbXoctImR7IDaWZbGmabn9eEQ4BEEQAXl3QoISORL7z2Qyia6uLn7jjTfw+uuvY+vWrejs7MTAwADHYrEc4++eO/GMO52CQJzUu/C8nryfqb7W0tKCmTNn0vLly7FmzRqsXbsWF198MdXV1fnPw0CEQxAEEZAzIyQZ4x+Px9HT06MExfZOduzYgdbWVhw5coRPnDgB0zTfjndxSiLix/YmbK9i2bJlsEXjsssug/35nDlzqKmpSQmFb1ANfGE3OUUuCIIIyBQKCYqEt3IEIZFIoK+vj20RaW9vtz+3xQUdHR3qo7OzU4W9bGGxPQE1Nzkv9OT9TDU32/0wDAOzZs2ihQsXYv78+ViwYIEtEpg7d64SjMWLF1N9fb3/9RSIhpcU52naAVQQBBGQshWRYj2zvEmIXljJ7514pNNpTExMIBqN8tjYGOyPoaEh9TE6Oqq8mGQyiVQqpcQiGAyqj5qaGthehP3R0NCAuro61NbWUjgcRnV1dVFPxd+KpVgZrngdgiCIgJSJkOR9nuOd5HsUpcJWpTyQEoae8z2jfMHIFzoRDkEQRECmiZdSRFhO+nN9n6uGkPkJeREJQRBEQM4iYXlHCyNCIQiCCIggCIIwHdHkFgiCIAgiIIIgCIIIiCAIgiACIgiCIIiACIIgCIIIiCAIgiACIgiCIIiACIIgCCIggiAIggiIIAiCIIiACIIgCCIggiAIggiIIAiCIAIiCIIgiIAIgiAIggiIIAiCIAIiCIIgiIAIgiAIIiCCIAiCCIggCIIgiIAIgiAIIiCCIAiCCIggCIIgAiIIgiCIgAiCIAiCCIggCIIgAiIIgiCIgAiCIAgiIIIgCIIIiCAIgiCIgAiCIAgiIIIgCIIIiCAIgiACIgiCIIiACIIgCIIIiCAIgiACIgiCIIiACIIgCCIggiAIgiACIgiCIIiACIIgCCIggiAIggiIIAiCIAIiCIIgCCIggiAIggiIIAiCIAIiCIIgiIAIgiAIIiCCIAiCIAIiCIIgiIAIgiAIIiCCIAiCCIggCIJwNvD/AgAA//+i7mvNOX8l3AAAAABJRU5ErkJggg==;sketch=1;rounded=1;" parent="1" vertex="1">
          <mxGeometry x="51.17" y="113" width="81.63" height="50" as="geometry" />
        </mxCell>
        <mxCell id="jqk6BCaP8Qqh_6VqfDuk-5" value="" style="shape=image;imageAspect=0;aspect=fixed;verticalLabelPosition=bottom;verticalAlign=top;image=data:image/png,iVBORw0KGgoAAAANSUhEUgAAAZQAAAB9CAIAAAAKmwIJAABTpUlEQVR42ux9CXhU5fX++92ZTCYhmUDBALIJQliKQUFQQKWNKD/cW5ZqCSoGrSxS2YpLFUGrIFuLLLaCioD6Z6lWrBSXWFBAAQFDFEkQJASzCCaZhMzMzb33+z93ySx3vntnySQsnfPw8GiYmdy59/ve7z3nvOccq+M3dYM74935VpsVcYtb3OJ2QdjufIkDsPUAxswWeCF+Q+IWt7hdALa/QBr0qAJejiRs+jyOX3GLW9wuANtxUOo3SbJZwan/70jBpt0YPk2odtH43Ylb3OJ2ftrGXHHIZBm57BYFvNwSVP6Vm4+rx4tF5XH8ilvc4nbe2cI14uinqSMNdoV0cU+NILxH+zdHEgrK0SlH3HFQit+puMUtbueJVbvoqCeFmatk5PIad++tHCwa+ZLxywZbHYY8Ii17V4zfsrjFLW7n3PYXSL3HiZt2w+Hw/dAtgUtvThZkE77W91O7RX7RI4voyFlCWUXchYxb3OJ27lzF9WK/h6WiCtkv9JpTwI29QCil1S7qGC3aBM2T9L3CA1sCXn2UjBlmid/EuMUtbk1ph45JOfOkvUfgSNH/k9OJr1ZznCiKqUlky2McX61/hSNR/jv7WdnbPF4Sp2Bxi1vcmsKqXfSx5ULmOGnvcRZyuTDhDvTN4IggCBaLTKzGzhHWbQ/gZr5X84CIBfeRP4zmUpNI/ObGLRzL3SstfFu6bRAZf6clXr8Rt3CMF7DxEzF7GcVZNhap0fmTb1nSmxPZbfSinew81sFu4CM6a+BoicXjyNjh8bUYNzPbnS/NWC7tOgQkAW50bIeFD5FRWfHgQ9zM7P2d0pOrpLyjsKXoQ1g+FKrChrnaWvKBlypdHfKI5B/SD4Y9vlaDsNFD4ywsbnqr9dCn/i4u3iDDlsNWv2xE8GeRdRVe/pOlW/v4momb3j7cI815TdqVD1szQ/Kk8qdZozFvkkadAsALwF/fFqcuCxBTsCGsBmiO2XeSB+7gOqbHl2PctCX44GKpqIQRp/AFH3LIjDFxChY3n5P44ts0rxBoBoepP+f0IKsXPlnqe5Ev5uW1RxYJy95jrz89hHmAOowYhPvv4Ib0JXEipj6PyhpaVQM3T+sEnK7ETxXy/5ZXoFgpXfDUwc3jrBvqf8t3sg51Yv1/89rn2G1IsSMtGc3s8n8nJsg/bJ9OWrXCZZeQlmlItCE1maSloHkKOedePC/g8RXC4g0K4fdbTW5FLOj/E2cNMrtg3VPcFV24c37NpT/TqhrtMZ0soxU/48Rp6vL4PRrlcVABtYLy4OpQ49benpiABOV72RO0p+N9UkmJuLwduaQF2v6CNE9DghV2m/ykUpKQnBjfI7IVFtPV/xLn/wdwwpZkxra8C8mejMJXLenNiRl4AbhlurD1ADtgxj5RXUAL5AzE6KHcdX3IRfyEeHkR04pqnK6k3xdT51lUn8XJcnr4BL4vlV9Q6gI88hZFLZCo3mOAAyzK3/43xm/z2lg3jKeAf6WD+r+i8jet/+Tm6Kgw7czLMPgK0i4dPS4jl7Vt0oOksJiOmSvqUtpOl/yVB3XFaScKimFL9kUxnIJ8cxY83KQUrNZDT1chr5AWldL8Y3Tnt/ihCk4nUFX/mCzKH9T/rTOO8aR4f6fF/0mp+u66+sfkAeyKwDIRbZQ91b4lundAl0tJC4eMdx1ak7atZHRLSkRiArlYA8q8gCNF0rbddO3HNO+YfJ9tiYaxreBo1VevcH0zAl7NBq9qF71uophX7AtbhPULBMAte61jb8Cwa8mVGdwFGuCodsnwVFVDa2pluvTNMfnvqrM48RP2nlBQyR966le8zeLDJntTsQqtNIKCF5U9o0Ibh0G90LMDBl5BBvyycbFsxWZx0nIKi2+pOJVlMHssmTiSU8/JD/dIw56VdPkjpxP9e2L9040VBeMFnCilBwukbV/Q46XI/VYBEfW5JEAGCNJ0j8n3pNSHReuflOiHfZz8t+MSDO6Mlg6kJqN3F9K1A2nVXOZurX9BzgeKHYUdL6HfHKPvbpc+ykNRMWCDzRaaagXQI78gfQB46WJeXiuroBk5ovNsCEfUBMUA+UmMGYjBmaRLO3J5+/Po7nsJ1KlyeuwUdfOo+Blf/0D3FMgEtZKHsxKoVs5kIq91FaFslshuuiHQ6CiVkXF+Rz2JDBPdogJnSpgJLZDhwIM3k769SP/eMQOyQ8ekR/8q5R4IKNpw1iCjPTY9q/cKq1106hJx9QewpfpRMOXyVk0lObdbYkgDP/pSen8X3XkcznLlviXKjy/8ZeyW6p8RwnhMgU9EflikQaeXvH2kenJd50M3R5pG3Nq3xJVdZbc0LQWXtCBtW8m4lpIEq+W82FyiKNbyXP739NvjdPchKgNWifIt7LAlRHNbnE5Dkm4IXuo66P2gCBr9jpWfRJ3yDNSH0QIjM3H5pbjuSq5TW6S3IC1SG+uOe2NP1bXUw+NMFYpK6fen5J/8eAbayvb6dPVeg5c9RXSX9fTH6zt4/bt6Fy/DgbRmSLUjMQHJpl+8VtAiL9Vu+e9KF0qroAmJvX6oyvisIS5Y24288iASMHIgRt9IbriKa92CRO2CzV0lzn8rIKWoOoOz7yPPjDdcLu/vlG6fF0DB5BVSjZFDsGyGpSHX83Uh3ZQrbdqlnO0WZatwoe6Jskj0Lp4Njua4LE0LOCaHWpzex+SNXZY5/Z6U7mFBix7YuGjXGBRoE/0CCPXWsR1+2Q6XtpQxosulpFNbtEzVIm4pSTJ9awyHVI0bnq6kpyuxK0/eX3sKUHCi/lvb5MXZEHorI9d4MuM+9ooyAy9VsDNoihSmaxouKRPr10oSHKlobkPXdPTvjjYtSWoz2G3y3W+ZSpKSkGiTb70SvSZWCwRRi4LLy4WHy4Uz1ZRX1k1VDWrdKDlDD5/AN6fkn1TycLuUrCgNXEP1qyeKb6Q/FaV6H8Qmf36bNNzQE+1aoVUKgRVtW6FDa9LCgbQUYld2eEOOR5Uqujw460LpGZktlpTidA39/kd8eFj5pirbVVYMODOiIfMdt3zZ/bvijyPITddw/kHQkLbjoHT7XMl5JjDCpRCut2broxLBVl5Jp/9NXPdRIAVzyfdw3Z8i04LVeugXefTNj6TVu4EKZasYLFTfg+P9WEAS7ugjU5jmKejbg3RoTZLtSLY3dJN7nxSl8pqsqKY//oSjJ6ngkZ/X6SocPoldxXBICjtWTxQELk4SjUurbS5vbLTO7+C0KadForzXABnjenZCh3Rtu6WlkJZpSEmWMY75yTUuWlOL6lpU1cjbraoG35+iB4/iaLniozg1N0teeJaGeic65Jp1t08YwQAvZszL33L3SjfOihl+sQ9Aqf4RikHhTya0EhZpr4+Ie1deQ9mTP3XyAMno2FbG2RZJaJuOKzPk5a5GW1v/4txnkYrK6dET9Hgp/e9++uMZ5B5Wsig2jZoxb4UanIKE7KEYO5z7VV8u5KZ9ZpU453Xqn1KUd2ANZt9PnhoH84Wko2AjnpN4D4OCLZ9pCQmm+wuk17ZIy/6tLJtEtj+ibWZe5oOOdFx9ucxKftWXdG5DOrcnnduS8yG0WnoGJ0uoQPFTBT10lB4tkqncqZ/xXSn404GZBAXdoqBsjIib6Jf88e418/I//x3X4IsJE7km34WXpputyNDgpbH9WZK5+Cuce2fnzouAlxYPQj0HVNmTgs5tmmNAhsaeklPQtQNp20qjThdWJqjaRX8ooZ/soV8doev2AWeVb2pnA5k3X7xgJBk9nC3cO3RMyn5WyjumJ1wd2+LtP3MDe3PMa/jPbskob1NeSSctEDftCJBTOz3yPtnwOJuCqR/43FpFFsTiWb54awLQDDkD0bc7GT6IOx9Ol0gfn8qyT5bRwpOahmP/UZmy2QQlFOMJ5GvQIh7nwxZr+GZ31iBnGFY9EWKzhQVeAFZvEcfPZ4tX5QO8LkQGoXmqwjDLA4lSUJ6uIV/YHagq8B0v3giUqJHbzE7olo6kZAzsTTq2Ick2dGhL2l1yMWtwCovpnm+kd3fQDw8rT8Fo53tkqjL8Goy7lQzpq7mTmiTnrQAZoUq4Zt2DuX9gz51a9q74yEoqgyaQfRP+MsHCxMSNueL4RdTp0lOwQVfgpak+J3R/gbTqX9LK9+UHGizC1vwvXsbf7Ktxx/Wkx2XknOvIGslqPbTsZxnU3LzM1wpP4pvjlAooqsDeEsV9ZsbaVKfEEiDWiW67MaJv/kFDO5CEDAcKnLJrbAhPCmg4mtejcCByZWdh7ezQNCFc8FJ7sM5cRXXFQ04eOb+Wz7e//ZPq5Dy61zw/0ZKUCJcHbh6nK+nh47TkNGpc0IJ8TvV+KHehLpJ7yWmZb7sFzvpfndkKGZeizS/QMo2kJECNQHVpR9qlyxyqZaoUvoNz8S3970/Rzbl0yQfU+RPb51KDYrZmGD0QeT9AleQEqBxc6JhuSLg0juZXoeZ0yX8bZRU1CrY9KBHJI6sPfpGKPd+j6JR8qWqbEz1mQb6YcUPJsGtJ78v/p5XS1S5aq6R3qmrkzaXKbgGcrqHOWvxUqWh9SurjYEKQwsbcEnzeIq8AS1ZndO+A9BakeQoyLyddO/kclA+/lG6fKzEDr2piJ+sq/P4mMu016nYFLD+nB4O64dOXwprEGCJgrzNm5wknj7y/c1d04VZsFqe+QnmeoW51utC/K56+z0yIr8oIT1fSyioIykXxQShmS/D9t1X5mKQkpCTLd7Dhodb/NdtxUNr4ibTsv0AlkKyP8asumC7+qhKuaaPx7B8sTKKqlpcFl3qofGrEYCyebkjBshdQvi4AoeSFLjFcXfUyMjrhwVvIsIEXLclqPFOzCrVuOM9q6XiXS9t03n2n22tq4lINoZhonnbnS6vfk1ZvY7WyEYCz6N8Lz43nftWXGz5NyD0coCRVZfQFq8PNO0cGXryA6yYKe48H/krF3dg2j7t5AFdeSZ9YIa7eqkiKbUEL7iwcDtwxAL8bGi8nOo+O6/d2SCvepbu+DVETphKutY9xN1zJAIvjJXT8C6JO9qX/BKW95bqZ7JBWWQWdvFAfBWN+SEZrLJrI3XwNFz+rzhM6v+8wzd1H3/qUFhQxOLLK5fv3lOnLbYO5sgp68zQx72TAy1QY+erl0AnrKMFLjYBk5Ig6qYFaqj3rbjz5gCU1iewvkF5YI23azoit+IT4KcjJwl1DuIFXxFHsvLDVW8Txf6O6ZacjXM88aGE+LPm9SwJ09iYRE74a2Tdh4RT2Abt+m/jAX/UUzP/07t8J/33JEi8SPB9sf4GUu5s++y8lBJHACHyruaDh1+DR38nkxpdoFvRLxVmFdU9F1rQ5gpiX14ySj04X0AyrHtJCG4XFdOn/E5f9B+AZsTBNv+rWiiLvGhLnYufeBjwkfF0UtP5ccDTHO49zWf3ZhGvSQnHrnhB0KXipOJKwajqbghWV0+l/Y1MwZw3yXuPifuK55VnfnaDv7ajnWQnGyR8gewim3qORqcJi+sRKg8fqkl8ZTpC+oeCldZ74NyO2pVKwzK5YMEED2rIKuvYD6aUttKg4QJCtRzFFSJU9CP26k2t6/69HXs+JLVwvznyd6gMC1Zj8Gzw/0ZhwLaXq0Kngx2qOZV4KtuiPbGHX+m1i9mIKMTAKxmPWXRrBjz+yprTCYq1QdPVuJUiawBYYqOJBWzKm3oacO7XC1bIKuuRNcf4GRS7LRAArytZaIhJLRw9etR7a8z6xqAImCYXhA/DUOC0hpYqhX/tAWveZJjgKfqNPf8/DkY7BnXFzf9K3B+lxGYn0W8Ut0nV5/1/EXfmBVYoK4dr4mHYIBZOjaYvEzbsYp6h26jZD8EgXJgVDM2yYakjBgn+LKi57bTqbCcYtVlbtooUn6YEjdPch+tk3KCgxkwpqmV8R/bvjD7eT26/XdDbVLvr3f0pPrqP+gmT9GqjClvncbYMjfpoRx7z83d1+OWZtV9UoXfZQ/Gmsj+eXVdCN26V3cmnuASXzamfDnw/IRKWzSnf07Ypre5OenUm3DnFSFutQV2C4SuVEE+7E/MlsgrN+m/jAEsoLjLCU+uC2PMMN+CVpPVZ0hFF/rrL1nOEyv2OeUsH8To3BTf4NnsqxxA+2GPqD35+iFU7k7qPfHKfvfQVe0bjAZlj049UGZnTCPb8mI7ICMr/rt4lPvEaLStgKKu9RNG0EFk2JJvMSPXhp7VCWhGi76vQAEiYMx8xsi39NxvESmrtPevMjqvUqsZtVRTm9FZGiTMouS0PGpbimF2nbCpndyGVtiYWLt3mL2JjZPZUKbXmMfRKaEC7vWlz3BBkzzFLtou1HRjC3WCV666ezfy8zsmb+lrgZmdr4odaNY6fot8eph8f3p+gXh1FcUd8BwrSqzFd3JZ8nmHYTRmZxfbr5uvj5+qMeDZ04zuqFrYut0WWNGwReACYuEFa+H7rtqipTzBmKiSP1qdCicvplvuxLy9T0hKIJNi1G13okiD5eJlszZHXGpS2RmoyMDqRrB63XaIIV6S1IanIc2vS2MVccvYTC5WNPKuHKucWQAZkQLt+jASretSQnkvJK2m2MGDLyFRwFM7mAZe+KjyyjIPru+NlDDXOX/+N+X+kZVNfSmlq1zAjlFbS6VhEen/SrbfSrVTTrw1FfRm5LwY29cNsgcu0VpHeXALVKtYtu+Fiau54WnQrRjV5lJI5m+uaoTRHz8rdRTwqbdofVdtWpto2+FlPuYWiFaj301E/YcUD67366bpcS9ksKt0I9oN+Df0m9RT4cOjZDc+XyEhPQ6RJNed88BbYEGeDUwnpHM7RwICWJWCzyy4iqgFV2qaX+Ss+TlkkNJ1wzljL6OjiSsP4JNovROFqgCJ4ZKMi+TssZRQFe4fCpwmL68Iti7gEGWzQKnF1wtEik8rcQRHkFi5JWlOLhtZYqNbVQC4PUH/J1EETUuHCmilYq7Z5OK9143DxKXUpbOpUikXqJPIm48YPKPDI7YexQMrgPubw9IwZdXknf+JekaiZCwpaKXDYO+a80qBVlDMCLFzB8mpCbH0nbaEWxNvNu8n8D2SOI1BLcGf+gReXhfqwJrqG+aF7rAuiteTRxa1i3xL/TUzM70pppP09LweXtSMc2Gt1r1Zy0SjtPuV6wiipk1k8rP/QYEi5/n3HVDE0oU15JW48Vw4nZsw/5GrOgW3D71pDf4pxbeSUt+1lDn7Kf6alyFJxUOsycxVm3r0G+m5e/ftFZpVTevzI35ELltHpGX6PqBtdpq6nDWaN9ecNgO3RM+sc70rKtSi1EeL1nYoJcsQEvFb/ummXY9l5ei1RPStVaAUc6pt5Cxvwfu/EAL+DRJcLK9wxF22r5iPrkbCRmjYTMcJCG0Vq+GTq2kLleq1Rf00s11XAOC5i0cNXOQMLlkT10o0ZazN5bZouyCnlvaMmZhoCXPwUz0pd5M6ThB+yawNQWmN/9oLSCcOLYj/TISZkKuXmlete/ajohcKaBt2tuI3cSD17Dhh2TeGSkM5rier/ph19KK/4pbd3DkHoxt7z3Yx2pOLjc0vCuRA2NefnbyFnC5i/08S+3iOsy0CIJHxXC+ZO+hk7LVogYfjXG3EyGDmC09zSZZnRTb6jdLD118hLJ+1Hp/eJfT+89jgJvYmN3DvEtEV2rcgdG9ELzNPTtTq7qTtqlk6YZHMdI2IXqnxXc7yHkV26ThsJ1WvBVm2EsNKxTSH1W0Uho9te3xan/OJcUTB0qkVdIP/2K/ngGn3wLvtaPE6mxJBIbHhSuk+G9Nslv7XlLr5ujf1v5WAWQbAWxYs/3KK0KUo0K8gG892XGPTx0THr9fWnVf5XtbGdUCqIOGR1xRXscKsYPPwdSFgUQdyyLTYAyluClVW7n6qfIzP49eWa8pdZDc/fRF9ZJu/IZlY9ae89kjLwad92gR7Fbpgtb84LeImDyzb52ZaIonqnm1JYV3xfTEyWocaG8gv5UiR9/VjIpZ7UeHb4Ame65wu8YtEQ8JiDc2Jzg1548CZntZeC+7kou6+pGmbpUVE4fni9u/bIRCZf3CY4cgI1/sXod/4aDlz8F2/I0u6by0DHp4QWSrjCzsSlYUTn96Evpv/vpjsNKxwtonfKj69AbVqRFDV35N+nUdQMP7OfVPBWtHejeTib+KUlo20rm/q2akxap8D8GcvdKv3lB0rV2UCMABet9bh0vIP+YlLubrv0vu5maBlsJmD1Kc6QOHZOumxHwySpyfbY8ZodKjMFLI0rv6ocyTLjNF7/YnS8tWitt/kLfaCUgCythUG/c1I8Mu5Zc3p64eXS7V2TIeV3IaIuX/sgWUhodlYJIRQkV1RBF1LhonQAPjzoBQh1qlSVSVUMLT+KtT2lBSUMjbmGRCyWJ43Bgwi1mwYXoIlzZCxmEa8RgLH+MffoF9zgNd4P5BbxiC17hdrNYSf0F3CHVatFh1oaPpLUf07yjsenRHlbUqQ7ZQ/B/1xJbApISSbINVqXfQ4JVy6fbbcTRDMl2WLgIckplFfS5V8Vl77KLddT+RYeOyaTyP1/Q976GUfWi/GhccLTEUyPIH36rhbDf3ynd/ozkf3NijlyNAl5s/ArKB2mVj//WeooHS1XVxwZePv97tEGlC5XVhst6xGBMHBljybUoin9aThdvNGuTEGNSplDurKsw9XcNpQxswsXLJ/a6mezyV+aAH//7bO74OF3IW+WLj8QWvLz46GiJ/8w17COWM08KHh9pwtrCt9350uK3pE275eUafhK84YSrY0u8/3yMazmPl9A1/5bmvE0hGR5RvTsiv6x+/BJLVe9drpldMeW3ZPRQDba0utSg7myO1AapIhoxYM/Gr8DiR/UkHH4N/jbVRy7KK+mWz6S/b6F7vzUdoCCG0owoxesZnfCnu32lCTGx8c8Lqz9udP6lR+2z6NgeCx8id95giSLALxOuBYF6KEXFPnwAXp7FbqcVPNdHd2+z+uJoOSM44vt8Kzzv+NSGjQFe/h1cnx7PpmAL14sz/0H9j8OQTV9DwtaM5dKuQ+zK3EY9zOxJETS3Csd2HJRe2iht2sGupg7nrPJWIjsuwYQbMWa4D1h5ASs2KSFILqjXjRUnVltiHt5tLPACMHiCsOsoK7bFY9ZoTBsTAMOFxfRfn0gvbaVFpwxrPsNa2Wdha4Ybf4nbBpHrryKXt2tQIIkXcOoneuUkMTgo0OhrV9lyHdvjlWkROMWGXUmNxyOaEC5djar8QI8ZVLP6KbwaFby8FMykd75Ru/0w5xsFx/6aGLb8fbexwy0NHGVUUU13HJB2HKBv7FSYVFTfxTccwI6cX2P0UP24lvd3StNXSAVFLCe0CtuXNZT5NjV47S+Q+j0oMbOEsheZgOUPkftv43Tgsr9Aem8HfWenFhdEQrRTb5XAGRKQ1Rud2+DKXiTzMpKSDDVmGSxZUJPcZ13arKrPD0qnTmPdPqAysmYvjQFhE+7EX6eGZg0bc8XsFwMU8F62a0S4mLOsvbs9swtee9y322+cIuQeMQCvGiyfQiaOsIQJXuozaggihORTatdy/+y2SmlNWJvuzoyaI4WfbG0k/IKIrD7o1QlXZpBeSsRdDW/poniiKHoErroW5RXamPcv8mlRGbSRBRaFECRENU7Now0HyBnIwCyVzc1YIe39Fv4zpfwXxuyxZqM8z7uYl9ceWy7M32wg/pLA18LREi+MIWNvYUhVZS62XXrnc7rrqAL5iVqj+mi8MNFv+LAyIMCRoM2w85o251F9VPVTshs7HBs+0cjqg3fnGwae2cMQQxGuWcvElf8yIFxuLHgoYEwxL6D/g8J3JexH4K/wCgleqqhiwOXY9HnowrJwKNg7c9l8yoiCOVqGiILJwPcKjSjZ2rhhBO8CVubpwqZfwJVKosldK3seWiKyAQtYCzeL8o2acCNuGcxd3ZPhwew4KM15Vco9wOgh7j1g2jT3qWcuMPAKqVTUICwFT40mY+9gz3Aur6QHC+iWz6Qd+dDoWMNgxW3c6iDkZ56rGW5ODzq2YsdugzmCGuHKugqrHmdLAdUEubMyLMKlWlkFbTNKZPdZVcDo8JoAOlPtou3HsN1tt4gebfH1a1Y1PmXSciB4RwVHaryTup+4n+FhiaL47GuYs5YRBWMWUVa76LhnxM27mihLY7QyQ7ZCi271mjEsqX72jR1ZPTH8GpLVnzCPBFWeOneNzLbMnVBnFTbMbcSarcYFLy14/Bw1XwoaO7XI7nTOHVy/Huze5LyAE6X0oy+lT/fTTXmAU0GxROOBo4o1ZISvNuGxfryKrRnsyXDWyd5HY6jAwtm9G/7sWw1F5fTJleK6jwNV5kpKcfmEACfOf3M+sUJJkDMHiJ3FrLvZjtiOg9KQR9gdkJw8RvTFpvlW3S8KCV5aouApKeTNdPKYcDMyOpDZa9m6WSPM9cYixr0QRMGU2MWGWQEZ8NtmiU2gj2F7iJyGmOoCk3EkQXH3GqAdU5XukAyHqDs9gEdeP9d1w/B+ZHA/sz6gReX0n7nS7A00WG3OfGSDumLnykYsKGnEmJfXbpyiHxNiCGFKIiOzK/5wGxk+iDMpIKj10K8L6bYvlBFegQzCLeLqzri2J4rKoM6z+7pImfsfrLxXTUVv/9NM1BqDqBMeO7VD3+6k7S9I106aIF5jLtVNHcf1yuKn3cNt+4LOeVvRcPk3GnXKhOvlP7HFYtqk/kr2eCeT4RrarOw3KXNX6xRe4YBXn47Y8w9tWe/OlwZNl8yru7zZzMoa+uxqGXyDN49KwRaMJ1PGMCgYL+D518U5awKiYN6Y4GNjuT3f0JmvU6NN3rjI5ZSZo7dITlWEfl9Mv8inh09g5/F6yQIXVHLLBemrvUOwqSaBbpWKS1vKP3tvjx5cIGLyrbj9+hBzJKpddG++0kk015AuML9U3prGbdjdFOBVWEwz7hXD/M5e2RsSkNULD9zKrhnyv7OL1ktz3qT+n+/ksWqKbzuVV1Kv8v5UOSprUF1Lq2rgqUNiApKU2YUJFtgTSUoCklPQoyPp3J40SzIb8VReSbs9ILprm5p/+aoRArPd6lpcPsmQcD3zirh4oyHhmjbKUP+pmlmq0cUY+hI+eKnMaOAUeRea3EynC9Pu0rrW7c6X/rhUL+kKk4LdM0cqKA6kYKz72ZQBzQ2zzXyrahetqEaVUjL5UwVqa+Qf1tTB7aF1ClSlJmvDSa0WXNICl7TwjXlXF/DxEvq72aL/dAJnDYZfHSBaYv7eA0eobziePYKj2lmF5VPZS/ECAy8tqzVdYqbt1JQKsxxHjRzDghH98auBZEim4YQ+2ft4IiCz6XTqm7jG3EL2km06OlYTgnA9uEC/Y8MkXL7Y5SiRuXZVTnR2kx74TMDLKWBQF71DId/MSZK5j+90YtsiTTgiiuKSdZj5Kg2WjHoTDlN+Fy4FO2fBeBdmjcC8SY11HWoXZp3wzemSCZe3rk5nZRV077d02xf1mJVgMABMNNTrOmsw+Q7Dz7+QYl4Bwa/nqW7/OHlseJz0uIxs203XfkzzTihRqkTWDGcln5LRHvf8mlzdk2R2I21+EUCLVmwWJy2l+hNVlIHv/jsaazTRqCeFTXvOgQhI9x2XPEQevdvCdK7nrhLnv82aKavQW/+yLROTz4bHDANeOoVXaPBixcg0/3GKZEJ/1G1z7A1fFsLMEa5B/+5Y/Rj79NqdL93/AhvQmxi8jq2PQX+FYIDOPyZt+Eia/x/AGUgzBWR1xydLrbrD6ftimWe9v4vu/E4+JNij1FUy4UDOQAy8glzVnazYJK3+NGD9O10YfhXenW9tgu4pTQdeWm+D+QEZaDVRtfwRrRpmd7705jbpjVx55bGHdNT3+Qdk72BwL/TrQXp11hqkpf1WYJSYKsBnS8LogbjjenJlBhfj4sEgRG7KWMmg3nh5ZsT7U1Vshl8TaiJ5cbrYvqo5eDHxTg0m3jhDMrmfTh79OwfMbTQpI1cf/ZIJZOJIBgXzIns4zfMahTIHuc8NtPJK2bX8YKe0dR/yjrIdYacT21+SifahY9KJEnx+UMo7hq1fK/kBsKs1vWqvrL544FZyxw2asCk4DOqswYhr8cbcJpqq2aTgpXUffi6oh0kNRt6AFydrR1B5Jf3oS+nVf9PcfMPKRw3IBF9j+96tcdqpb8Gh57qKRDgjHZe3wYCepENr2G1ajCAliSTbA97iqfNVbtfUwnkWVTXUzaP6LCprtH4VBT/iu9JzESgJRbheXCsxPSM1qj3r7rCEml4b8JCw94RBwCtI4RUavDyYMAwrZrI3bcjBCEyvxKRFtTnEm/jUTWGJuKkbmqehVZoin1a4raMZWqaSpCSkJMNuI4k2JCboV6ZHieEWl1PnWXlB5h+jewvxQ5US2reZpcLdEq7rhuIz9dOAFDmYYUBAnUnYHJN/hXG3+8KI+wukR5YEdfJwYsIdYampL7CYl7+xpYPKnI7ZvycTR/oqEwuLZRR7fxfdekBL/5kMBVC1eeHgSIAAQjXzG6DrY+mXrzwnKtaQhOvhRfrb62VJGW3x+uPsqhojKyqnne4WjZTG9iSUvMXAQXPwmjzcLCYycYGwcquZXsFZhV0v67+Fyfhbc6yvdtG/vHrOKJgqbWG39g1zWVoYLXHM17/RK32CLx4d2+OO/hh2bUDI5dAxaeVmaeXWAMhTQxC6EouLE7xUajBrmbjsHT3Vl71FB5bfr9fcF5XTzw5I//mCrtunSGBEs3FM+pUBrRmh/cIfMaNuwgU5pqHoQEGmP+TlDMeSqRH3h1GTLeErvEKDl1/e0Gh5DHxYzCs2DCYyQ/6+0ITBHFwV9F9/0jCtMXae1PC24+eJeZvWhSVRqleo2prJnuwtA0jW1eSq7gFh4v0F0opN0uqPFW6YFPA0Y9K344IBL68Lmb2A8lJQb9VaGcIWjCSjh3O6ijx11PiBI/S/+2neD9DaKiktK+XNTPRtG3N+rZzJpcg9rjThtdQfU8pvjKa9egPU+Q0nXP17GkagmTpM/1Nh1ugos1pmAS+Wwisc8AqZYissphnjRBNia6LePl5Cx78g5h5gqOTDEpRsYJfpxRZZYr5+fBikCKo7tsMv2+HSlti4T3H9An+1byiqJN+lwT2Q2QXXXcn170V0siRewOcHZNjavFMJ4CTq12T20HM2N+Bcgpe6RofOEIvO6M8HFcJsSRh7A35/E3fdVRyTaJz6iZ4so/u/oyfL6ccHkHcacPs+yp8XlFfSqhocOUG/+0GGv437FB2zW/kDHwKCBNFyb5/V+uiAs36ROeojEU4l2BnOgNUoYas+9z/1bgQ/LF7A0vXizFepUXDQPMYU0vqMMy5pZCm8wgEvtbmu+e9dv03MftYw+OUWcVlLHFpjGGEJ7hDtv+XMlSWNSsFUcYn/ElLXj03QOmT5FqQ3QKEG04kilw8WVNcph3cy+nSQSdPVPckvu5BWzZGaRHL3SjfOkrxfRJ18wVsxohd6dyOtWmFIJmn9C/ZEerXRyysf0oIT7DIgk6OricCriQP2wVZWQW+YLBacZuUWA5sHGRWI+m/jD78MEHyZzOOtdtHTlThZRp1nUfYzrfgZx8pp+WntX5OS0a4V2rQkl7RAWgpJtiEpSf5fVbmqji1gOCxLaMxXvJryf3lGBIUvUTAdk6fTZrShwsvOoeSf7MB/w8FLU6J8aTi1yOnEhjlm8k6tPeHhaCiYURFVQ5FLKY3a+4pVt4RqPVTtCfHTGdTyqKqhJafx9VHqqkWFC+66enaWoAXv1fbzac3Qox3p0ZVcegmCJ8lrpVf1CUenBzlZoeMGaqB583Zlpr1xc6rGrlu8MMBL5fld7hXNB82qyVpHOkZdjWHXkiF9DTsO6qqR1M2/cGKj++TqUR9D8DKvd9GaHxgTLt2GUWsJIzVzhZd/0/qIwGvBfWTGfaHXfXklbf070She6RTQv1MIqYFMS/+f0p7QxmL3Sm3Q8hkRl683ELyiexbhW1E5nbdGXPleYNGrEwVvscmmWmy38yu6YSfde0wrzzZZVA2Z0X+xgVeY9ds+LlanNbm/vjey+nNtW6F7R59fuTtfGjQhYL+pKKCWTN50TUN1XrUeeroKpytpTS0KT9Jvj9PyChwrxb4fYtzy2KTMhdny2DzSf2J9NK0spy8VFr9rqPAyyt/FCrw0bc3Ths4jM+3IZBMPvyjm7jfQgoXTOCh2UTC1UUz/TppC4oqupENrrdOcTncdBQnYlSe9u4Nu2h0UVlfiv6uesPpz6mOn6Jf5dOch+t5XSkGeJaz2eU4eWT31MtdzA17nNublbyNnCZv3RnDKeZvcg6BjO7R24Jru6HkZSUvB3DdosOBLK5lUZPqqzitddgl947LtNmK1QBDh5mmFM0DYVXqGfv8jCn7UBhG7a5VKb/hlACwxW9zmPV58nY5tkdWaRdfNcsBDgn9NnO4zv3rVsDFpTNzGcIJu4XvEsl+/0IyCmbRsHDUvlhTM1/VE9JvuXj/uM8WOPl3QJZ0kpwRMdE9JRmqyfHmnK2Ufs6qGOs/Cw6O2Bl98Sw8Vo6BMic2zihCdPGb/jnRojYqf8WUBzfsBpZXyE4y0wZSaFjix1tI0I/suGPBSS52dZ1lpfkULY9IKUku11A9JNG8RpfUJqTMdROxv/tOlGnkAn6p9N5JiFRbTMXNFZhDHrXwXIwCNLuxVVE47jRKZ5E5VeBWvNwygxBC8ZPI1m83K1cv4aUO4wkgtEWlEwRBQz8+mYI3ZodBw3Gd4izNEWyE1GxBKFOadzscMNTqrsG1xBH3JG9WsOG8svTn5fCGXOU5yJzMUD+3TyWsf06IzSn4waOqUXQ2LhPdt7BbYY/fVNShUTJ14HN3iVjvkzb7fkHD5pns5glZbjewUp9ix77jBCk7A3iMRX9J3P1BIhrGkGzsj6nJRtyeCYMWtgzkksvexnYPzDE6U0jBDAZ3bkk+WWtdvE7PnUz5wToTDJt/J8fPp5v8Kr/1ZP/YiNYmsmGm9a4g07FmJPxslBfMNDDWY8a6uHHvj7Ev5yyYarz1l/h4S5ZeN/TV6tCPP/ov6ayxU5FoymZwnyCXfpPOEdql2RRdu13IMeliC//nG4Xgp/ni3fFarFacHjtCtn9OPCuv7czf++DxNHeNH7nQtk7Tz2Y2qs7JfqXvq4RCujm3x9kJDwqWOtmdkzZTKhCWTyKN3W9Tgup3FUBxW5H4rc9uI9Di5eyUkGEXCccv10TsOdWIEL05OJDlZ0BUA+9vBAqlb+wiW8ZhhlqED6OSF4qbt8I+myUdgGrZ+jTajxXUzGAPibh7AOTcQkwFx5kvInoTr2vtqfU79jLyT9WIdrzAiQZvu3tjrmfd2lwb698T1vXHnDVyPy0h6c6KGCHU+kNOJyb+BUYjzf515qTawN/fVq+j3sMTXK3TkjXcEmfdK2TdJT+dY+mZwfTOQcztqPfTUT/joS2n/Ebp6txLP8miPX5OtcqGcR2/Db3/zn0Ws1gApHJu3IqszundAl3RiT0O/rqRdOrHbEAwHExcIKz8MNyAVcpDEis3ipOWKXsnBiNSMHIJFf9QCEEP6EqOjVQEM7PmG3jY4AsTZug82m6G3MqhXtODFKVmXiFbFFWT1Npl1Mq/kVHnEl9C6Bdn4F6sWBQvMrDkS5Xub/Sx9J1cIHs2bmkRWPSFTsNvnRUbBeA++e1Wf1vR2mjt8nJacRskZevgEthbAJiihTykwKMa831RpaZ8UBt2rhyp1DuPIAbimF+mbQX7Z1SdMLa+kjy0X5m/QZxudVci5pSm63FzY4AWgbwZX8Abxb8gr38c0rPsM6z4Whw/AY2O5G67kkhNJt/ZQj9xVSvbkyAnqPIuiUrr/CD1eiqPlKCpXIvoKO/NHE7Xb6sJJnEsJ4Qv1ToxVeYjWBC04mmgDc9SQuVXXxphwMYr1PLAl6IU2qUlk5DUwbNFjwadfSeHPsi2vpEYFOm4JtkT06BQ98xIjFPR2aE0gGXqaJ8ujzJjn3G654So68ilRJ5RTKdjmr7Dl9+K6mQw1022Do6FgrZozQiUAOqaTvhmMKFutG86zMrSp49xVE/y+q5UgKQk7v6Iz19KAUYne5iuifHmDuqCtA727kat7kpZpUFuw6H5dWQVd+4E08w2KuoBboR6uSyaT84pzaV9fFMXzynNUrVt7cuBVy5RFyuKoz1KrTvvWPGx9ROrYTpo1itx2va9+qHULRmWDOs1s32FpwyfUf1aN3YJdR1BcThtDZefmwyVcJvPrzQiX0oRj2QzGONLRN5JNO9gMxWbD+19iUdjfYs83VPZobOyA18gBiL7tCYkA37XfWGfG41yeBq20va9YH18hLN6ghyGVgo1+mo78RAi+214KNuK5RpmQlppEUpPQugXMw3nllfT+FyT/w9XpQUZr3PNr0q0DBvySa9PSLDRZ66Ff5CktnnfJDqwtWfZtfR+lDLpvpKmLFyfz8kY61MUxZpHkPONLIMpcwIbSSkxaTictFbP6YHg/kjWQBCuMbVblZGuOzm0to7I0wbF3kTmSMHoOnZYvzLq3oZVZ1S76Qwn96Qz2F9DvTtAPD8Ocqam1rB/NY68Jb2kem3BZse7P7Hn9iufIwW4Q27agoFhmc2HGtj8/aBzwEjH4igbdMVeE4PXdD9TwYiQ4khu00mxWLJpivba3mL2AOvkAsqlSsE278WG2uGo6m4KdfIsYNRTTHR53zRI7t9Ha+DVc1aVKiOXdUR1QEje8T+hegIXF9GCB9N5n9L09SutBdaB/UGvsyXfh+YmWxujiGRM7j6QSJofDirelmW9Sw8lXimzVcQm6t8LowaRtG3RpR9qlkxZKHN3CwWrRCnpGzhI2Hwx05l3yZ97RF3fdQNRjyshJ5AV46qiissHJMnqyjJacRu5++n0pCpxKw1yEHpanBtom34X5k9mEy6gpgkq4RgzC4ukhJDbyd9zPdvciKkYza1pvqvDyArpJG+jgZp7m1n2M8MMZA6lXTcyasai93vceZdAo9f6bFCFvzBVHL6EwjYIFTGCsV3UNvQq9OhNHM9mba3cJSbabrUBBpNW1+LqQ7spTRs+c0auCnC4UvGFpd0mAY17rRnkFPVGColK6O5/uOKyEU+rqMYs1Sm7EIMz+Q+OOz4gBeJ0nCvtwQjArNkkvbKZGk5YDqur9um45HLgsTROXMpOAvgnbSsanY0u0b4G2Dq12zFMnv/fnapyuxnelSpUS/H5FJA0qzBvGF5XTh+cbtqOyWbBiUli4Y1KrYF7Qo4uAtBlh1sPLROEVErwi7SCqVkEZ1RI4a/DJQi6rf8y22dg5wrrPDdBfcaO2PMYxQ4cmPV2NQumg9Q01/bp3dUxHawdapaKlA4kJ2go861ayk6frW0IZT/Fxej+w3q0OaBZmmppXO5c0QS3d/xZ4eXf4PbPFXYWGxbpGS0TN1IS5pHxiHL8V0FAN11kzEi4jzkJDwjV8gGH9XaS4A4rT74R2BHL3SjdOlZhFObJjkokPFllDutINB6/CYvrESnHTbkM6o0pYKt6NTd/h3fnS2q3S+t1gXrbviVSzB9Z6KVj2AsrXRbBE2aAmxnIFhrXsPXhpCpl8l+VCQQMrLijrmE4++qvlV4+Ie4+Hq0WI9GHbY922UOvWNpetSy4qp9MWiZt3MQiXWsi56k+RdR1p3YJk9UbuEYbHZ+dknrL7EL15QIitvuNrA12CovC6bVDjBkF4AV99J61+T2l9ZzFzxHgPpt2FhiPX7nzp2dekrXvYgyf0yyMNqz/G6t0ik4KNyrLccJUiItsB5risMFdsU/Z0VZ2P7YsvDMJ1oYKXGsjf9JylU47oFljxFG/JIafJtWJyXgUchlSrDNcswZgXhJrQIxOuxRQie7g87wmYjx2+jRhCcr+mYPpZFplVhRRJf/SVcYAcuKo7iS1Ueeqoy4Picnr4OP30K/pRHopOKWrvkCm8Otx/W4MebbWLTl0irt6qKJvCnmLnSIJbwO2zpJxbpGAKporI5Ie7jPIuQwqm0mqfc+fXwKuBjX+1Zoe0flw26tetxO5Yz1dj3VPkwkKuCyNgz7QP90jDpun9GieHDVMJX4eS0zj2Iy0/jVoBp6uxt6Q+oA49FTc62LVpkqgfld4SvVsjLRnJVnRqh8vbkUtaICmRJNsgUIyaJzGmFimEa+NjbMJVVqEpvE3iI04ezveiyfUcL6Fd7jaoSQzVw0/NkDQbbux4Aqf/GfqqTNxG9UmN6CU/HfnTqpWR5nx9XCbsegnz+YPh2P4C6TdPN6jvoHkUrKicTv8bm4I5eSy4nwzuQ6prZX5d9jM9WYbvT2kNvIrPoKC8vhIO7Kmm3pYY8O9nr0JVc2Q4kNYMqXYkJqCZHVRAeit0uZR8d4Ku/Swwxu/B8D6h4wBx5hUzu3kAN220tHhzgKDOIeHESdx5Y0DTG1XtpWqvxCAVQe4+aeJyqh8iLWH5JNK1A2nVHC1SicWCFqlItklMlB85S9DN/VcjXBPuMCRcG3PF7BeVzENaiK9Z60Zq5Puqc1vSvzuY837sFhQU4UiRZJJI2neYytQyic2SRg5Aw3PnDgmbD2oHg0qNI4UPpyCfDc9PtDTEVRw0VZJPpgZItLwUbMKdUvDj7piuUbAHllCnJ4CC2ax4ch3dN5Aw9clqb0JPHapqaIVThraX36W6UICTx+T/Q6c2pIUDrX9BWirzhxKVdWi3ISUJVktA1rK8kr7xb2njzsAJsqL8oF+eZbkQQeBCBS8AL0y0Hj4hbD0QsPhmrqEzV4mZXTH8ahngOrQlndoQExlXzu2Wpf/Ud1xRU4pBjEn/gMsr6W8eF3cdYcwj2PyU4VH85EotIRU6oMtj77eRFfR4bfQQsnc1ZT/eBHyyh17RxZiPfEcbT+Hl2/YNWHpuRTv+6TwuahjdX6AMuLXFILSkRsFWbsX63SKTaI8ZZrn+Kn1k087JZ2TmeGnLswheKsmJJFldHoospqicjl8m2nSvcuP3w0L0MiuvpGU/0xMleHe7tPpTZUhgUuApy2PXQu586G8Tjdt4YWUbgw+okU8w5AVaeQQv+yAZbeWDKPMytGuFVilajyQPj/IKfJZHi8+wRz2qvSL/eLehqCpYH6iGMHKGm+Whxi+i4auxI20do6cVk9jTW0OmC2+ZLmzNM9AKhKHwCsdtbIjJvhKHXYsiG+Cm89nb3Cva6mLf4tmcca/eIk5cHjBcUp3VMHssmT6GDcS8gH/tUBRkfNDMc6UX/uRfyeTLaoGgnLg1dXB7qLMW+wq1HgHOn1SI1T9Q1eHd9UL0tzEOXjGwFZvFSa9TnGUrX3yxdv/ogLcLkonmRSl7zBmKYdeSKzO4Tm00Er47X1r8lrRpe0B3TfPYR1kFnbE0AgWQdzNE3TKYF5D4G8EmGIScPCjbxEZYM4lDeAqvxgMvdatndsG6pxqkn5TR+euwpAzeMT/hfwvzWKc2XPLLgJWgvmXxODJ6qAZhx0voyTKau4++9SktKDLMWmqNhSV2MNcoVeUUgLPIvgkLpzAqzOLg1dRWVkFXbpbmbKRww5YUyxNVrZNAgszg2reEuw678gPOsZhor012wrH14Sq8dDb+eWF1rkFLuRpseZ6Ns4eOSZm/kxzp0VC2xgMvbYgBhwXjyMSRXEO0EeZDifx/nexUKoVHzjrAqTSrSQh7qrGprG/1FnH83yiIfhU5LsHgzvi+FAWqGNV09nU091AZZzOoN559IJay3nMGXhdottHIw3/zP9KbuXTvt/Xyd1vMdH1q00FdAzmVcG2YyhY0REe4dCgT9XQpGTTnsIXpJjOrZRq7lBoNfwy/ECdW4KWOfbMlYert+MNvo8Rx/6tyjBaNCKkXo21W/CWbjL5JCwZVu+jefPrODmnZf8AcZ2t08HRMx2vT2TDBnO+tCqSDmxRGjVa+EY31E7BH3chdcJKI/wnw8lphMd3zjVR4Eh/soV+fVNxG3m8CI4tj+8xvcJ7JuacqrU249/s7pdvnSUzCZTJvPXgjhVnQw47sjBKZzMtEMCHztU8NSyN3LQ83RNIQ8PJyBCRiUDc8cAu57TouJg6O2v7fbExcDUZca1hAqtXM54dLosOiYEvYwyUDDkj/4aFeM1rP3tWrRFFuvhLX9CKD+5A+3UhM6hDi4NV0xguoqKblFbTCyWhWo3ZESrQhoX4bqy/7qUKru/7kG5a+Rmmnxez0ZF7jpnbCyeymtGwOY9pQ+AU9TDMrrnYibw0jcpR2q6AOZGQAigTnu+FeSdTg5ZbQJg239sMtg7jMbiSGiTD5kkaKzG/nvSeT7wotHBs7R1iXG+7cppA1rd62+mxPNhFTbyHdOvjGxGgnrAAPL//tXdJq1yCbgm6pyUhJhtE02YvGrBc3cqmCmuBWX2Gu9Q3bRSbhGjkEy2eyI1w+wpXGONUz2mORoqIY9aTAH4U9lAMSfkEP00YNIbu+NZDac9iepxdMFBZTZw17W8ZK4RXOYXNrv+jne5vYezskp9NQRu90IXtoWJLXtbOtP54JmA1qbo4klFZiyCPStFFScPs2ta2+7K3/lQbnBN0udOsAow5I/+PGxW8B0/YXSO3HiHsD51k4PTL72DCXbPyLNRi5ql10/PPC7bMkm6B3K5yCfKoveIgcWW+9bTBX7aIfHkS4vZyUgp7ovsUNfY2xxobte/W5moMFkqEnIsreR1McNhZ8crBRPnnFuxTJhv5dx3T8/bFwMeLNORb/XGRIsytNJRe/i573iTsOMt42cYSl4C3LoK5Kd63A0yv7WfrMKjG+JePgFZat3iL2e1hy1wYkg5xVGHkNSt+2MF3F93dKjtHi6o9lwqUvBKlB5qUoeMsyY4z2xvzvqbM8XH/KZsM7u6L8Ir27cI6W7D1ms+K9/agNnOKz7Qtq2AWfR1b/pgAvtQZgf4EU248tKqe7DhkqY/kavDItgiRm6xZkQTbhPSECXmwKNlmavlTQ5jb6Wbf2ZOdK6/JHidOpzWHT3pWGOWvoqCeFaheN780A8BLFOKgHLPFbpgvjX6QOP72FTLgErHtKJlzB7mdIwjV7LNn7itW/YknGiNTINvOhY1J0LvOYgeweynYOvNLWzv+HeT+w+aBbgiMd3To0VQDFjpnLYgxeX+ZLMLh8p4BBVyDSiV733smZI9fVnZXqVD6IgqVh8WZ0yxZ25xtSsP6dAyiYw4FNu9F+jBg1B48zr4ufcHUaI27N84VFVMI1oh9OrLcw4w4f7pG9SyPCldEKX63mnhmvn8P4wR5qs0X2lD47EOWp++t+BHWGDunOr6k/cO/9lp1d5QVc3R5N1g7YYUPuAazYHMtj9Yt845onNybeFfFXS29Ocobqscl3x3g8cAspeE3zBHXk15EiU7BBE6THlrMp2J5/WJdMCqBgjiS4a3HjNGniAqG8Mk7B4uBVb2UVCuGaT23WgHbgvCQTrk3zrcE5L5VwDZumeJcGhOvQGmtwJU15Jd17NEIhjw25e6Jcr9f05ow2rc2GDdt9H/vdD8a/gseIIbFELvlUqDGLGdlSMGk5LSyO2S79LB8mTX5uuiaajXDXEE6busiyk2U+T5AXlAmbQVGw+RtwxX1sCvbo3Za8NZw/BVPfsnIrOtwjbsyNO0xx8FIk1x1/L2792see5K3lxIi+OLE2DMJlYRCuXSsZhEu1Pd9Q1EXs/W3ej+hCHh3TyaBuitST5ZDuPYrjJdrH7sozbkAY0x5ebgl9OmDL8xxvZQSGvF4tLBj5lMgLMfiNoih+fRI2g6bJg3ohOklBZjdiCF4cyiuo1xM8sd4y8ho2BSs4bUjBrujC7fmHdcHDxFnje4LqSTn6aTpxwf96FIy76KUS5oRr1JNC9nNUm6vmJVwCVv3JkHBNXBCacJkoOT/9SkKEDYLlncxj+/4oV+pvrjP2HEXk7pNCO7M29L48dsxL+R63Deby/saZ5OwcNuQdw/Ovx4Bi1PIcqEGGRETfrlF+bItU2FoZ/BvBT5UBR8jGv1g3zCF2TquZ9X1Nq4+CMdMUM8ZY8l7jMi+tb7SprAeH0sei9zh27jLOvC5y25grE65NX8pLx59wDc/EifUWZkXOjoMy4Vq5NRrC5bWPDyCagVfKyNjovungPgQGCGBLwotvU15QKmAMnFlV5d8YAa8runCvTiW+bqLB+JWCOWso06uKDLzcQS3hvSahmT3Kj01NIj3aGJBHDmeDSNmoLEvhekvOUIWCiQwK1i9HemaVyKRg+1eRBQ/oKZgqH5u+VNBljePgddFaeSUdO0cY/TSbcH2wiE24pi8VhjxiQLhqQhMu1QqLaV6+WcmREQ1RR8ZG50P168HBwf5kuwUFJVi6XjxwhBoBXMwVXjxFQv0dGDPMMmKQPh4UYMm4/wWpgc6jxzsxn0lsG6doxsNiu+nNyaonrNsWcfZkNgWbs5b2f5BBwSwWy4z7LF+9EkjB/ORjDYf4Cw+8/tekEu/vlFqPFddt10e4hmfi2BtmhGvxuwpHYxKu5aEJl/ZRByRDnaTScKZNmjHKKB1Qo/jKNityBhoOnXYkYeY6+vjfJZtRvR6vcLcYmoQ0v5uweLpFnU3NvjyrDK9P/71B6JWYADRxnYyEFsb1jzcP4IrXWyYMZ1OwvB/R70Fp4RoGBeubwe19xTp7LIOCGQXO4szr4iFctz8WIMiSCVcdlj8qE67gjgW1HoVwTWYQLrcor7xZo3HgVUv47dz+84VhUJz3oHi95bXpnKEb1QDBxLBriUmWwGHDvuNsPqgqvGIZ8FKspSMgHrRiiqnzmIT5b6EhwZ1kO2wWw7t6pirKu8oL+KHKEBabp4VwOVfMNKZgKZj5qkzBgvV9NiueGc+mYCa5yzh4XRSEKzDCldUTBa9bmG1edhyUet6nEK7gCJcLbZpj+0vcvEnW8GXZvIBNe9gBL6eAQd3lBf3LrgRGIZgGCiZMEzNGniwvNYLCiyI1kH6OGWbJHqrfwwFfPQW3z5WijuzI108MyB1B6c9Rfo/Sn40rJUS0D6OkPCQFyxwnLVwfNgWrz10yA2cXIXhd9NlGpgJeJlwemXB9sjRA++4lXI8tF4Y8IpVWsgnX5FuR/5ol0r5IX+RLcBus9Tpc3xtq3Ulme3YM2GHD5q8aIJjozhZMhLA63N4IUxqTgvKtC6dY0MzQebRb4KzErGXRhziu66bMEmb51B8ejDKYmFdIDb1RER1ahwusISjYP+h1Ew0p2K7lARTMPHAWZ14XkjEV8M4aDOqKvFUck3DtzpeuekCcv4EV4XLBnoxti7iXplujICN7vjYWefPwtqwbelX9HDAWlDSKYMLERFzTm8Q8HpQQdONbtyBbHuPMncdl78gPNLrf2b87YFAm5axRzpXIbdsXZqqXDq0juG8BFCxIC7b3uEbBgt84sLdMwWaNDuBu5oGzOHhdAIQrWJDl5GUAWvAQ2bnSGtzKqtZDn1klDnpYKjitbwuj1gnlDEXxekukRXBee+cLY/Cyocdl2lq/trehsgEJyoaJykwEE2ZmiX3Ay8huG8zlDA/hPI6aJ0XHPfv1NMbuBLzxQcR3tdZD//GR1j+LaVdmkEh92xUzrVvmcfakIApm0yjY4AlsCjZvknXXSq5Nc98b/QNnFysFuzizjbl7GYIsZw36d5YJl7e7QzDhmrOWOtL0vQecLvBWbJnPrXrCGnX0p6ic7vqW3dXALSKjLbz6jKt7GoKjLQHv7Y1eMGHUYcLInDxG9G8UhZeROuH5iRZHc2PZveI8Tl0iRhn1M+J0iVidi0hLkd75r8QbtFp0i8jsEqVq/7bBXOGrluwhbAq26ygyx0t/fZtNwQ6vsUy7i0XBci5OCsZdfITrkUXCjVMDCZfaTusB8vkKBuHiBciEawKLcCkRrpyhcG6wMMdVRBYfMdh0vICb+/r+t3NbktmFvYHtHIqKoxdMjLraUDBh5DNem9kotCvFgLCkNycbH+P4s2bO4+oP8P5OKYqoX9ZVZlG/J1aKkfH6v1ObgeqF52XfP2pLb07WzrZumEN4q14BJ1OwJExdzqZgyYlk0RTr9pcCwmdqFOyipGDcxUe4lv1bT7jU7g4z7mNIsfYXSFfcJ8iEy8EgXPZkbJnXIMIVEB8xSiMqCa+F68WFa5Q/60U3b6xLsuGTPQ0QTHgieUPMFV7hRX8m32XqPKZizPNSFJ0Vfn8TQa0h+dq0AwvXhItfT6wQnZXGHdl4jMxq6M4alWUpfcOgItJhRsFuuJIreUufwbwoo2AXyeizahd9YoW47J2AWYrq+IPZ95En7mfAFi9g6Xpx5isUzVjjPKsx4U4886AlVl3A034rmDR0lxmBHydiDqD0vnJ473Dnj+msrIK2GS2G2bxYnWnq3BBl+3yTHvZOFxbcR2bcZzF5b+9xYmmloYDD6UL2EKydbY30klr9RjQZfeKswqpZoWc1rd4ijn+RGrWTbsi0Taat3yY+sITyIqPrtNOJrKvw8p8swRlzNVs1ap7kDMyYO2tkl/a1x8OaHBxnXueMcF3W0rDYcH+B1P9BYearZhGuFTOtsUKuQ8cks4Na5fZJvj/mr9x6ANF1dGrdgmT1DFcwwUvI6txYPbxqTL3X1CTy2vQQzuO6jxBpW5jUJPL4SMLXGn9sGsYvpCZ9xNQIgwlyya85iz/dHcubNmaYpfANy/BMNgXLPYyMe0XmNasZzJyhMih73+iNgl0EWjDu4otwuUX5ac0aDaNiw4VrxH4PSHk/GqYUGx7h0tmebyhimBcRsX1/lMGL32QRkxZUAdY4Cq8wLas/N21UCOcxewEtKo8MxKeP4WzJZlkLRwom/ZX2GSes3iIeOiaVVdBaDy2vpPsLpBWbxW7ZWoTBkK6KyOiIu4fG+G50TCcfLLKu+hPhJUYUzJYoX/ONU4TgnENqEln1hHXLfE4m0YFRsItAC3YBg5eq4dITLiVQtX0ZN28SYyjhoWNSn3HCzFWNlVI0MpOqoGgsATuirhO6OoTU3h+8+vZoLPByh6GVf/YPpplHDnwdpi2KmHy9+ijhq81e43DguxKZgmXeJ7W5V2x7j9h6rHzaTVpKS6tCTDzja/DSHxtL+J1zu+XEWsuIfgFMSuuQY0rBbhvMla1VMpjBFOzBC5iCXZBSCaaGS+VN0+5CyVts7fvCNWLmvQrhcjAI14ThsSdc3qv98HBUbXCMSIcVH+6P8r3d2pOMtoaIoIPIGDYg1ANjGBeQnEj+M9dUtpqIzTuxfpsYqRc2YrBpHwu1VDBFXic2AW6X/Ld82qWEmJnidGHCnYhaBhgmBds037ruKWMKtkSmYN4Gk17TMphzAxqKqVqwC5eCcRco4dJruFywJ+GTJdyiKYxiw5CEa9tibsVMayPFdwpPRjArKBxT+9gEL9Aw7Z5fE0MFv/e2NJrCS110rvCSngN7c7Pu8dW+sJ3HhTTSW7HicQuSwkJwO6f9CWlOAR3TMX9yUxTbjRlmKX1bSUQGU7A0mYJ1GcOmYKOyLAXrLCMHsqNg4Sdb4+DVAMLl0hOuCcNRvN7irbAJIFzrzQiXGuFq1NNyx/6Y+oz1Pt03xxogmOBDh9UaSeEFRRpSXRvua58eb8lob5hkUGFl0sLIdl16c/LVIo53RSbZNfOCJaAW7z/PNdmMktYtlNasc4l6ABtFwYJh3ftGf+7m1YINeEiIbk7VuQGvC6UwO4BwcfpAFZM3HTomDXhImPkym3DZk2TC1RgRLv2V76WI+T1OjL5OqE830rF9qH3byAovV9jglZxIXn+cg0nm0Yate7B6S2T41TeD27aA42tjgF9OHnwNtr/EBeufG9tGZVmK3tQHs/yjYF3uFZl3ZlSW5cRavYhMK6Iczy6ijDOvaKzWQx9ZxI5w5QxF2Vp2oOqvb4uZ46S9xw0jXA2pUoyILW7NMwx4uUXZJ3I65UsK+ONU/hhTA1sC3siNsk4oOZHc2s9Mai//0ha4vD1pvEVX4ozg5aGdxxSMXxKx83jzAG773zheiKrZhhe5apDZHsc2RNxiJIYUTA1mqTCqp2BWjH+R3jKdQcHUtvrr/qxMNuJ9b3EkYeY/LgwKdr6LVHfnS3c/JxWVBwrtXDIx3vxnjglbhcX0/r+Iu/IRnNJ2CrBx2DKHawLY0nzGg9KQP0rMFJVbxHUZeOBWckkLkpqMlGTYbfISrK6lNbVwnsUPP9EFb9PSKnbMxenElnlcdBmGD/dIw6ZLRil/p4Cs7vhkqbWBqG0kUnWL6NMRe/4RwefzArplC2ayVR7DM6PR7hYW09tmiQUl+t5H4biKfDVm38+WQDe9lVXQcc+JW/cx8qGye0iwagpbf1tUTh+eL27dowi8Od/9hIglD5FH7z5/PbPzN9voLTn0b6ql8qbsITj5liHhyrhX3HWUgVxuCY5m+O5VS5Mhl9YGx6jPH4/h/ciYYfL1DOwtOx3d2pNu7UnfDO6GK2VUmnyX5Z7rjSlSMl5YF+XZeF0fYksx9phiofCyxPQe26x4Z66pbFVxHqOYU9utPTnwqlLPzEeIXAK2zA+3/XfTULAPFllHXsdIpDoSfRQsWBmnishemk74Oj0FU4soYzg9M7ZmPT8v69AxKftZKe9YAAY5PbK7tGEuGZVliYhwaWDhwYqJpFmSfEbJnJMEtMSL1WYTFUSoqMbRE/R4KX3lQ2pLNLv9hcU00YYWqb5rECW4PHAry+hoEYywz2HFrm+xeot4w1Wc+glGX0GsB6mKanh4nK6kZ6rQow2+KzV060rP0A/3SKnJaNWcJNpgt/nulcmNEiXUuuU/NS5aYeIYEnjq5AM/MUF+Ct7ehLpPVi9bvRUeHglWjLwBm/axO3Oo+qxJyylfJ/42i1PvpwmYeu9JrVu+mMmjLJ07StNfpmEOA+YlvDSJDPglUb+Fupx0TRYbuKJE1tGiy9KqXpP/pI+nc7gPD0vBhNfOwe7A1q/Raay4bhoJnkY6+S7LsKvpwy+KuQd8O0gtosy4V1w+iTCb30X51USxlucsHGpcKPuZ1ilue7cORI0+i6LoETirhehOhVoP1f2QCIJwvsXsF64XZ75MkexbpipFHzkEy2ZYWrdgkIIVm8VJy2WOY1645xaVPn9cwEbStO+xYgqSAjdUq1W0JZsl2lVyrv/VkvITde0mGO5VrwetXbxk/BW8l+TdD2KoC/Mo128JvDNSeDeq/reYVGjKD9QT+FFS0O/iIvjAgBvCsS6JM7gnCPdWs78C84bEZFF5H5b6FGi4Lw6xBSTwNRgxCIunWzqmh7WV1LcMH4CXZ7HfEqnVeuisZeKyt4E05cp5qP0Cpo3FoilW+QKW0EFXYOdKa8BVLaUjr8PGv1jP05gXkz2pHvu6GYQ5vLqwWDsubCmx1FLFLW4XsalOzKuPGu4p5ja0WfHqVPZborBnVolz1lLYMXsU6dYBHVqTyy4lHdOJ9vMEnHhTw8rjJbTLGFE+XZrhpw2+ypnzaLsve1fMGBcQrtKGkvXBifXssfurt4gZ94u5h31jNeIWt7iFNHVcafZzdNSTQnCRf7f2ZOdK64KHidPlFwVLlDmE0VuisCfut2S0l5nXhBHcmGGWG67kVKj65jiFLaBF7Zp/y8TSxsFZpwtvnAdWVkFvmS48spDarD6yqg4lM5oCW+uhY+cI4+dTWwIctvhqjFvcIjNVC7ZpN7o9wB5YO2OMJW8V17+z34C1+re0HitG0Q9SZzYrbrwS3nCh136u1rvJr31MZaCigBuC6PuHc59tVMfub/06UH2qDCU7ttZilNwd+HDA4Ni4xS1u0VCwJLhrMWiSxOwvdEUX7vMV1gUP6Gfc2gTcPkuauECIbp6A19JbENiREihSqXYDIv5yD3lS6W17vIQWlSAnC5e1hK41y7nMNpZX0idWiKs/gC01YOw+RCx/1DC7sb9A6veghFrArqeRcYtb3KIxitFT6IKZYnCHSJsVM+6zZA2Uxr2gZP9TNApmT8PKrVi/W9zyNNcQgW7HZtAVI6faYUvE2Du4mXeLfdaLA35JcAYTR3I9OtGZK+l5AV6+No9+g4WdNRjUC68/ye4MqZqHxycLOWu9SyzE8StucWuAqVtJqINAwQvsahBlxi33/OtaiF1Ny6qsbchkadY90tPjLeFPX/aa28PQpvwiFTf2QusWpH8nzFxN+3elaIl2l5AWDqprYm49l4QrJWBGBuqw4CHCHO3jb+HP1o9b3OIWK1Nn3A67Vrr/BclbkGC3yBRs/ga8s0t8a3bEraWVIVJBotnWqFKibNf3xt4j2HsUmV3AFEg1dWH2xlyxwz31U2D9GtpktDIcSha3uMXtPLGBvblDa6zqgDWvOVJQcDqa6R4dWqM0qFluarKGU7PutXRsC4hYMIFTXa5BVwf4mE2n8yqvpNP/Jq77CLbUgCi7k8eIvnhjbjS0M25xi9s5sfXbxOz5VFcQGul0D17Af/dLunK9ahc9cISqcbRqF3V5tAmYh45JaSnEX3jQROD14R5p2LMSzrLKXxPx6Tyu3SUk2Y7EBGIh4oXSpSducftfM16Ap47WKmMQnlwprv5UL1RyCsDZJqpXb4ryoGdWiXNepzrC5TWtzCIBsMGRgOY2zZeOW9zidv6Y2ni2UtGsul3KnjUuRVIp2Jb5sSknOjfgVV5J73k6oNTT7O5I8RUSt7hdABZWX2weNit2/60RB0T+/wAAAP//6cMh2l8XWgcAAAAASUVORK5CYII=;base64,iVBORw0KGgoAAAANSUhEUgAAAyAAAAJYCAIAAAAVFBUnAAA420lEQVR42uzdP2wcV54vev5rSuyWx3yAe4DLhAw0gSjADEY0oMRDYCdZKXxizIn5bjh2ajgdO9yneJg+OZU2mQE0TgRcagMaIB0MAzLhAtMOKFvdEtn882C3V6ORKarOqeruU9WfT3Bxd5cmu6pbrC9/53d+Z+r8/HwMAIDiTLgFAAACFgCAgAUAIGABACBgAQAIWAAAAhYAAAIWAICABQAgYAEAIGABAAhYAAACFgCAgAUAgIAFACBgAQAIWAAACFgAAAIWAICABQCAgAUAIGABAAhYAAAIWAAAAhYAgIAFACBgAQAgYAEACFgAAAIWAAACFgCAgAUAIGABACBgAQAIWAAAAhYAAAIWAICABQAgYAEACFgAAAhYAAACFgCAgAUAgIAFACBgAQAIWAAACFgAAAIWAICABQCAgAUAIGABAAhYAAACFgAAAhYAgIAFACBgAQAgYAEACFgAAAIWAAACFgCAgAUAIGABAAhYAAAIWAAAAhYAgIAFAICABQAgYAEACFgAAAhYAAACFgCAgAUAgIAFACBgAQAIWAAAAhYAAAIWAICABQAgYAEk4vH+8eP9Y/cBKIXx8/NzdwFI2Xbr5P7TdqtzNjY21qxPrN9q3GxOuS2AgAUQGa2++vbFduvkjf/9zebUvRszYhYgYAEEaHXO/rzV2TzoXvI1K/PTq4szzbpWB0DAArhUu3u+sdXJ3m61Mj+9tlRv1MbdOkDAArggWj36+8tHu0ftbtjvpUZt/M71K3d+c1XMAgQsgH96uHv01c6L0Gj1Rsy6tzhz9/oVNxMQsIBR93j/+MHOi94mwfya9YnVxZmV+Wk3FhCwgFH0tk2C+dlmCAhYwMjZOzzd+KbTj2j1Rsxa+7C+MDvphgMCFlBlrc7Zg50Xg5zJbpoDIGABldXunn+18+Lh7tFQfvrqjaurizPeBWAwNCgAg4hWcfMXitKsTzQbFgoBAQuoimI3CYYyIgsQsIBK2Tzo/nmrM6xopfsKELCASunf/IWMFmYn1z6sv3NMQ7t73mqf2WYICFhA0rIc0txXjdr42lI9y6DRVwW25bnaH5bqCl1AgewiBAqLVgOev/BLqzeuZmm3unAKl/VEQMACEjL0TYJjY2MZq1CXj4rQEQ8IWEASHuy8GG60atYn1m81spyK83j/eGOr886X2otZhmYBAhYwBMOdv9BLQvcWZ+5ev/LOr9xunWx809k7PA3KbQ6NBgQsYHAi8krh7l6/cm9x5p1ree3u+cZWJ7ozLONuRAABC8gVrYY7f6F3hPP6rUaWbvSili9vNqfu3ZgRswABCyhYCpsEs7dbbbdO7j9tF7t8aZshIGABhRnuIc092RvP+z2Ia2V+em2pbpshIGAB8dFq6PMXsmeagb1a0xwAAQuIlHGoQV/dbE6tfVjPcpTN4M89zD4yHhCwAIY/f6HXbvWHpfryXO2dX9nqnN1/2h5W371pDsCFbIoB/imFTYLZF+BSaA5rdc7+tn+0PFezXAgIWMAFQWGIdaBXsu/US2EFs1EbX7/VyFJmAwQsYOSi1dDnLwTNmkqhzGY7ISBgARfrbbt78O3L4b6M7G1MOceyF/iCM47jAgQsYOSi1dDnL4yNja3euJpx3sHD3aOvdl6k8IIzngP9cPeoc3zm0GgYTXYRwshJYZPg2NjY8lztD0v1LO1W/RjLHiH7zIjXG9psMwQBC6i4RJJK9hOU+z2WPaNGbfze4szd61eyfPGDnRe/XHW1qggCFlDNaJVCY3jQcM6ijmrOaXmutn6rkWURc+/w9P5/tfcOT9/2BQ6NBgELqIhEikBjY2N3r1+5tziTJakMfiz7hbIPOw3aLpB9bRQQsIDkJLLnrle5Wb/VyBIpEhnHFRQH4xZeTXkAAQsoX7RKZJNg9t6jRGZG9FrE1n/byNLMnnOUvEOjQcACSiORcQZBjeEpjGV/lXgyDlYoah0z6EYBAhYwaInMXwhaX9s7PN34ppPCmmD2dcx29/z+03axbW2mOYCABSRnu3Wy8U3nkv1rg4wpGYdFpdMiFnSk4OZB9/7Tdp+KbdkHWAACFtBH6VSAsu+5S2cdM6jZfGAN+NlDKiBgAQVL5JDm0NaldIptQcM/B58IV+anVxdnTHMAAQsYkJyb1wrPAdkrQIlM5Ao6UnC4kyOyd7MBAhYQH60Smb8QupKVyFj2iJc99MkRQQVCIBFaKaE00tkkGLTlLZEDEEMHIrzz3JtBpmoffhCwgOIlcnRM6GzMdMayBx0pmM7I06Cpp4CABWSVyCHNPdnbrpPKKEHbG9Opt2nAAgELKF5S5Z+g+UzpLGUGZZSktg4E7XAEBCwgU7RKZP5Cb01wbamesd0qnaFcoYtr6SzCBq1m9uLszeaUaQ4gYAFvldQmwd4sg4ztVkmVf4Ka2ftx7k2eV559pny7e/7lk+fbrROHRkOCjGmAVKQzyKBXRPnDUj1jXSSdsexBRwr2+9ybAb9y0xxAwAL+RVJNS0HtVumMZQ8t/yTV4jY2Nra2VM9ecrukWOjQaBCwgLT2rAWtrCXVKBa64S6pkltQr1jG6Vx65EHAgtGNVunMXwgNKEmtZoaGiRSGs79+29eW6hm/+OHu0cZWJ/s3v9mcundjRswCAQtGQmq1n6DWn6RKbkFHCr4uhT2DQbnwVT97xA9yaDQIWFBx7e75xlYnnWgV9IxP6qjm0Fx44XsxxFGo2U/ILqoTP+gnAgIWlCZaJTV/IWjHWVJj2UN7xd6ZGgfc6h46iKHA4RemOYCABZXyeP94Y6uTzpG9oeWTdCZwhg7hzGhg13izOfXH29cyvvg+nTYdNDkWELAg0WiVzvyF3gN+7cN69g1r6Yxlj2ha+mrnxfzsVMYk0e8qXWjVrd/7HE1zAAELSim1TYJBBx4nNZa9J2iT4+tNS0GtWn1aMQwaxDDIyfK2GYKABaWRWuEndMB3aguahaST7Gf+FL5iGLTPcbt18uWT5wO++UF1TUDAgkFLbf5C6Bb9pMayRyyrXR4NQ1cY868Yhg7o2tjqDLFqaJoDCFiQnNT22YWu/qQ2P6J/S3tBZyzmWTEM2knQp372CEGlPkDAgv5Gq3TmL8T1L/8///ksnU78oEEGEf3goYWx0DFU/X79A/j8/L///r5/2iBgwdCktkkwugIxyMbqywU1s+dpdws60zp713/QFIl0bvvrt+WT29csFIKABcOR2okxoYtfFxpuKWUoRwoWmOdCC2ND6We/nGnvIGDBMKNVUvMXQosxl2t1zr548nzwzUBBW+2K7VgKXdG7sJU+tPAz3H72C63fahiLBQIWDEFqh/H1byp3IcWhjIKa2fs3oCvPyxhiOixEsz7xye1rxjSAgAVDiFapzV8Ibbdqdc72Dk+z12n2Dk+/ePK8r2ugEWtq/V6WDY1KD759sXpjJns0SW3GWOjpPb115I/mapq0QMCCXBLcJJin3BLagt2/ee7pvJI3hLaCZf8gpdbPHhoo293zL588326dODQaBCzIJbX98xGP/1+WTEK/Q+G92KEvIHRKwuDzX5Z7mNqWiNDOs19WNEMLkCBgASnOX4hYULukGT+0dFFU9SVoWXO4VZ+iAsQgG9oyCm3Jv2Rl06HRIGBB1lyS1HExPUHTBDKOZS/wKZvxoZ79SMF02pVCX/brhrUl83KhsxiybHgscB8rCFhQwWiV2vyF0Har0GXN0E2IcUfHhJaC8hxQ07+Au7ZUD/pPEuxnHxsbW1uqZ38jXjVdZf+sZj+dCQQsqL40Nwk26xN/WKpn75KJbvQJ7TcKWvMKHX+aYN/bEFdUC9SojX/28XvZS3HR4yQcGg0CFgx0e1rQs/DO9SvZn+j5B3SFNp5nefpGtFGnNiAqYokwwX72iFkM+TcWBC1qg4AFlYpWCc5fCG2RKfYqguo0l3fnhD5fE+wEr9JVBK1vFnUVpjkgYAlYjJw0+2NuNqfWPqxnL5ZsHnT/vNUptlgS2vn+y4JNaL9zmrsKGrXxP96+lv0q0uxnDy0i9mNxs0+HDYCABWnpRyjJL3Sve1/bwEOfiK8/lUN7lRJcn41oSkszr4cubvZ1idY0BwQsqKw0NwmGLqP01gQHsA4VGjI2D7oLs5N5Sl+JvB2hJZ8sEzEGL3QWw2CmudpmiIAFlZLgtv9XT8Gg/VYDrpT06QzgZENJ6ESMARzXGCdoFsPgW8dC7zMIWJBitEpw/kLEn/J7h6cb33SGkhFDO98vN5RzbyoQSjIKncUwxIkSpjkgYEEpDWwpLeIRGNrhNPR6TyElhzSnQ0X0KiVbEF2Ynfzs4/eyLwumMBcj6OgkELBgyB7svEhw/kLE4ySdqZuhzUnJXsgbQkcYJFuBK++FmOaAgAUlkOAhzT2hA83THF6wMj+9fqsR9J8kW+8Jna2abOtYxByEh7tHG1ud1N6OoHMLIH12c1ARae5Ki5gLlX8se/8e5POzYb8xki1che6RTLafPXR9M9mY2OqcJfg5AQGLUY9WCc5fiDjkOOXFzdAKXJrn3sStdabZzx4RE9OchhrRmw8CFvT9r940NwlGnLKS5gTUiiWS0G79ZNc3I7Y9brdOvnzyPMHsLl0hYEFCkl3pqNhTPDQmptk6FldNTLafPfQYnzSbrnpCdz6CgAV9jFZpHtIc1zed5iyJiNaxZM+9qVKjUkQiqdK1gIAF/ZJs03REgSTZDY+9bfNBw0WT3WEQMSg12e6xiFkMyTZdRexIbXfPNw+6TjOkRIxpoBySjSMR574NcSz7O4Wub6ZcIAktKKa8lBYxiyHZpquIpNjunn/+9Q97h6cOjUbAgsIku0mwF0fWPqwHrT0lu44W8QhPtkspIvW2u+dfPnme5scs4lDIZJPi2NjY+q1G0MfslzMyHBqNgAW5pFzpiZiLmOz6ZlwcSfPcm7htjyknxdBZDCnXFCNC/N7h6edf/3DhWxP65w0IWJD0/IW4FqU099ZFr6MlmxRvNqf+ePtaUBxJtqYY0UCWctNVxDiGS9LV638bODQaAQsyPfCS3VgX8ds85aQYcTZiyhMlIvYZpNzPHjGLIUscGWKOD13lfLx/fP9pu0+fZBCwGLloleb8hbi2j2THssctr6R8OQuzk5/cvhZUxki5SynicoLiyOAvJ3QcQ8TlODQaAQsu/n2a7CbBiI1LKY8tqFilJ2IdLeV+9rgTte8/bSdbJQ3tIcuZfW0zRMCCnyV7REzc38QpL6JFHCmY8rk3cQtPKfezR/SAv5pfICy+8cEI3YMCAhbVkfL8hYgsknj3WMQjJ+U6XMQxPon3s0eExZSbriIqi4WX4kxzQMBi5LQ6Z3/e6qS5yT/ilJjE63DVyyIRgxgSX+WMWEdLuekqYthV/wZ/RFRtQcCilNEq5V11cXN6kh3WFRcWEy9cxfX0JDtXIoVKz9Dj7wAWOk1zQMCishLfJBix0zv9Mk/ovK6Ux4fGteenf0UJZpGcVxQ67GpgV2SbIQIWFZTyDv+4RYTH+8cbW51kryj0SMHEu7/jrijlw/jiZjEk3nRViiuK+MMDBCxSlPL8hbg55imPZY9b5Uy8JS5uEW1jq5NscTHibKL0m64ihl0NMS+a5oCARYmlH0Qi1puSPeUt+rGdeH/Swuzk+m8boXvrUu5nj2gAT7zpKu6Dl0J9MaJDEQQshhytUp6/ELGrLv1VzohSXOIju+LepsTzYsQshsTHosYNu0qqGmeaAwIWJZD4JsHoVp6Ud9XFHcSWeF6MOIkv8X72iIOoe9W4L548T/mzt7ZUDyoDJ7vWaZshAhbpSnnkd9ykzfSbkyKOFEx/BS1iEEPi/exxbWSJb6SIW+tM/LdExNsEb6MoSoHPxek0iyJxAwtSHsse10OW/uMtokM//X72iFkMpbio0HEM6XeSNWrjy3Pa3imMChZFSnAbeUT7beJj2ePmSqS/0Bmxept+NS6iST/9pquqpquIiwIBi1HMWHHLZymPZY9b6Ex8IGpPXCtP4itoEeE+/aariHEMVY2MIGAxchmrqikkYldd+oWruBpP4v3sVY2Mcekq5dHz0hUCFjJW1t+VEadhlOLBFjqwpxQp5O71K2tL9aD/JP3IGPfATrzpKm4cg3SFgAVVyFgRG63TH9kVd7JH4ufexA3uSr9JP24WQ/oraHFROPGDfaQrBCxKbPOg+8WT54N5qoWOCkx/LHtc33f6oyXiBjG0OmdfPHmeci0kOoUk3nQVN44h/XQVd10gYJGKfg8VjNvYn/i872pfV8TMgvTXcOOuK/1CY9znMP3rkq4YAHOw6K/er7A+ZayICebpd/DE7T5L/9ybuIJcKTrJIvr0S7HcGbeClvih1NIVAhYy1mUiBkGVYu2sqp1JcWNRq5qGS5EaI45NlK5AwKLEGStuP92jv79M+ei9nohjOtKftFnhAk/cLIayvGWh4xhKsRFSukLAQsa6QHQ7SOJj2eNmoqZ/mE90aixFP3vEcdRlaU6K2IKQ/qB26QoBCxnrYhEzNkvRllThtbO45c70+9mjCzylqMlFDLuSrkDAopQZK64zOv2x7HGlgrJcWlxnUvqDM+JmMZSi6Squ3Jj+KFHpCgELGetNFS6BRBzmU5blzriBBaUYBxW3SF2Kpqu4CCJdgYBFyTJW3MJZ+kc190Qsd5alBBIxx7wsa2dxrfqlaLqKy8SlaJWTrhCwkLH+5f9U1dWlaj+kIzJxKfrkovu+SxEc44ZdlWJQu3SFgIWM9bOIzXSlGF8efaRgWfJHhYNj3CyGslQcF2YnP7l9LajBUboCAYtyZKz9w5OHu0dxPUnbrZONbzrpL1JE9OmXJThGd0aXouIYN4uhLGtncXshS9Hj2FuIl64YLmcRMnyP949DfxWWYix7nu6WUhSu4oZ9l6KfPTp/bLdOvnzyPP38EbEQX5ZB7dHDJkDAYtQ92HmR/lj26GdYKRp34lr1S3R1cU/oh7tHG1udql6ddAVBLBFSJqWYUxA9YKIs+/mrXZaLm8VQlkXPuJaysowSla4QsCBYWR7P0T1JpTj3Jno/XVn62eMWPcvSdBXd9y1dgYBFBZUofMTtgizFuTfRgxhKVNqJy45labqKG8dQordPukLAggBl2bIUHT5Kce5Nnv38pVj0jKs7lqjpKjpdlWJQu3SFgAVhz+ZSjGXPs2pWin6yUQgfEbMYSlTaidsOKV2BgEU1Pdp9WYo5BRHju8oyhTJ6gmi7e/7lk+elCMdxlbmxsbFO93zvWQnCR9zhRSUqPUpXJMuYBtKVeGtt3JyCsrR7j8IF5nw2p7/CG3eBZRnULl0hYEHVMlZcXadEGyGjV83K0lIWN4vhQsk2ud+9fmVtqS5dgYAFJchYcUcKlujcm+iWshItKsXNYrg8Waa25hs3jqEso0SlKwQsKMbnX/+QQuEn7kjBEnXrR9d1ytLPHt2TlEUia6PRb2KJ0tXN5tRnH7/nFyMCFhRQIRjuhqa42eUlOhkmOj6WqJ89ejtkdkNfBY4bx1CuiBy3KRIELEguY8UdKViiJbPo5FGifvboiBxhWGElrjWwRIPapSsELKhIxoo7UrBEvd55BjGU6xrjZjH0clLEVsrBx+vo5CFdgYAFA81YcUWdspx70xO90axExbm4AuTrn7ToytDGVmcwGTRuX0KJ5rFJVwhYUIWMFXekYLmKOnHFuXJth4zeTHfhqIK1pXroUUiDCdxx++lKNKhdukLAgtJnrLgjBcvVjTQiBY/oWQyXbKZL8L7F1VmlKxCwYHBPiFGIHdG93smO07xQ9CyGdzYkxY1g7VMEj67PffHkeVlWsaUrBCwoccaKO1KwV+3Y2OqUKHZEDGIYZC9RIQZQ1InrXStwpEV0zivRoHbpCgELyp2x4k7cK9G5Nz1xLUTl6mePrs9FxI7ozvf8TWzRw67KVYaUrhCwoKwZa4jPyAE/qOIus9U5+/Qv31f+MqPLkNEde3lia/TIiRINapeuELCgrBkrz6OxLOfe9OScXV6W5v24WQyFrH7Gte7FTfmPjh3SFQhYEJmx/vd/PsuYA6JbkUp07k2eQQy/zJSJ90THrX6m0BEVNMQhOkSW7nP7p9//SrpCwIJUZGmjydOjU6JWpDwP47dlkTR39Ud3I/UjNUZ3vm9sdd45Sz1u2FW5BrXneUNBwIKhZay4ZvZyjQ/t66F7qT2qo2cx9G/vZ3Qf2OVLsXHjGKQrELCgvxkrerGsXOfe5MkcGQ3rGOML43JEuWgAIycatfG1pXpEHnrbkmVcuipwAVS6AgELLshY0VORSle4imvbjwidw93qH12iG2TmiO58f32DanTmKNegdukKAQtKlrEWZifjmtnLde5NnpWp6Ns7rI606CsdfKt+dN201Tn78aW2z6QrELAgOa3OWUS0Kte5Nz3Rgxge7Lx4tHsU/RQf/ApUdOf+EAfuR7877e55xJWWa1C7dIWABSOhXOfe5DnPuFcjeVXkKEUPddwshhTO+YkeDSpdgYAF5Va6c2+iN0W+LUdGF1oGMMEyespUOvXI6M737Eq3ri1dIWBBxZXr3JucXd6XBI7oSUt9bXuPHuqd4Oiy6M73FGKudAUCFpT4Gdy/h3SWkROppZnoWQzJlnOKGq8vXYGABYkq1/khOQcxZL/Y6L6uYtfj8qyppf/O5jwg8nVD7zCTrkDAgp9tt042vumUq3AV3Sj9Rj97xkdgXM9TUc/76FkMJdoEWkjne7kGtUtXCFhQZaUrXOXsQI/eFxm9tTDnilX0GmjpFnxzHmpUunSV50MFZTTlFjBSmo0y/fWcZ8EuyxHClz+/9w9PIlqgVuanF96fjJsXED2LoXR76H76KE4sRpUJSzdKVLpiNKlgMXLK0hQcPYihwKnl0bM9Q5cm86xLlrEqGV2ok65AwAIZK1JSaSN6a2H2jqgB/IikRE/EiOiok65AwAIZayxPbaN/41KjVyqztL1Hp40yTtnI01FXukHt0hUCloCFjJWEPLMJ+t2ElKeo9rb7nPL1ppY2pCsQsEDGinGzObV+qxF3QHXOfvah5IM8VbGHu0cbW51yfdJyJtRynZIpXYGABUlkrDzLRkX1s2cUPV399e7sPC3eA0uTxaar6PlPpRvULl2BgAXDf4ZFD9Uc4u656K2FvXjUrE/EpcmStnjnmSkqXYGABTJWsOhBDP3rZ88eGuL2/UXr65HSad6oMo4Sla5AwIJhZqw8h/4m0t+dp4kqVBmbrvJskJSuQMACGStYZTqQ8jRul/SSB5CuynvJ0hUIWDCcykGe4+eSHfvUv8dqSZuu8tyTkg5qz1muAwELZKx40YMY0l8ji95aeImSNl1JV4CABYPLWNHHGLe7518+eT7Efvbsj9i4rYVlDJRvk2ccQ0kH00tXIGDBcDJWnkEM5ZpXXsjWwvJ2IOXp+i/poHbpCgQsGE7GyjOW86udF5ef4lexkFHqNbI84VK6gkqacgvgbXoPj7iMlWcQQ3lXixrT443pyApWeXPGzebUH29fi0tXJT0GR7oCAQuGkLHyNCSVtP0o51WXdGR5zpwxmlcNAhYQnLHyDGIoSz/72+5S9LCGkg7VzLl9stRJWroCAQsGl7HyLBWVq5/9dXn6rsrbdDWymVK6AgELBpexGrXxe4sz0YMYytjPnj9TlrfpKk+dUroCAQvIlLHyDGIobz97zgWy8rYf5Rl21e6e33/a3jzoSlcgYAGXZazVG1dXF2fivtvD3aOvdl4o4ZRInjBd6vVQ6QoELOh7xtp7drp3eJpnEEOpKxkjGzLyDLsq+4VLVxDKoFGIeVg+3j9emZ+Oe9aW95S9nLMYytt0NTY2tjxXW7/ViL7wL548b3XORi1WgoAFDMjGVqek/ex5TlQsddNVzgWyUsdK6QqiWSKEASl1P3uezu5SN13ljJXSFQhYQB+Vt5895yyGUk9PzTnsqtRFO+kKBCxIWqn72XPOYih171GjNv7H29fiNjFIV4CABX1U6n72Rm18bamep35T0mOM8y+JPth58eDbl9IVCFhA8Urdz55nFkMFrv2T29ea9Ym4/7zUDWfSFQhYkK5S97PnHElQ9qarnAlDugIELOiLUi+N5d80V96mq5zjGEY8WQICFvRRu3v+aPdleRuPcrZ1lzpZ5kxX5R3ULl1BPxg0CsVnrDI+a3M+YkvddJVzHIN0BQhYIGNdIM8shrIvjeVMV6UeJdorW/7Hv78vXYGABeVQluduzlkMZW+6yjmOoQLpKs/lAwIWyFgXaNYnPrl9Lfr5Wvamq5yXX+ohZ9IVCFggY/VFnlkMZZ+lmb/xqNSD2qUrELBAxuqL1RtXVxdn4v7bsh/+k/N0RekKELBAxrrg4ZpnFkPZZ6jmHMdQgf2S0hUIWCBjFSznITCbB937T9vl7TrKuV+y7IPapSsQsEDGKl7Oyk3Zm65yjmOQrgABC2SsN5+seWYxVKDpqlEbX7/VWJ6rRd+BUo8Sla5AwAIZq2A5hxFUoOkqZ7aQrgABC2Ssf5FzFkMFmq4WZifXf9uIzhatztkXT55LV4CABTLWz/LMYqhG01XOYVdlH9QuXYGABTJWwY/VnC1HZW+6yl+9q0C6Ghsb+9O//Uq6AgELRkuf5lXmnMVQgUWx/FsmK7A2mn/XJJDHlFsAQwwBvc3/xX7PtaV6dNmm7Ofr9awt1e9ev5Ja8JWuQMACSpmxcj5TH+4ebWx1RjxYSFeAgAUy1s9yzmJod883tjqlnqKZ/xSgCowSla5AwAIKy1g5jy6uRtNV/u1y0hUgYIGM9bOcsxiq0XSVcxxDNQp40hUIWEABGSvnLIbKNF3lT1dlH9QuXYGABRSTsXIOKK9MzSbnOAbpChCwQMb659fkmcVQjaar/OmqAscsSlcgYAHFZKycQ56q0XSVP1VUY1C7dAUCFpA3Y+XfKFeNpqtGbXxtqS5dSVcgYAExGavXKdX7H3POYqjMGIL8KfPx/vHGVke6AgQsGFF3r1/ZPzx5vH989/qVtaV69PepTCt3znmqlRnU3svf0hWkzGHPkLq9w9M8kaIyy2E5xzFUZoU0f3c/IGABuVSmYGOFVLqCcrFECJUlUrgVgIAFFKYyTVf5zwJqd8/vP21vHnSlK0DAAuJVpukq/0a5KgVN6QoELGBoKtN0lf+kRekKELCAAlSm0yj/sKu9w9Mvnjxvdc6kK0DAAiJVqVqT8xzrii2SSlcgYAHDUaU8kX/YlXQFCFhAXpU5+KWXJ9aW6nnSVWVa0KQrELCAYdppdVVrpCtAwAKKtH6rsffstOzdV2tL9bvXr+T5DpU5Bqe3Tprn6EkgBY7KgdIre4d7zmFXVdo+WUgXGiBgASOdsRq18T/evnazOSVdSVcgYAEyVjHpKuewq3b3/Msnz7dbJ9IVIGABMlYBYaJKo7+kK6ieCbcAKiN/TUi6kq6AQqhgQdUkHj7yDyCo0ihR6QqqSgULqiblOpZ0JV3BiFDBgmpKsI6VfxzDduvkyyfPpStAwAJkrLFGbXxtqZ4zXVVpULt0BQIWIGPlTVf5lyylK0DAAmSsnzXrE5/cvpYzXT3YefHg25fSFSBgAWllrE//8n2rc1bGJFGlQe29et6ffv+rZt0GI6g4/8ih+hq18U9uXxtwyeRmc0q6+uUb8dnH70lXMApUsGBUDHLAQf5xDBUbJVqiMbCAgAWkmLFWb1xdXZyRrqQrELAAGasY+YddtTpnXzx5Ll0BAhYgY/0YI9ZvNZbnainnP+kKELCA0mSsQmKEdAUIWICM9bOF2cn13zZyxojNg+79p23pChCwABmrmGFXFRvULl0BAhbIWPEZa2V+em2pLl1JV4CABRSTsfIPuxobG9vY6jzcPZKuAAELkLHG1pbqd69fyflzKzaoXboCXnFiAxDcR7V+q5EzXbW759VLV2NjY3/MfbI1UA0qWMDPNg+6Xzx5fvnXFFKhqd6g9le5M+eQVaAyVLCAny3P1S7vqZKupCsgoym3AHilFxEu3NNXyDiGvcPT+//Vlq4AAQuQsQpLVxUb1C5dAQIWEJmxChnHIF0BAhYgY/2cse5ev7K2VM/53R7vH29sdaQrYHTYRQi8Vatz1qxP5E9XFRvULl0BAhYwTNIVMJosEQL9UslRotIVkIU5WIB0JV0BBVPBAgrWOwZn86ArXQECFkAx6aqSg9p751tLV0BGlggB6erdVuanc55vDYwUFSygGHuHp188ed7qnFUyXeUftQoIWADB6aqSg9qlKyCOJUJAupKugIKpYAG5VHWUqHQF5KGCBcTbbp1IVwACFlCkm82pSk4ukK4AAQsYpurN3pSuAAELkLGkK0DAAmQs6QoQsABGIWNJV4CABchY0hUgYAGjYW2pvjA7Wa7XvDA7ubZU994BAhaQqEZt/LOP3ytRxlqYnfzs4/catXHvHSBgATKWdAUIWICMJV0BAhZAhTOWdAUIWICMJV0BAhZAqhlLugIELEDGkq4AAQsg1YwlXQECFiBjSVeAgAWQasaSrgABC5CxpCtAwAIIyVif3L42sLjTqI2v/7YhXQECFlBxzfrEYEpKpTsYERCwAOINYNlOugIELEDGkq4AAQsg1YwlXQECFiBjFZmxpCtAwAIoMmNJV4CABVBkxpKuAAELoMiMJV0BAhZAkRlLugIELIAiM5Z0BQhYAEVmLOkKELAAsmas9VuNLF+5fqshXQECFkAmy3O1d2as9VuN5bmaewUIWABZrcxPX5Kx1m81Vuan3SVAwAIoJmNJV4CABVBkxpKuAAELoMiMJV0BpTDlFgClyFhv/H8AUjZ+fn7uLgAAFMgSIQCAgAUAIGABAAhYAAAIWAAAAhYAgIAFAICABQAgYAEACFgAAAhYAAACFgCAgAUAIGABACBgAQAIWAAAAhYAAAIWAICABQAgYAEAIGABAAhYAAACFgAAAhYAgIAFACBgAQAIWAAAFGLKLWCIHu8f/23/qPBvu/jBjx/s+vTEwvuTv25MNOv+kABAwGJktNqn262Twr/tG9+zURtfbE4tNmsfzdWELQAGYPz8/NxdYFge7Lx48O3LQf7EhdnJO9evLs/VGrVx9x+APlHBYrTsHZ7ef9pu1MbvXL9y5zdXxSxI5B/mxjedgL+U3p9cW6q7bwhYkJZ29/zBty8f7R7dW5y5e/2KGwJD/yfZj24BGCL9KIz07/SNrc7nX//Q6py5GwAIWFCY7dbJp3/5fu/w1K0AQMCCwrS755/+9fvH+8duBQACFhTp/tO2jAWAgAUF29jqWCsEQMCCIrW75188ed7uGg4HgIAFxWl1zu4/bbsPAAhYUKTNg66RPAAIWFCwoKHSACBgwbvtHZ5uHnTdBwDiOCqHMrnZnPrs4/cu+YJW5+wf7bO9Z6c7rW7OhPRo9+XyXM09B0DAYtQ16xPN+sTN5tTd61fa3fNHf3/5aPcoblfgduuk1Tlr1lV5ARCw4H80auOrizN3fnP1yyfP45rW/89Bt9ijoPcOT3+Z9m42S/bPsNU52zs83Tv8+ZY2G5Mr89P5v+1262Tv2Wnn+OzH//enu9SLy83G5ML7kwuzkz7S/dPunu8dnu60uj9+Sv/n/o+NjS1+MNV7i3t/t7hRIGDBP2PWZx+/Fzel/enBcXTA+jGCPDvdP/wxNPyjffbO86Sb9YlfNyYWP5habNaKfZK1OmeP946yf/3bAlO7e/54//jR31++cS03m1PRAavdPd886G4eHL9zPbdZn/hornbnN1cvrCkWdY15vmfEG/d4/7jVDhhsu7JwpdiSaqtz9ujvL7e/O3nbfN03/jJZnqstNmsr89ON2nixn8nQA9f/0T57sPOi8HcEBCwIs7ZU33t2GjqlPbTu1YsLvfav0HXJVufHEPbjT/z2Ze9JtjJ/pZAmsB8fRT99z4wuDEwPd4++2nlR4AjW0AXcVufs4e7Rw92jlfnp1cWZN3JGIdeY876thhcj/7Z/FPQZW2zWigpYmwfdR7svQz/hP6Xh7sZW58J3oX+fyQs/D+/8DqslLA8jYEHJNGrj679tfPrX70P/w+3WSZbf0b0yTIFHGfaeZM36xOriTCELcHmS0P2n7WL3VG4edO8/bcfFtcf7x5sH3XuLM8Wu3o6O7dbJV9++yDnp7fH+j5/2lfnptaV6zmoWCFhQbguzk8tztdCgsPfs9JKA9bZVs6L0xso/2HmxfqsxlL/F293zz7/+ocDzGdvd842tTs4k2vsmO63u+q2Gp3vQfftq58XD3aOivmEv7K7fathvC79khxQjZGU+uObROX5rcto86P7v/3y2sdXpU7p6PWZ9/vUP7+w46YcvnzwvNl19/vUPRdX5Ng+6n3/9g4Mjgz5FBaarV+/pF0+eb2wZzAsCFiMs4u/svWdvjRfN+sQgn+4Pvn054EMSN7Y6BR4ZVHgxrLeTQMbKeKM+/cv3xd781z3cPXKCJwhYjLTQ3f6dtz+8F2YnBzwl6/H+8cAeY9utkwKrHf1IV6+iw5dPnvtgDz2GDvLDCQIWJKfYlp2PBt568nj/uPBVngsVexrjxlanf+WT7daJsyOHm65efTiHspANAhYMX29wYlF+Nz+EjWx9DSuvnpQF/ojNg26B+yvfFiN8tn+p1yA14IXsApeVQcCCEbUwO5wJ4/0u2BRYh+hNefBRGYovnzzv9w6MX4oewAECFpRYp+hf/UMpYm23TvpXE9o7PC3wqbyx1fG4HYqHu0dDKSa1OmdfWSgEAYtRc8muwDgfDWkC0KPdl336zgXmoVbnrN+LgySYch7uHg2+cgYCFgzTP9oF/95v1ieGskr403HLqTceaXke4p2PC8qN2vjyXG31xtXVG1dX5qejP9veejDJndH6sz70D+ssTfF3rl99Z5tRozb+xrMq//LN3/aPFmbryd7t3pj7PN9hYXZy+X/VFman6rXxTvd87/Bk87+7+tmzfM4j7vzbzmXaOzzd+CZ4Itrj/eM8hxWCgAVl8sYB/lnUp9/9hLhwfmmjNr7YnFps1hben3zbKTd7h6e9Ewzj1lP+z0F3bSnhu50jXd1sTt27MfPGfVueq60uzhRylF61RVSPLjlVcGF28rOP33u4exQ6rr13xNPb3t//7//+v974e+Pzr38I+oR89vF73msELBi+uILKwvvvXiLpraq8OuVwZX56eW46y9T4nzYhzqwuzjzYefHg25cRhYq9w9OhLFBm8bf9yHldqzeuri7OXPJkvdmMed6PiIjy1cr89NuS0Cu9o7WD7nmxB4SDgAWJijuSOeMRy8tz03uHp3d+c3Vlfjpilunq4szy3HTEQMi9Z0MLWM36xK8bE2/LoL3wF/Ft1281frlKdeHzvlEbNwDil0LLtM36xNpSpoXmu9ev7LS62WNTu3u+edB1DjQCFlTZduskokSUPbuszE9niQWX/6z1W40vAk992T88Gcv3c0Mfxh/N1W7NTb8zd8Yt4QXdxpX56f3Dk8HMtS9TwAosX63famT/k+APS/XNg2fZv/nmwbGAhYAFlRV9XN3y/xros2F5rvb6UmOmS3t2OrBodWEH9NvstLoRPyJjKeWVtaX69ncn2t5f/6gHlWl/Wm+dCnqPVuans2c4q4SMMls8qLiHu0ef/vX7uC3rKwuDHiK6emMm6OsHM8Nzea72p9//KqhEF1HBWl2ciVhdXfuw7kP+WqAJK1/duX419EcE/Sft7rn4y8hSwaKyekfPRg88vNmcGvwm84XZyWZ9IvtrHsDTK0sH9C+F3vZeaSTubbrZnLKpsGfnu4D70Nuc0e+P6PZ3J8nuwwABC/75B/Hlj9LetKS9Z6f51yaGcgZOLzGkM/08Ll1FxJ08HWy/m78iYEXc+cVm5O//j+Zq2Vvf9g9PxsaueGsQsCBpe4enQcNyokUXVAr50Ync7YimqJ6IqmGe1Vht1K/+dQR9/WIz8r7Nz06NjR3178MAAhZU1h+W8nb29OYU7B2evG18fG9G/GKztjA7GdF7NABB+8v+5drbp6FJLk+sbNTGrRJGRJksM97y/w3gfUHAAn7W280X999ut07+tn+03Tp559Pu5wfPT8MjFmYnb34w9bv5K+l0q4TuL8v5s3J+h8UPBKyxvcOTwdz20P+w3T1P808IELBgcBq18Yiuo5w99b2Tmx/uHjXrE43pJB5FeVrQglqtC1kVXZj1qyy4gjWw85j3Dk8HFtZBwIJE/fH2tdC/tvcOT+//V7uQDX0/rScmkTIH2YKWPx7VFUgiAlb46F1AwIIY67caoX9qP94/rt6BLYuDrTfkj0cGAaSsM5BpbZAag0bhn+kqtGyzsdWp5HF40fvLhkWLT8pCm8OgGlSw4MfH89pSPTRdPd4/rupBeNH7ywAQsGDs51OWf9sIXWPabp1Usnb16p74YAAIWBDp7vUr96KOwKtwurLiBiBgQaSbzan1W424AQGP948rPJ9augIQsCDYyvz0netX86yC5Rkg1KxP/Lox0Ztd3psX9Y/2WVJxrYzrgwM49BpAwIIL/DSffXp5rpazQrN50I3IQ43a+J3rV1YWrlxYM2t3z3daJ5sHx5sH3fbo7Wnfe5Z3EGXbIABAwILB6NWKFj+YKva8v82D44hsd/m5fo3a+KvzeR7svCj7BMjQhdfv2nnrTzutrg98sucF1afNA0LAgrQtzE6uffjuY5h7a3B9eg2hz7Dludont68FPCabtbERC1jb3+WNBXvPLBEGi+5BjPhn624jYEHSGrXx4R5q1u6eB60PRp9sWGqhFYu9w9Oc5wHvtIyyDI7mQ//XBNWmcgthUSDo61fmp0dwU17EnNLNg/g1vkQa13bC63DFvuxfNyYC79uxf9EgYEESQk9V+938lRG8S6FP+rGxsb/tH+UIWEkEhYi0VOzmx97W1MGEWkDAgiKFnqo2mt0nzfpEaN1uu3US16Dd6pw93j9O47NxGpSx+tGQHrTk1+6eJ3LrQMACyGQxvLnnq29jpov9eauTzlUH1YSe9qHwFnpKd56JboCABWVSjYkDoU/6XkUn9PDszYNuUutc2fNKn6pHvUkf2bU6Z/kz1v2n7WqfHAUCFiQnoi9n87+rELBufhCzPe2rnRfZ25L2Dk9Te663OmcZM+L9p+1+NOb3BqqFhcJvX0a3grW75188ef54//jx/vGAi2Fm9yNgwUgLHR+w3TqpxpNjYXYyYsZSu3v++dc/ZLkDe4enn3/9Q183D8b1z21sdd7ZXLWx1elf4W0lfF9Fxnt+4Vvw6kIefPtykB1d7e65Jn0ELKiO0JWvxyGb49rd8yottXw0V4t7cH761+8vL4c83D3qd7rKc+j151//8GDnxYUvr9U5++LJ89CV0CDLc7XQaNvLtUF55cHOi0//+v0bsWxjqzPIPw/+vNV521C67dbJ/aftbdPRGCpT5qCPek1CWVZteg+5pE59zunOb65GJ4leOeTOb67e/GDqVSVp7/B0+7uTR39/ObC7dLMZefjMg29fPto9WmxOvT4SbPO/u4PJH6uLM6FJvbfYd7M5de/GzCVbEXt1owc7Ly58C3qf4T/9/leDGRDf6px9+pfvV+anF5u1+k9peKfVbXXOtlsnvZc3mkNSELCglCImX99/2l6/1bg8Y/X+4K5SuuoNa4gOKL3H58awdwjmCQq9LDKUZayV+em3ZaDL/TQs44dmfeKjudqr1NKz0+ruPTt95+X0gtpnH78XWv+Lmynf7p4/3D3qa0UQBCwYkIXZyaA6RO+RszI//bv5K288RXrP4L/tH1V1LePejZnt1g/lff2LzVpJJ0Wt32p8/vUP0dE2T2rZOzz98qeM5XcFAhYQ4HfzV/YOgysrvZ1Wr/+l/o/2WcVKVheWJfIUsYZuOaqNLJE7vzxXG1YbeK8iG3oKZ+ifLpA4Te4Q5qN8D93eyPJXbSKVt/ZhvbwvPmLqQTrWbzUG0wt1+V8U2Q3x1YKABcPXay1yHzJamJ1cvXG1vK//zvWr5U2Hn9y+NsSzxkPbCiOG04KABZVy78aMm5Dd6uJMv89k7F/kvdmc6t+L73fNZmF2cm1paBXElfnpoAv8aE7AQsCC0XazOXX3uh3gAfpaSlmeq/U18vZplXNtqf7rxsQAUk5oL1Qh7l6/Evpzm/WJZRkLAQtG3L3FmX6UHxZmJysZ3Zr1iYit+xnvWL8DRD/y9Mr89MDe6MFnrPVbjbjKWXkXZEHAgmL0o8FlYXbys4/fqw+vaaavelfXjzs2gDaje4Wucg4+8azMT//p3341gBvVqI1/9vF7K/PT6WRZELBgpBPDwLLC0O9YUUllkHeslxsKeeXDWrNbmJ38j39/v69rcDebU//x7+/n7Ie71/+OPRCwoASJ4U+//1X+58HK/HTl09XrqSh/lWLwd6yXsXIGlIjOpGIv4ZPb1z65fa3w1e1mfWL9VqOQd6TALAvDZbc55H20/OnffvVg58Wj3aOI44eb9Yk/LNVHqre3URtfW6rfmpv+6tsXETNIh3jHegHl4e7RV285y/mdESSFAR/Lc7Xlufcf7x/HHafzy3ty5/qVO7+5WmDYbdTGe/+mHnz7Mu47vPNQRRCwoBxWF2fu/Obqo7+/fLx/nPGhtTA7eef61ehulbL7acj7e9utk0e7LzMOHG/WJ1YXZ4Z+x+5ev7IyP539vU7kZb9hZX56ZX5686D7eP8obuD7T0Ftun/X9eNNW7jSu88Z42xvMOyd61cVwEjB+Pn5ubsABdo7PN08ON57dtrqnL1+9EejNr4wO9msT8zPTn00VzO3+pV293ynddI7TviNE4R6d2zh/cnluelLnprbrZOgo/duNqcKOSyv917vfHfS7p6//l436xO/bkwsfjB1+ctOx+ZBd+/wZOe7k73D07elmd4HeOH9ycVmbbE5Ncj12b3D0+3vTvYPfz7/oPch6b2eHz8k709+0Ji8+cGUXIWABVCkYQWsqmp1zv7RPnsjWrktEMQSIQD/olmfUGGFnPwTAgAQsAAABCwAAAELAAABCwBAwAIAELAAABCwAAAELAAAAQsAAAELAEDAAgAQsAAARtqUWwCU3a8bE6s3rmb/+mZj0k0D+mr8/PzcXQAAKJAlQgAAAQsAQMACABCwAAAQsAAABCwAAAELAAABCwBAwAIAELAAABCwAAAELAAAAQsAQMACAEDAAgAQsAAABCwAAAQsAAABCwBAwAIAQMACABCwAAAELAAABCwAAAELAEDAAgAQsAAAELAAAAQsAAABCwAAAQsAQMACABCwAAAQsAAABCwAAAELAAABCwBAwAIAELAAAAQsAAAELAAAAQsAQMACAEDAAgAQsAAABCwAAAQsAAABCwBAwAIAQMACABCwAAAELAAAAQsAAAELAEDAAgAQsAAAELAAAAQsAAABCwAAAQsAQMACABCwAAAELAAABCwAAAELAEDAAgBAwAIAELAAAAQsAAAELAAAAQsAQMACAEDAAgAQsAAABCwAAAELAAABCwBAwAIAGAX/fwAAAP//BcsttzqOSL8AAAAASUVORK5CYII=;sketch=1;rounded=1;" parent="1" vertex="1">
          <mxGeometry x="51.17" y="183" width="96.96" height="30" as="geometry" />
        </mxCell>
        <mxCell id="jqk6BCaP8Qqh_6VqfDuk-7" value="" style="shape=image;imageAspect=0;aspect=fixed;verticalLabelPosition=bottom;verticalAlign=top;image=data:image/png,iVBORw0KGgoAAAANSUhEUgAAAyAAAAJYCAIAAAAVFBUnAAA420lEQVR42uzdP2wcV54vev5rSuyWx3yAe4DLhAw0gSjADEY0oMRDYCdZKXxizIn5bjh2ajgdO9yneJg+OZU2mQE0TgRcagMaIB0MAzLhAtMOKFvdEtn882C3V6ORKarOqeruU9WfT3Bxd5cmu6pbrC9/53d+Z+r8/HwMAIDiTLgFAAACFgCAgAUAIGABACBgAQAIWAAAAhYAAAIWAICABQAgYAEAIGABAAhYAAACFgCAgAUAgIAFACBgAQAIWAAACFgAAAIWAICABQCAgAUAIGABAAhYAAAIWAAAAhYAgIAFACBgAQAgYAEACFgAAAIWAAACFgCAgAUAIGABACBgAQAIWAAAAhYAAAIWAICABQAgYAEACFgAAAhYAAACFgCAgAUAgIAFACBgAQAIWAAACFgAAAIWAICABQCAgAUAIGABAAhYAAACFgAAAhYAgIAFACBgAQAgYAEACFgAAAIWAAACFgCAgAUAIGABAAhYAAAIWAAAAhYAgIAFAICABQAgYAEACFgAAAhYAAACFgCAgAUAgIAFACBgAQAIWAAAAhYAAAIWAICABQAgYAEk4vH+8eP9Y/cBKIXx8/NzdwFI2Xbr5P7TdqtzNjY21qxPrN9q3GxOuS2AgAUQGa2++vbFduvkjf/9zebUvRszYhYgYAEEaHXO/rzV2TzoXvI1K/PTq4szzbpWB0DAArhUu3u+sdXJ3m61Mj+9tlRv1MbdOkDAArggWj36+8tHu0ftbtjvpUZt/M71K3d+c1XMAgQsgH96uHv01c6L0Gj1Rsy6tzhz9/oVNxMQsIBR93j/+MHOi94mwfya9YnVxZmV+Wk3FhCwgFH0tk2C+dlmCAhYwMjZOzzd+KbTj2j1Rsxa+7C+MDvphgMCFlBlrc7Zg50Xg5zJbpoDIGABldXunn+18+Lh7tFQfvrqjaurizPeBWAwNCgAg4hWcfMXitKsTzQbFgoBAQuoimI3CYYyIgsQsIBK2Tzo/nmrM6xopfsKELCASunf/IWMFmYn1z6sv3NMQ7t73mqf2WYICFhA0rIc0txXjdr42lI9y6DRVwW25bnaH5bqCl1AgewiBAqLVgOev/BLqzeuZmm3unAKl/VEQMACEjL0TYJjY2MZq1CXj4rQEQ8IWEASHuy8GG60atYn1m81spyK83j/eGOr886X2otZhmYBAhYwBMOdv9BLQvcWZ+5ev/LOr9xunWx809k7PA3KbQ6NBgQsYHAi8krh7l6/cm9x5p1ree3u+cZWJ7ozLONuRAABC8gVrYY7f6F3hPP6rUaWbvSili9vNqfu3ZgRswABCyhYCpsEs7dbbbdO7j9tF7t8aZshIGABhRnuIc092RvP+z2Ia2V+em2pbpshIGAB8dFq6PMXsmeagb1a0xwAAQuIlHGoQV/dbE6tfVjPcpTN4M89zD4yHhCwAIY/f6HXbvWHpfryXO2dX9nqnN1/2h5W371pDsCFbIoB/imFTYLZF+BSaA5rdc7+tn+0PFezXAgIWMAFQWGIdaBXsu/US2EFs1EbX7/VyFJmAwQsYOSi1dDnLwTNmkqhzGY7ISBgARfrbbt78O3L4b6M7G1MOceyF/iCM47jAgQsYOSi1dDnL4yNja3euJpx3sHD3aOvdl6k8IIzngP9cPeoc3zm0GgYTXYRwshJYZPg2NjY8lztD0v1LO1W/RjLHiH7zIjXG9psMwQBC6i4RJJK9hOU+z2WPaNGbfze4szd61eyfPGDnRe/XHW1qggCFlDNaJVCY3jQcM6ijmrOaXmutn6rkWURc+/w9P5/tfcOT9/2BQ6NBgELqIhEikBjY2N3r1+5tziTJakMfiz7hbIPOw3aLpB9bRQQsIDkJLLnrle5Wb/VyBIpEhnHFRQH4xZeTXkAAQsoX7RKZJNg9t6jRGZG9FrE1n/byNLMnnOUvEOjQcACSiORcQZBjeEpjGV/lXgyDlYoah0z6EYBAhYwaInMXwhaX9s7PN34ppPCmmD2dcx29/z+03axbW2mOYCABSRnu3Wy8U3nkv1rg4wpGYdFpdMiFnSk4OZB9/7Tdp+KbdkHWAACFtBH6VSAsu+5S2cdM6jZfGAN+NlDKiBgAQVL5JDm0NaldIptQcM/B58IV+anVxdnTHMAAQsYkJyb1wrPAdkrQIlM5Ao6UnC4kyOyd7MBAhYQH60Smb8QupKVyFj2iJc99MkRQQVCIBFaKaE00tkkGLTlLZEDEEMHIrzz3JtBpmoffhCwgOIlcnRM6GzMdMayBx0pmM7I06Cpp4CABWSVyCHNPdnbrpPKKEHbG9Opt2nAAgELKF5S5Z+g+UzpLGUGZZSktg4E7XAEBCwgU7RKZP5Cb01wbamesd0qnaFcoYtr6SzCBq1m9uLszeaUaQ4gYAFvldQmwd4sg4ztVkmVf4Ka2ftx7k2eV559pny7e/7lk+fbrROHRkOCjGmAVKQzyKBXRPnDUj1jXSSdsexBRwr2+9ybAb9y0xxAwAL+RVJNS0HtVumMZQ8t/yTV4jY2Nra2VM9ecrukWOjQaBCwgLT2rAWtrCXVKBa64S6pkltQr1jG6Vx65EHAgtGNVunMXwgNKEmtZoaGiRSGs79+29eW6hm/+OHu0cZWJ/s3v9mcundjRswCAQtGQmq1n6DWn6RKbkFHCr4uhT2DQbnwVT97xA9yaDQIWFBx7e75xlYnnWgV9IxP6qjm0Fx44XsxxFGo2U/ILqoTP+gnAgIWlCZaJTV/IWjHWVJj2UN7xd6ZGgfc6h46iKHA4RemOYCABZXyeP94Y6uTzpG9oeWTdCZwhg7hzGhg13izOfXH29cyvvg+nTYdNDkWELAg0WiVzvyF3gN+7cN69g1r6Yxlj2ha+mrnxfzsVMYk0e8qXWjVrd/7HE1zAAELSim1TYJBBx4nNZa9J2iT4+tNS0GtWn1aMQwaxDDIyfK2GYKABaWRWuEndMB3aguahaST7Gf+FL5iGLTPcbt18uWT5wO++UF1TUDAgkFLbf5C6Bb9pMayRyyrXR4NQ1cY868Yhg7o2tjqDLFqaJoDCFiQnNT22YWu/qQ2P6J/S3tBZyzmWTEM2knQp372CEGlPkDAgv5Gq3TmL8T1L/8///ksnU78oEEGEf3goYWx0DFU/X79A/j8/L///r5/2iBgwdCktkkwugIxyMbqywU1s+dpdws60zp713/QFIl0bvvrt+WT29csFIKABcOR2okxoYtfFxpuKWUoRwoWmOdCC2ND6We/nGnvIGDBMKNVUvMXQosxl2t1zr548nzwzUBBW+2K7VgKXdG7sJU+tPAz3H72C63fahiLBQIWDEFqh/H1byp3IcWhjIKa2fs3oCvPyxhiOixEsz7xye1rxjSAgAVDiFapzV8Ibbdqdc72Dk+z12n2Dk+/ePK8r2ugEWtq/V6WDY1KD759sXpjJns0SW3GWOjpPb115I/mapq0QMCCXBLcJJin3BLagt2/ee7pvJI3hLaCZf8gpdbPHhoo293zL588326dODQaBCzIJbX98xGP/1+WTEK/Q+G92KEvIHRKwuDzX5Z7mNqWiNDOs19WNEMLkCBgASnOX4hYULukGT+0dFFU9SVoWXO4VZ+iAsQgG9oyCm3Jv2Rl06HRIGBB1lyS1HExPUHTBDKOZS/wKZvxoZ79SMF02pVCX/brhrUl83KhsxiybHgscB8rCFhQwWiV2vyF0Har0GXN0E2IcUfHhJaC8hxQ07+Au7ZUD/pPEuxnHxsbW1uqZ38jXjVdZf+sZj+dCQQsqL40Nwk26xN/WKpn75KJbvQJ7TcKWvMKHX+aYN/bEFdUC9SojX/28XvZS3HR4yQcGg0CFgx0e1rQs/DO9SvZn+j5B3SFNp5nefpGtFGnNiAqYokwwX72iFkM+TcWBC1qg4AFlYpWCc5fCG2RKfYqguo0l3fnhD5fE+wEr9JVBK1vFnUVpjkgYAlYjJw0+2NuNqfWPqxnL5ZsHnT/vNUptlgS2vn+y4JNaL9zmrsKGrXxP96+lv0q0uxnDy0i9mNxs0+HDYCABWnpRyjJL3Sve1/bwEOfiK8/lUN7lRJcn41oSkszr4cubvZ1idY0BwQsqKw0NwmGLqP01gQHsA4VGjI2D7oLs5N5Sl+JvB2hJZ8sEzEGL3QWw2CmudpmiIAFlZLgtv9XT8Gg/VYDrpT06QzgZENJ6ESMARzXGCdoFsPgW8dC7zMIWJBitEpw/kLEn/J7h6cb33SGkhFDO98vN5RzbyoQSjIKncUwxIkSpjkgYEEpDWwpLeIRGNrhNPR6TyElhzSnQ0X0KiVbEF2Ynfzs4/eyLwumMBcj6OgkELBgyB7svEhw/kLE4ySdqZuhzUnJXsgbQkcYJFuBK++FmOaAgAUlkOAhzT2hA83THF6wMj+9fqsR9J8kW+8Jna2abOtYxByEh7tHG1ud1N6OoHMLIH12c1ARae5Ki5gLlX8se/8e5POzYb8xki1che6RTLafPXR9M9mY2OqcJfg5AQGLUY9WCc5fiDjkOOXFzdAKXJrn3sStdabZzx4RE9OchhrRmw8CFvT9r940NwlGnLKS5gTUiiWS0G79ZNc3I7Y9brdOvnzyPMHsLl0hYEFCkl3pqNhTPDQmptk6FldNTLafPfQYnzSbrnpCdz6CgAV9jFZpHtIc1zed5iyJiNaxZM+9qVKjUkQiqdK1gIAF/ZJs03REgSTZDY+9bfNBw0WT3WEQMSg12e6xiFkMyTZdRexIbXfPNw+6TjOkRIxpoBySjSMR574NcSz7O4Wub6ZcIAktKKa8lBYxiyHZpquIpNjunn/+9Q97h6cOjUbAgsIku0mwF0fWPqwHrT0lu44W8QhPtkspIvW2u+dfPnme5scs4lDIZJPi2NjY+q1G0MfslzMyHBqNgAW5pFzpiZiLmOz6ZlwcSfPcm7htjyknxdBZDCnXFCNC/N7h6edf/3DhWxP65w0IWJD0/IW4FqU099ZFr6MlmxRvNqf+ePtaUBxJtqYY0UCWctNVxDiGS9LV638bODQaAQsyPfCS3VgX8ds85aQYcTZiyhMlIvYZpNzPHjGLIUscGWKOD13lfLx/fP9pu0+fZBCwGLloleb8hbi2j2THssctr6R8OQuzk5/cvhZUxki5SynicoLiyOAvJ3QcQ8TlODQaAQsu/n2a7CbBiI1LKY8tqFilJ2IdLeV+9rgTte8/bSdbJQ3tIcuZfW0zRMCCnyV7REzc38QpL6JFHCmY8rk3cQtPKfezR/SAv5pfICy+8cEI3YMCAhbVkfL8hYgsknj3WMQjJ+U6XMQxPon3s0eExZSbriIqi4WX4kxzQMBi5LQ6Z3/e6qS5yT/ilJjE63DVyyIRgxgSX+WMWEdLuekqYthV/wZ/RFRtQcCilNEq5V11cXN6kh3WFRcWEy9cxfX0JDtXIoVKz9Dj7wAWOk1zQMCishLfJBix0zv9Mk/ovK6Ux4fGteenf0UJZpGcVxQ67GpgV2SbIQIWFZTyDv+4RYTH+8cbW51kryj0SMHEu7/jrijlw/jiZjEk3nRViiuK+MMDBCxSlPL8hbg55imPZY9b5Uy8JS5uEW1jq5NscTHibKL0m64ihl0NMS+a5oCARYmlH0Qi1puSPeUt+rGdeH/Swuzk+m8boXvrUu5nj2gAT7zpKu6Dl0J9MaJDEQQshhytUp6/ELGrLv1VzohSXOIju+LepsTzYsQshsTHosYNu0qqGmeaAwIWJZD4JsHoVp6Ud9XFHcSWeF6MOIkv8X72iIOoe9W4L548T/mzt7ZUDyoDJ7vWaZshAhbpSnnkd9ykzfSbkyKOFEx/BS1iEEPi/exxbWSJb6SIW+tM/LdExNsEb6MoSoHPxek0iyJxAwtSHsse10OW/uMtokM//X72iFkMpbio0HEM6XeSNWrjy3Pa3imMChZFSnAbeUT7beJj2ePmSqS/0Bmxept+NS6iST/9pquqpquIiwIBi1HMWHHLZymPZY9b6Ex8IGpPXCtP4itoEeE+/aariHEMVY2MIGAxchmrqikkYldd+oWruBpP4v3sVY2Mcekq5dHz0hUCFjJW1t+VEadhlOLBFjqwpxQp5O71K2tL9aD/JP3IGPfATrzpKm4cg3SFgAVVyFgRG63TH9kVd7JH4ufexA3uSr9JP24WQ/oraHFROPGDfaQrBCxKbPOg+8WT54N5qoWOCkx/LHtc33f6oyXiBjG0OmdfPHmeci0kOoUk3nQVN44h/XQVd10gYJGKfg8VjNvYn/i872pfV8TMgvTXcOOuK/1CY9znMP3rkq4YAHOw6K/er7A+ZayICebpd/DE7T5L/9ybuIJcKTrJIvr0S7HcGbeClvih1NIVAhYy1mUiBkGVYu2sqp1JcWNRq5qGS5EaI45NlK5AwKLEGStuP92jv79M+ei9nohjOtKftFnhAk/cLIayvGWh4xhKsRFSukLAQsa6QHQ7SOJj2eNmoqZ/mE90aixFP3vEcdRlaU6K2IKQ/qB26QoBCxnrYhEzNkvRllThtbO45c70+9mjCzylqMlFDLuSrkDAopQZK64zOv2x7HGlgrJcWlxnUvqDM+JmMZSi6Squ3Jj+KFHpCgELGetNFS6BRBzmU5blzriBBaUYBxW3SF2Kpqu4CCJdgYBFyTJW3MJZ+kc190Qsd5alBBIxx7wsa2dxrfqlaLqKy8SlaJWTrhCwkLH+5f9U1dWlaj+kIzJxKfrkovu+SxEc44ZdlWJQu3SFgIWM9bOIzXSlGF8efaRgWfJHhYNj3CyGslQcF2YnP7l9LajBUboCAYtyZKz9w5OHu0dxPUnbrZONbzrpL1JE9OmXJThGd0aXouIYN4uhLGtncXshS9Hj2FuIl64YLmcRMnyP949DfxWWYix7nu6WUhSu4oZ9l6KfPTp/bLdOvnzyPP38EbEQX5ZB7dHDJkDAYtQ92HmR/lj26GdYKRp34lr1S3R1cU/oh7tHG1udql6ddAVBLBFSJqWYUxA9YKIs+/mrXZaLm8VQlkXPuJaysowSla4QsCBYWR7P0T1JpTj3Jno/XVn62eMWPcvSdBXd9y1dgYBFBZUofMTtgizFuTfRgxhKVNqJy45labqKG8dQordPukLAggBl2bIUHT5Kce5Nnv38pVj0jKs7lqjpKjpdlWJQu3SFgAVhz+ZSjGXPs2pWin6yUQgfEbMYSlTaidsOKV2BgEU1Pdp9WYo5BRHju8oyhTJ6gmi7e/7lk+elCMdxlbmxsbFO93zvWQnCR9zhRSUqPUpXJMuYBtKVeGtt3JyCsrR7j8IF5nw2p7/CG3eBZRnULl0hYEHVMlZcXadEGyGjV83K0lIWN4vhQsk2ud+9fmVtqS5dgYAFJchYcUcKlujcm+iWshItKsXNYrg8Waa25hs3jqEso0SlKwQsKMbnX/+QQuEn7kjBEnXrR9d1ytLPHt2TlEUia6PRb2KJ0tXN5tRnH7/nFyMCFhRQIRjuhqa42eUlOhkmOj6WqJ89ejtkdkNfBY4bx1CuiBy3KRIELEguY8UdKViiJbPo5FGifvboiBxhWGElrjWwRIPapSsELKhIxoo7UrBEvd55BjGU6xrjZjH0clLEVsrBx+vo5CFdgYAFA81YcUWdspx70xO90axExbm4AuTrn7ToytDGVmcwGTRuX0KJ5rFJVwhYUIWMFXekYLmKOnHFuXJth4zeTHfhqIK1pXroUUiDCdxx++lKNKhdukLAgtJnrLgjBcvVjTQiBY/oWQyXbKZL8L7F1VmlKxCwYHBPiFGIHdG93smO07xQ9CyGdzYkxY1g7VMEj67PffHkeVlWsaUrBCwoccaKO1KwV+3Y2OqUKHZEDGIYZC9RIQZQ1InrXStwpEV0zivRoHbpCgELyp2x4k7cK9G5Nz1xLUTl6mePrs9FxI7ozvf8TWzRw67KVYaUrhCwoKwZa4jPyAE/qOIus9U5+/Qv31f+MqPLkNEde3lia/TIiRINapeuELCgrBkrz6OxLOfe9OScXV6W5v24WQyFrH7Gte7FTfmPjh3SFQhYEJmx/vd/PsuYA6JbkUp07k2eQQy/zJSJ90THrX6m0BEVNMQhOkSW7nP7p9//SrpCwIJUZGmjydOjU6JWpDwP47dlkTR39Ud3I/UjNUZ3vm9sdd45Sz1u2FW5BrXneUNBwIKhZay4ZvZyjQ/t66F7qT2qo2cx9G/vZ3Qf2OVLsXHjGKQrELCgvxkrerGsXOfe5MkcGQ3rGOML43JEuWgAIycatfG1pXpEHnrbkmVcuipwAVS6AgELLshY0VORSle4imvbjwidw93qH12iG2TmiO58f32DanTmKNegdukKAQtKlrEWZifjmtnLde5NnpWp6Ns7rI606CsdfKt+dN201Tn78aW2z6QrELAgOa3OWUS0Kte5Nz3Rgxge7Lx4tHsU/RQf/ApUdOf+EAfuR7877e55xJWWa1C7dIWABSOhXOfe5DnPuFcjeVXkKEUPddwshhTO+YkeDSpdgYAF5Va6c2+iN0W+LUdGF1oGMMEyespUOvXI6M737Eq3ri1dIWBBxZXr3JucXd6XBI7oSUt9bXuPHuqd4Oiy6M73FGKudAUCFpT4Gdy/h3SWkROppZnoWQzJlnOKGq8vXYGABYkq1/khOQcxZL/Y6L6uYtfj8qyppf/O5jwg8nVD7zCTrkDAgp9tt042vumUq3AV3Sj9Rj97xkdgXM9TUc/76FkMJdoEWkjne7kGtUtXCFhQZaUrXOXsQI/eFxm9tTDnilX0GmjpFnxzHmpUunSV50MFZTTlFjBSmo0y/fWcZ8EuyxHClz+/9w9PIlqgVuanF96fjJsXED2LoXR76H76KE4sRpUJSzdKVLpiNKlgMXLK0hQcPYihwKnl0bM9Q5cm86xLlrEqGV2ok65AwAIZK1JSaSN6a2H2jqgB/IikRE/EiOiok65AwAIZayxPbaN/41KjVyqztL1Hp40yTtnI01FXukHt0hUCloCFjJWEPLMJ+t2ElKeo9rb7nPL1ppY2pCsQsEDGinGzObV+qxF3QHXOfvah5IM8VbGHu0cbW51yfdJyJtRynZIpXYGABUlkrDzLRkX1s2cUPV399e7sPC3eA0uTxaar6PlPpRvULl2BgAXDf4ZFD9Uc4u656K2FvXjUrE/EpcmStnjnmSkqXYGABTJWsOhBDP3rZ88eGuL2/UXr65HSad6oMo4Sla5AwIJhZqw8h/4m0t+dp4kqVBmbrvJskJSuQMACGStYZTqQ8jRul/SSB5CuynvJ0hUIWDCcykGe4+eSHfvUv8dqSZuu8tyTkg5qz1muAwELZKx40YMY0l8ji95aeImSNl1JV4CABYPLWNHHGLe7518+eT7Efvbsj9i4rYVlDJRvk2ccQ0kH00tXIGDBcDJWnkEM5ZpXXsjWwvJ2IOXp+i/poHbpCgQsGE7GyjOW86udF5ef4lexkFHqNbI84VK6gkqacgvgbXoPj7iMlWcQQ3lXixrT443pyApWeXPGzebUH29fi0tXJT0GR7oCAQuGkLHyNCSVtP0o51WXdGR5zpwxmlcNAhYQnLHyDGIoSz/72+5S9LCGkg7VzLl9stRJWroCAQsGl7HyLBWVq5/9dXn6rsrbdDWymVK6AgELBpexGrXxe4sz0YMYytjPnj9TlrfpKk+dUroCAQvIlLHyDGIobz97zgWy8rYf5Rl21e6e33/a3jzoSlcgYAGXZazVG1dXF2fivtvD3aOvdl4o4ZRInjBd6vVQ6QoELOh7xtp7drp3eJpnEEOpKxkjGzLyDLsq+4VLVxDKoFGIeVg+3j9emZ+Oe9aW95S9nLMYytt0NTY2tjxXW7/ViL7wL548b3XORi1WgoAFDMjGVqek/ex5TlQsddNVzgWyUsdK6QqiWSKEASl1P3uezu5SN13ljJXSFQhYQB+Vt5895yyGUk9PzTnsqtRFO+kKBCxIWqn72XPOYih171GjNv7H29fiNjFIV4CABX1U6n72Rm18bamep35T0mOM8y+JPth58eDbl9IVCFhA8Urdz55nFkMFrv2T29ea9Ym4/7zUDWfSFQhYkK5S97PnHElQ9qarnAlDugIELOiLUi+N5d80V96mq5zjGEY8WQICFvRRu3v+aPdleRuPcrZ1lzpZ5kxX5R3ULl1BPxg0CsVnrDI+a3M+YkvddJVzHIN0BQhYIGNdIM8shrIvjeVMV6UeJdorW/7Hv78vXYGABeVQluduzlkMZW+6yjmOoQLpKs/lAwIWyFgXaNYnPrl9Lfr5Wvamq5yXX+ohZ9IVCFggY/VFnlkMZZ+lmb/xqNSD2qUrELBAxuqL1RtXVxdn4v7bsh/+k/N0RekKELBAxrrg4ZpnFkPZZ6jmHMdQgf2S0hUIWCBjFSznITCbB937T9vl7TrKuV+y7IPapSsQsEDGKl7Oyk3Zm65yjmOQrgABC2SsN5+seWYxVKDpqlEbX7/VWJ6rRd+BUo8Sla5AwAIZq2A5hxFUoOkqZ7aQrgABC2Ssf5FzFkMFmq4WZifXf9uIzhatztkXT55LV4CABTLWz/LMYqhG01XOYVdlH9QuXYGABTJWwY/VnC1HZW+6yl+9q0C6Ghsb+9O//Uq6AgELRkuf5lXmnMVQgUWx/FsmK7A2mn/XJJDHlFsAQwwBvc3/xX7PtaV6dNmm7Ofr9awt1e9ev5Ja8JWuQMACSpmxcj5TH+4ebWx1RjxYSFeAgAUy1s9yzmJod883tjqlnqKZ/xSgCowSla5AwAIKy1g5jy6uRtNV/u1y0hUgYIGM9bOcsxiq0XSVcxxDNQp40hUIWEABGSvnLIbKNF3lT1dlH9QuXYGABRSTsXIOKK9MzSbnOAbpChCwQMb659fkmcVQjaar/OmqAscsSlcgYAHFZKycQ56q0XSVP1VUY1C7dAUCFpA3Y+XfKFeNpqtGbXxtqS5dSVcgYAExGavXKdX7H3POYqjMGIL8KfPx/vHGVke6AgQsGFF3r1/ZPzx5vH989/qVtaV69PepTCt3znmqlRnU3svf0hWkzGHPkLq9w9M8kaIyy2E5xzFUZoU0f3c/IGABuVSmYGOFVLqCcrFECJUlUrgVgIAFFKYyTVf5zwJqd8/vP21vHnSlK0DAAuJVpukq/0a5KgVN6QoELGBoKtN0lf+kRekKELCAAlSm0yj/sKu9w9Mvnjxvdc6kK0DAAiJVqVqT8xzrii2SSlcgYAHDUaU8kX/YlXQFCFhAXpU5+KWXJ9aW6nnSVWVa0KQrELCAYdppdVVrpCtAwAKKtH6rsffstOzdV2tL9bvXr+T5DpU5Bqe3Tprn6EkgBY7KgdIre4d7zmFXVdo+WUgXGiBgASOdsRq18T/evnazOSVdSVcgYAEyVjHpKuewq3b3/Msnz7dbJ9IVIGABMlYBYaJKo7+kK6ieCbcAKiN/TUi6kq6AQqhgQdUkHj7yDyCo0ihR6QqqSgULqiblOpZ0JV3BiFDBgmpKsI6VfxzDduvkyyfPpStAwAJkrLFGbXxtqZ4zXVVpULt0BQIWIGPlTVf5lyylK0DAAmSsnzXrE5/cvpYzXT3YefHg25fSFSBgAWllrE//8n2rc1bGJFGlQe29et6ffv+rZt0GI6g4/8ih+hq18U9uXxtwyeRmc0q6+uUb8dnH70lXMApUsGBUDHLAQf5xDBUbJVqiMbCAgAWkmLFWb1xdXZyRrqQrELAAGasY+YddtTpnXzx5Ll0BAhYgY/0YI9ZvNZbnainnP+kKELCA0mSsQmKEdAUIWICM9bOF2cn13zZyxojNg+79p23pChCwABmrmGFXFRvULl0BAhbIWPEZa2V+em2pLl1JV4CABRSTsfIPuxobG9vY6jzcPZKuAAELkLHG1pbqd69fyflzKzaoXboCXnFiAxDcR7V+q5EzXbW759VLV2NjY3/MfbI1UA0qWMDPNg+6Xzx5fvnXFFKhqd6g9le5M+eQVaAyVLCAny3P1S7vqZKupCsgoym3AHilFxEu3NNXyDiGvcPT+//Vlq4AAQuQsQpLVxUb1C5dAQIWEJmxChnHIF0BAhYgY/2cse5ev7K2VM/53R7vH29sdaQrYHTYRQi8Vatz1qxP5E9XFRvULl0BAhYwTNIVMJosEQL9UslRotIVkIU5WIB0JV0BBVPBAgrWOwZn86ArXQECFkAx6aqSg9p751tLV0BGlggB6erdVuanc55vDYwUFSygGHuHp188ed7qnFUyXeUftQoIWADB6aqSg9qlKyCOJUJAupKugIKpYAG5VHWUqHQF5KGCBcTbbp1IVwACFlCkm82pSk4ukK4AAQsYpurN3pSuAAELkLGkK0DAAmQs6QoQsABGIWNJV4CABchY0hUgYAGjYW2pvjA7Wa7XvDA7ubZU994BAhaQqEZt/LOP3ytRxlqYnfzs4/catXHvHSBgATKWdAUIWICMJV0BAhZAhTOWdAUIWICMJV0BAhZAqhlLugIELEDGkq4AAQsg1YwlXQECFiBjSVeAgAWQasaSrgABC5CxpCtAwAIIyVif3L42sLjTqI2v/7YhXQECFlBxzfrEYEpKpTsYERCwAOINYNlOugIELEDGkq4AAQsg1YwlXQECFiBjFZmxpCtAwAIoMmNJV4CABVBkxpKuAAELoMiMJV0BAhZAkRlLugIELIAiM5Z0BQhYAEVmLOkKELAAsmas9VuNLF+5fqshXQECFkAmy3O1d2as9VuN5bmaewUIWABZrcxPX5Kx1m81Vuan3SVAwAIoJmNJV4CABVBkxpKuAAELoMiMJV0BpTDlFgClyFhv/H8AUjZ+fn7uLgAAFMgSIQCAgAUAIGABAAhYAAAIWAAAAhYAgIAFAICABQAgYAEACFgAAAhYAAACFgCAgAUAIGABACBgAQAIWAAAAhYAAAIWAICABQAgYAEAIGABAAhYAAACFgAAAhYAgIAFACBgAQAIWAAAFGLKLWCIHu8f/23/qPBvu/jBjx/s+vTEwvuTv25MNOv+kABAwGJktNqn262Twr/tG9+zURtfbE4tNmsfzdWELQAGYPz8/NxdYFge7Lx48O3LQf7EhdnJO9evLs/VGrVx9x+APlHBYrTsHZ7ef9pu1MbvXL9y5zdXxSxI5B/mxjedgL+U3p9cW6q7bwhYkJZ29/zBty8f7R7dW5y5e/2KGwJD/yfZj24BGCL9KIz07/SNrc7nX//Q6py5GwAIWFCY7dbJp3/5fu/w1K0AQMCCwrS755/+9fvH+8duBQACFhTp/tO2jAWAgAUF29jqWCsEQMCCIrW75188ed7uGg4HgIAFxWl1zu4/bbsPAAhYUKTNg66RPAAIWFCwoKHSACBgwbvtHZ5uHnTdBwDiOCqHMrnZnPrs4/cu+YJW5+wf7bO9Z6c7rW7OhPRo9+XyXM09B0DAYtQ16xPN+sTN5tTd61fa3fNHf3/5aPcoblfgduuk1Tlr1lV5ARCw4H80auOrizN3fnP1yyfP45rW/89Bt9ijoPcOT3+Z9m42S/bPsNU52zs83Tv8+ZY2G5Mr89P5v+1262Tv2Wnn+OzH//enu9SLy83G5ML7kwuzkz7S/dPunu8dnu60uj9+Sv/n/o+NjS1+MNV7i3t/t7hRIGDBP2PWZx+/Fzel/enBcXTA+jGCPDvdP/wxNPyjffbO86Sb9YlfNyYWP5habNaKfZK1OmeP946yf/3bAlO7e/54//jR31++cS03m1PRAavdPd886G4eHL9zPbdZn/hornbnN1cvrCkWdY15vmfEG/d4/7jVDhhsu7JwpdiSaqtz9ujvL7e/O3nbfN03/jJZnqstNmsr89ON2nixn8nQA9f/0T57sPOi8HcEBCwIs7ZU33t2GjqlPbTu1YsLvfav0HXJVufHEPbjT/z2Ze9JtjJ/pZAmsB8fRT99z4wuDEwPd4++2nlR4AjW0AXcVufs4e7Rw92jlfnp1cWZN3JGIdeY876thhcj/7Z/FPQZW2zWigpYmwfdR7svQz/hP6Xh7sZW58J3oX+fyQs/D+/8DqslLA8jYEHJNGrj679tfPrX70P/w+3WSZbf0b0yTIFHGfaeZM36xOriTCELcHmS0P2n7WL3VG4edO8/bcfFtcf7x5sH3XuLM8Wu3o6O7dbJV9++yDnp7fH+j5/2lfnptaV6zmoWCFhQbguzk8tztdCgsPfs9JKA9bZVs6L0xso/2HmxfqsxlL/F293zz7/+ocDzGdvd842tTs4k2vsmO63u+q2Gp3vQfftq58XD3aOivmEv7K7fathvC79khxQjZGU+uObROX5rcto86P7v/3y2sdXpU7p6PWZ9/vUP7+w46YcvnzwvNl19/vUPRdX5Ng+6n3/9g4Mjgz5FBaarV+/pF0+eb2wZzAsCFiMs4u/svWdvjRfN+sQgn+4Pvn054EMSN7Y6BR4ZVHgxrLeTQMbKeKM+/cv3xd781z3cPXKCJwhYjLTQ3f6dtz+8F2YnBzwl6/H+8cAeY9utkwKrHf1IV6+iw5dPnvtgDz2GDvLDCQIWJKfYlp2PBt568nj/uPBVngsVexrjxlanf+WT7daJsyOHm65efTiHspANAhYMX29wYlF+Nz+EjWx9DSuvnpQF/ojNg26B+yvfFiN8tn+p1yA14IXsApeVQcCCEbUwO5wJ4/0u2BRYh+hNefBRGYovnzzv9w6MX4oewAECFpRYp+hf/UMpYm23TvpXE9o7PC3wqbyx1fG4HYqHu0dDKSa1OmdfWSgEAYtRc8muwDgfDWkC0KPdl336zgXmoVbnrN+LgySYch7uHg2+cgYCFgzTP9oF/95v1ieGskr403HLqTceaXke4p2PC8qN2vjyXG31xtXVG1dX5qejP9veejDJndH6sz70D+ssTfF3rl99Z5tRozb+xrMq//LN3/aPFmbryd7t3pj7PN9hYXZy+X/VFman6rXxTvd87/Bk87+7+tmzfM4j7vzbzmXaOzzd+CZ4Itrj/eM8hxWCgAVl8sYB/lnUp9/9hLhwfmmjNr7YnFps1hben3zbKTd7h6e9Ewzj1lP+z0F3bSnhu50jXd1sTt27MfPGfVueq60uzhRylF61RVSPLjlVcGF28rOP33u4exQ6rr13xNPb3t//7//+v974e+Pzr38I+oR89vF73msELBi+uILKwvvvXiLpraq8OuVwZX56eW46y9T4nzYhzqwuzjzYefHg25cRhYq9w9OhLFBm8bf9yHldqzeuri7OXPJkvdmMed6PiIjy1cr89NuS0Cu9o7WD7nmxB4SDgAWJijuSOeMRy8tz03uHp3d+c3Vlfjpilunq4szy3HTEQMi9Z0MLWM36xK8bE2/LoL3wF/Ft1281frlKdeHzvlEbNwDil0LLtM36xNpSpoXmu9ev7LS62WNTu3u+edB1DjQCFlTZduskokSUPbuszE9niQWX/6z1W40vAk992T88Gcv3c0Mfxh/N1W7NTb8zd8Yt4QXdxpX56f3Dk8HMtS9TwAosX63famT/k+APS/XNg2fZv/nmwbGAhYAFlRV9XN3y/xros2F5rvb6UmOmS3t2OrBodWEH9NvstLoRPyJjKeWVtaX69ncn2t5f/6gHlWl/Wm+dCnqPVuans2c4q4SMMls8qLiHu0ef/vX7uC3rKwuDHiK6emMm6OsHM8Nzea72p9//KqhEF1HBWl2ciVhdXfuw7kP+WqAJK1/duX419EcE/Sft7rn4y8hSwaKyekfPRg88vNmcGvwm84XZyWZ9IvtrHsDTK0sH9C+F3vZeaSTubbrZnLKpsGfnu4D70Nuc0e+P6PZ3J8nuwwABC/75B/Hlj9LetKS9Z6f51yaGcgZOLzGkM/08Ll1FxJ08HWy/m78iYEXc+cVm5O//j+Zq2Vvf9g9PxsaueGsQsCBpe4enQcNyokUXVAr50Ync7YimqJ6IqmGe1Vht1K/+dQR9/WIz8r7Nz06NjR3178MAAhZU1h+W8nb29OYU7B2evG18fG9G/GKztjA7GdF7NABB+8v+5drbp6FJLk+sbNTGrRJGRJksM97y/w3gfUHAAn7W280X999ut07+tn+03Tp559Pu5wfPT8MjFmYnb34w9bv5K+l0q4TuL8v5s3J+h8UPBKyxvcOTwdz20P+w3T1P808IELBgcBq18Yiuo5w99b2Tmx/uHjXrE43pJB5FeVrQglqtC1kVXZj1qyy4gjWw85j3Dk8HFtZBwIJE/fH2tdC/tvcOT+//V7uQDX0/rScmkTIH2YKWPx7VFUgiAlb46F1AwIIY67caoX9qP94/rt6BLYuDrTfkj0cGAaSsM5BpbZAag0bhn+kqtGyzsdWp5HF40fvLhkWLT8pCm8OgGlSw4MfH89pSPTRdPd4/rupBeNH7ywAQsGDs51OWf9sIXWPabp1Usnb16p74YAAIWBDp7vUr96KOwKtwurLiBiBgQaSbzan1W424AQGP948rPJ9augIQsCDYyvz0netX86yC5Rkg1KxP/Lox0Ztd3psX9Y/2WVJxrYzrgwM49BpAwIIL/DSffXp5rpazQrN50I3IQ43a+J3rV1YWrlxYM2t3z3daJ5sHx5sH3fbo7Wnfe5Z3EGXbIABAwILB6NWKFj+YKva8v82D44hsd/m5fo3a+KvzeR7svCj7BMjQhdfv2nnrTzutrg98sucF1afNA0LAgrQtzE6uffjuY5h7a3B9eg2hz7Dludont68FPCabtbERC1jb3+WNBXvPLBEGi+5BjPhn624jYEHSGrXx4R5q1u6eB60PRp9sWGqhFYu9w9Oc5wHvtIyyDI7mQ//XBNWmcgthUSDo61fmp0dwU17EnNLNg/g1vkQa13bC63DFvuxfNyYC79uxf9EgYEESQk9V+938lRG8S6FP+rGxsb/tH+UIWEkEhYi0VOzmx97W1MGEWkDAgiKFnqo2mt0nzfpEaN1uu3US16Dd6pw93j9O47NxGpSx+tGQHrTk1+6eJ3LrQMACyGQxvLnnq29jpov9eauTzlUH1YSe9qHwFnpKd56JboCABWVSjYkDoU/6XkUn9PDszYNuUutc2fNKn6pHvUkf2bU6Z/kz1v2n7WqfHAUCFiQnoi9n87+rELBufhCzPe2rnRfZ25L2Dk9Te663OmcZM+L9p+1+NOb3BqqFhcJvX0a3grW75188ef54//jx/vGAi2Fm9yNgwUgLHR+w3TqpxpNjYXYyYsZSu3v++dc/ZLkDe4enn3/9Q183D8b1z21sdd7ZXLWx1elf4W0lfF9Fxnt+4Vvw6kIefPtykB1d7e65Jn0ELKiO0JWvxyGb49rd8yottXw0V4t7cH761+8vL4c83D3qd7rKc+j151//8GDnxYUvr9U5++LJ89CV0CDLc7XQaNvLtUF55cHOi0//+v0bsWxjqzPIPw/+vNV521C67dbJ/aftbdPRGCpT5qCPek1CWVZteg+5pE59zunOb65GJ4leOeTOb67e/GDqVSVp7/B0+7uTR39/ObC7dLMZefjMg29fPto9WmxOvT4SbPO/u4PJH6uLM6FJvbfYd7M5de/GzCVbEXt1owc7Ly58C3qf4T/9/leDGRDf6px9+pfvV+anF5u1+k9peKfVbXXOtlsnvZc3mkNSELCglCImX99/2l6/1bg8Y/X+4K5SuuoNa4gOKL3H58awdwjmCQq9LDKUZayV+em3ZaDL/TQs44dmfeKjudqr1NKz0+ruPTt95+X0gtpnH78XWv+Lmynf7p4/3D3qa0UQBCwYkIXZyaA6RO+RszI//bv5K288RXrP4L/tH1V1LePejZnt1g/lff2LzVpJJ0Wt32p8/vUP0dE2T2rZOzz98qeM5XcFAhYQ4HfzV/YOgysrvZ1Wr/+l/o/2WcVKVheWJfIUsYZuOaqNLJE7vzxXG1YbeK8iG3oKZ+ifLpA4Te4Q5qN8D93eyPJXbSKVt/ZhvbwvPmLqQTrWbzUG0wt1+V8U2Q3x1YKABcPXay1yHzJamJ1cvXG1vK//zvWr5U2Hn9y+NsSzxkPbCiOG04KABZVy78aMm5Dd6uJMv89k7F/kvdmc6t+L73fNZmF2cm1paBXElfnpoAv8aE7AQsCC0XazOXX3uh3gAfpaSlmeq/U18vZplXNtqf7rxsQAUk5oL1Qh7l6/Evpzm/WJZRkLAQtG3L3FmX6UHxZmJysZ3Zr1iYit+xnvWL8DRD/y9Mr89MDe6MFnrPVbjbjKWXkXZEHAgmL0o8FlYXbys4/fqw+vaaavelfXjzs2gDaje4Wucg4+8azMT//p3341gBvVqI1/9vF7K/PT6WRZELBgpBPDwLLC0O9YUUllkHeslxsKeeXDWrNbmJ38j39/v69rcDebU//x7+/n7Ie71/+OPRCwoASJ4U+//1X+58HK/HTl09XrqSh/lWLwd6yXsXIGlIjOpGIv4ZPb1z65fa3w1e1mfWL9VqOQd6TALAvDZbc55H20/OnffvVg58Wj3aOI44eb9Yk/LNVHqre3URtfW6rfmpv+6tsXETNIh3jHegHl4e7RV285y/mdESSFAR/Lc7Xlufcf7x/HHafzy3ty5/qVO7+5WmDYbdTGe/+mHnz7Mu47vPNQRRCwoBxWF2fu/Obqo7+/fLx/nPGhtTA7eef61ehulbL7acj7e9utk0e7LzMOHG/WJ1YXZ4Z+x+5ev7IyP539vU7kZb9hZX56ZX5686D7eP8obuD7T0Ftun/X9eNNW7jSu88Z42xvMOyd61cVwEjB+Pn5ubsABdo7PN08ON57dtrqnL1+9EejNr4wO9msT8zPTn00VzO3+pV293ynddI7TviNE4R6d2zh/cnluelLnprbrZOgo/duNqcKOSyv917vfHfS7p6//l436xO/bkwsfjB1+ctOx+ZBd+/wZOe7k73D07elmd4HeOH9ycVmbbE5Ncj12b3D0+3vTvYPfz7/oPch6b2eHz8k709+0Ji8+cGUXIWABVCkYQWsqmp1zv7RPnsjWrktEMQSIQD/olmfUGGFnPwTAgAQsAAABCwAAAELAAABCwBAwAIAELAAABCwAAAELAAAAQsAAAELAEDAAgAQsAAARtqUWwCU3a8bE6s3rmb/+mZj0k0D+mr8/PzcXQAAKJAlQgAAAQsAQMACABCwAAAQsAAABCwAAAELAAABCwBAwAIAELAAABCwAAAELAAAAQsAQMACAEDAAgAQsAAABCwAAAQsAAABCwBAwAIAQMACABCwAAAELAAABCwAAAELAEDAAgAQsAAAELAAAAQsAAABCwAAAQsAQMACABCwAAAQsAAABCwAAAELAAABCwBAwAIAELAAAAQsAAAELAAAAQsAQMACAEDAAgAQsAAABCwAAAQsAAABCwBAwAIAQMACABCwAAAELAAAAQsAAAELAEDAAgAQsAAAELAAAAQsAAABCwAAAQsAQMACABCwAAAELAAABCwAAAELAEDAAgBAwAIAELAAAAQsAAAELAAAAQsAQMACAEDAAgAQsAAABCwAAAELAAABCwBAwAIAGAX/fwAAAP//BcsttzqOSL8AAAAASUVORK5CYII=;sketch=1;rounded=1;" parent="1" vertex="1">
          <mxGeometry x="51.17" y="263" width="66.66" height="50" as="geometry" />
        </mxCell>
        <mxCell id="jqk6BCaP8Qqh_6VqfDuk-9" value="" style="shape=image;html=1;verticalAlign=top;verticalLabelPosition=bottom;imageAspect=0;aspect=fixed;image=https://cdn0.iconfinder.com/data/icons/file-61/20/file_json-128.png;sketch=1;rounded=1;" parent="1" vertex="1">
          <mxGeometry x="54.92" y="340" width="70" height="70" as="geometry" />
        </mxCell>
        <mxCell id="jqk6BCaP8Qqh_6VqfDuk-10" value="" style="shape=image;html=1;verticalAlign=top;verticalLabelPosition=bottom;imageAspect=0;aspect=fixed;image=https://cdn3.iconfinder.com/data/icons/file-extension-vol-1/48/csv_file_database_extension_data-128.png;sketch=1;rounded=1;" parent="1" vertex="1">
          <mxGeometry x="174.5" y="198" width="90" height="90" as="geometry" />
        </mxCell>
        <mxCell id="jqk6BCaP8Qqh_6VqfDuk-11" value="" style="shape=image;html=1;verticalAlign=top;verticalLabelPosition=bottom;imageAspect=0;aspect=fixed;image=https://cdn2.iconfinder.com/data/icons/font-awesome/1792/text-width-128.png;sketch=1;rounded=1;" parent="1" vertex="1">
          <mxGeometry x="184.66" y="313" width="93" height="93" as="geometry" />
        </mxCell>
        <mxCell id="jqk6BCaP8Qqh_6VqfDuk-12" value="" style="shape=image;html=1;verticalAlign=top;verticalLabelPosition=bottom;imageAspect=0;aspect=fixed;image=https://cdn3.iconfinder.com/data/icons/file-extension-vol-1/48/Xml_file_database_extension_data-128.png;sketch=1;rounded=1;" parent="1" vertex="1">
          <mxGeometry x="47.489999999999995" y="458.5" width="89" height="89" as="geometry" />
        </mxCell>
        <mxCell id="jqk6BCaP8Qqh_6VqfDuk-31" style="edgeStyle=orthogonalEdgeStyle;orthogonalLoop=1;jettySize=auto;html=1;sketch=1;" parent="1" target="jqk6BCaP8Qqh_6VqfDuk-14" edge="1">
          <mxGeometry relative="1" as="geometry">
            <mxPoint x="581.5" y="382" as="sourcePoint" />
          </mxGeometry>
        </mxCell>
        <mxCell id="jqk6BCaP8Qqh_6VqfDuk-32" style="edgeStyle=orthogonalEdgeStyle;orthogonalLoop=1;jettySize=auto;html=1;exitX=1;exitY=0.5;exitDx=0;exitDy=0;sketch=1;" parent="1" source="jqk6BCaP8Qqh_6VqfDuk-14" target="jqk6BCaP8Qqh_6VqfDuk-15" edge="1">
          <mxGeometry relative="1" as="geometry" />
        </mxCell>
        <mxCell id="jqk6BCaP8Qqh_6VqfDuk-39" style="edgeStyle=orthogonalEdgeStyle;orthogonalLoop=1;jettySize=auto;html=1;exitX=0.5;exitY=1;exitDx=0;exitDy=0;sketch=1;" parent="1" source="jqk6BCaP8Qqh_6VqfDuk-14" target="jqk6BCaP8Qqh_6VqfDuk-38" edge="1">
          <mxGeometry relative="1" as="geometry" />
        </mxCell>
        <mxCell id="jqk6BCaP8Qqh_6VqfDuk-53" style="edgeStyle=orthogonalEdgeStyle;orthogonalLoop=1;jettySize=auto;html=1;exitX=1;exitY=0.5;exitDx=0;exitDy=0;entryX=0;entryY=0.5;entryDx=0;entryDy=0;sketch=1;" parent="1" source="jqk6BCaP8Qqh_6VqfDuk-14" target="jqk6BCaP8Qqh_6VqfDuk-51" edge="1">
          <mxGeometry relative="1" as="geometry" />
        </mxCell>
        <mxCell id="URb7ShDhbX8bjMATs06p-6" style="edgeStyle=orthogonalEdgeStyle;orthogonalLoop=1;jettySize=auto;html=1;exitX=0.5;exitY=0;exitDx=0;exitDy=0;entryX=0.5;entryY=1;entryDx=0;entryDy=0;sketch=1;" parent="1" source="jqk6BCaP8Qqh_6VqfDuk-14" target="jqk6BCaP8Qqh_6VqfDuk-41" edge="1">
          <mxGeometry relative="1" as="geometry" />
        </mxCell>
        <mxCell id="jqk6BCaP8Qqh_6VqfDuk-14" value="" style="shape=image;html=1;verticalAlign=top;verticalLabelPosition=bottom;imageAspect=0;aspect=fixed;image=https://cdn4.iconfinder.com/data/icons/general23/png/128/traffic_lights.png;sketch=1;rounded=1;" parent="1" vertex="1">
          <mxGeometry x="656.5" y="329" width="106" height="106" as="geometry" />
        </mxCell>
        <mxCell id="jqk6BCaP8Qqh_6VqfDuk-15" value="" style="outlineConnect=0;dashed=0;verticalLabelPosition=bottom;verticalAlign=top;align=center;html=1;shape=mxgraph.aws3.bucket_with_objects;sketch=1;rounded=1;" parent="1" vertex="1">
          <mxGeometry x="920.5" y="351.25" width="60" height="61.5" as="geometry" />
        </mxCell>
        <mxCell id="jqk6BCaP8Qqh_6VqfDuk-24" value="EBCDIC" style="text;html=1;strokeColor=none;fillColor=none;align=center;verticalAlign=middle;whiteSpace=wrap;sketch=1;rounded=1;" parent="1" vertex="1">
          <mxGeometry x="211.16" y="103" width="40" height="20" as="geometry" />
        </mxCell>
        <mxCell id="jqk6BCaP8Qqh_6VqfDuk-25" value="Fixed Width" style="text;html=1;strokeColor=none;fillColor=none;align=center;verticalAlign=middle;whiteSpace=wrap;sketch=1;rounded=1;" parent="1" vertex="1">
          <mxGeometry x="194.33" y="418" width="83.33" height="20" as="geometry" />
        </mxCell>
        <mxCell id="jqk6BCaP8Qqh_6VqfDuk-28" value="Binary File" style="text;html=1;strokeColor=none;fillColor=none;align=center;verticalAlign=middle;whiteSpace=wrap;sketch=1;rounded=1;" parent="1" vertex="1">
          <mxGeometry x="201.17000000000002" y="547.5" width="63.33" height="20" as="geometry" />
        </mxCell>
        <mxCell id="jqk6BCaP8Qqh_6VqfDuk-33" value="" style="outlineConnect=0;dashed=0;verticalLabelPosition=bottom;verticalAlign=top;align=center;html=1;shape=mxgraph.aws3.bucket_with_objects;sketch=1;rounded=1;" parent="1" vertex="1">
          <mxGeometry x="117.82999999999998" y="636.5" width="60" height="61.5" as="geometry" />
        </mxCell>
        <mxCell id="jqk6BCaP8Qqh_6VqfDuk-37" value="Error Bucket" style="text;html=1;strokeColor=none;fillColor=none;align=center;verticalAlign=middle;whiteSpace=wrap;sketch=1;rounded=1;" parent="1" vertex="1">
          <mxGeometry x="88.15999999999997" y="703" width="123" height="20" as="geometry" />
        </mxCell>
        <mxCell id="URb7ShDhbX8bjMATs06p-5" style="edgeStyle=orthogonalEdgeStyle;orthogonalLoop=1;jettySize=auto;html=1;exitX=0;exitY=0.5;exitDx=0;exitDy=0;sketch=1;" parent="1" source="jqk6BCaP8Qqh_6VqfDuk-38" target="jqk6BCaP8Qqh_6VqfDuk-33" edge="1">
          <mxGeometry relative="1" as="geometry" />
        </mxCell>
        <mxCell id="jqk6BCaP8Qqh_6VqfDuk-38" value="" style="shape=image;html=1;verticalAlign=top;verticalLabelPosition=bottom;imageAspect=0;aspect=fixed;image=https://cdn0.iconfinder.com/data/icons/small-n-flat/24/678136-shield-warning-128.png;sketch=1;rounded=1;" parent="1" vertex="1">
          <mxGeometry x="684.5" y="561" width="50" height="50" as="geometry" />
        </mxCell>
        <mxCell id="URb7ShDhbX8bjMATs06p-7" style="edgeStyle=orthogonalEdgeStyle;orthogonalLoop=1;jettySize=auto;html=1;exitX=0;exitY=0.5;exitDx=0;exitDy=0;entryX=1.02;entryY=0.343;entryDx=0;entryDy=0;entryPerimeter=0;sketch=1;" parent="1" source="jqk6BCaP8Qqh_6VqfDuk-41" target="jqk6BCaP8Qqh_6VqfDuk-22" edge="1">
          <mxGeometry relative="1" as="geometry" />
        </mxCell>
        <mxCell id="jqk6BCaP8Qqh_6VqfDuk-41" value="" style="shape=image;html=1;verticalAlign=top;verticalLabelPosition=bottom;imageAspect=0;aspect=fixed;image=https://cdn2.iconfinder.com/data/icons/freecns-cumulus/32/519791-101_Warning-128.png;sketch=1;rounded=1;" parent="1" vertex="1">
          <mxGeometry x="674.5" y="142" width="70" height="70" as="geometry" />
        </mxCell>
        <mxCell id="jqk6BCaP8Qqh_6VqfDuk-44" value="Validation rejection" style="text;html=1;strokeColor=none;fillColor=none;align=center;verticalAlign=middle;whiteSpace=wrap;sketch=1;rounded=1;" parent="1" vertex="1">
          <mxGeometry x="633" y="197" width="153" height="20" as="geometry" />
        </mxCell>
        <mxCell id="jqk6BCaP8Qqh_6VqfDuk-45" value="Under threshold rejection" style="text;html=1;strokeColor=none;fillColor=none;align=center;verticalAlign=middle;whiteSpace=wrap;sketch=1;rounded=1;" parent="1" vertex="1">
          <mxGeometry x="633" y="617" width="153" height="20" as="geometry" />
        </mxCell>
        <mxCell id="jqk6BCaP8Qqh_6VqfDuk-46" value="" style="shape=image;html=1;verticalAlign=top;verticalLabelPosition=bottom;imageAspect=0;aspect=fixed;image=https://cdn3.iconfinder.com/data/icons/humano2/128x128/mimetypes/text-xml.png;sketch=1;rounded=1;" parent="1" vertex="1">
          <mxGeometry x="495.5" y="513" width="40" height="40" as="geometry" />
        </mxCell>
        <mxCell id="jqk6BCaP8Qqh_6VqfDuk-48" style="edgeStyle=orthogonalEdgeStyle;orthogonalLoop=1;jettySize=auto;html=1;exitX=0.5;exitY=0;exitDx=0;exitDy=0;entryX=0.482;entryY=0.945;entryDx=0;entryDy=0;entryPerimeter=0;sketch=1;" parent="1" source="jqk6BCaP8Qqh_6VqfDuk-47" edge="1">
          <mxGeometry relative="1" as="geometry">
            <mxPoint x="529.6999999999998" y="415.82000000000016" as="targetPoint" />
          </mxGeometry>
        </mxCell>
        <mxCell id="jqk6BCaP8Qqh_6VqfDuk-47" value="" style="shape=image;html=1;verticalAlign=top;verticalLabelPosition=bottom;imageAspect=0;aspect=fixed;image=https://cdn2.iconfinder.com/data/icons/file-extension-22/63/DDL-128.png;sketch=1;rounded=1;" parent="1" vertex="1">
          <mxGeometry x="499" y="502" width="61" height="61" as="geometry" />
        </mxCell>
        <mxCell id="jqk6BCaP8Qqh_6VqfDuk-49" value="Schema Inferencer" style="text;html=1;strokeColor=none;fillColor=none;align=center;verticalAlign=middle;whiteSpace=wrap;sketch=1;rounded=1;" parent="1" vertex="1">
          <mxGeometry x="499.5" y="309" width="61" height="20" as="geometry" />
        </mxCell>
        <mxCell id="jqk6BCaP8Qqh_6VqfDuk-51" value="" style="image;html=1;image=img/lib/clip_art/computers/Database_Move_Stack_128x128.png;sketch=1;rounded=1;" parent="1" vertex="1">
          <mxGeometry x="900.5" y="152" width="80" height="80" as="geometry" />
        </mxCell>
        <mxCell id="jqk6BCaP8Qqh_6VqfDuk-52" value="Profile &amp;amp; Audit Information" style="text;html=1;strokeColor=none;fillColor=none;align=center;verticalAlign=middle;whiteSpace=wrap;sketch=1;rounded=1;" parent="1" vertex="1">
          <mxGeometry x="890.5" y="257" width="100" height="20" as="geometry" />
        </mxCell>
        <mxCell id="jqk6BCaP8Qqh_6VqfDuk-54" value="Schema Inferred Datasets" style="text;html=1;strokeColor=none;fillColor=none;align=center;verticalAlign=middle;whiteSpace=wrap;sketch=1;rounded=1;" parent="1" vertex="1">
          <mxGeometry x="880.5" y="422" width="140" height="20" as="geometry" />
        </mxCell>
        <mxCell id="jqk6BCaP8Qqh_6VqfDuk-55" value="&lt;table border=&quot;1&quot; width=&quot;100%&quot; cellpadding=&quot;4&quot; style=&quot;width: 100% ; height: 100% ; border-collapse: collapse&quot;&gt;&lt;tbody&gt;&lt;tr style=&quot;background-color: #a7c942 ; color: #ffffff ; border: 1px solid #98bf21&quot;&gt;&lt;th align=&quot;left&quot;&gt;Target Mode&lt;/th&gt;&lt;/tr&gt;&lt;tr style=&quot;border: 1px solid #98bf21&quot;&gt;&lt;td&gt;Append&lt;/td&gt;&lt;/tr&gt;&lt;tr style=&quot;background-color: #eaf2d3 ; border: 1px solid #98bf21&quot;&gt;&lt;td&gt;Delta&lt;/td&gt;&lt;/tr&gt;&lt;tr style=&quot;border: 1px solid #98bf21&quot;&gt;&lt;td&gt;Overwrite&lt;/td&gt;&lt;/tr&gt;&lt;/tbody&gt;&lt;/table&gt;" style="text;html=1;overflow=fill;sketch=1;rounded=1;" parent="1" vertex="1">
          <mxGeometry x="890.5" y="502" width="80" height="97.5" as="geometry" />
        </mxCell>
        <mxCell id="URb7ShDhbX8bjMATs06p-1" value="Schema/DDL File" style="text;html=1;strokeColor=none;fillColor=none;align=center;verticalAlign=middle;whiteSpace=wrap;sketch=1;rounded=1;" parent="1" vertex="1">
          <mxGeometry x="474.5" y="546.5" width="110" height="21" as="geometry" />
        </mxCell>
        <mxCell id="URb7ShDhbX8bjMATs06p-9" value="" style="shape=image;imageAspect=0;aspect=fixed;verticalLabelPosition=bottom;verticalAlign=top;image=data:image/png,iVBORw0KGgoAAAANSUhEUgAAASwAAAEsCAYAAAB5fY51AAAgAElEQVR4Xu19eZwcVbn281bPZA9rIJmu6moiyKKiKLggi+yrwSAMSVfCon76qXivggtergqiLHqvgveKCx/KmqoJg4RdgiEgi4CAuKCIItDVVT0JAQIkgSTTXe/3q54EEjIzXdW1ne45/ctf6Xd5zvNWP3Pq1Kn3EORHMiAZkAy0CQPUJjglTMmAZEAyAClY8iJoMGDPmfF+UroOZvD+AG0FgEGogvlZMD+jED2pWe6Dki7JQJYMSMHKkv2Mc9tG/mOAcgqYjwDRlGZwmLEM5F2nsHJDwXJ+28xefi8ZiJsBKVhxM9oG8cpGz97EigWit7cKl4G/KcBXC6Zze6sxpJ9kICwDUrDCMtbG9s+ehgm59eoFAJ0R1zCYeSl5tS/qC5c/EVdMGUcyMBIDUrDGyLXhGOpeHtP1IOycyJA97wt6X/XSRGLLoJKBDQxIwRoDl0JlnnY0M18P0KREh8v8g4LlfpX8BXv5kQwkwIAUrARIFSlkuaSeRAQLICUlXDcVVjpz6NdYl1I+mWYMMSAFq4OLXS7lZxEpN6c+RMYduuUcnXpembDjGZCC1aEldufm31sn5QEQJmYxRGa+tmi5J2eRW+bsXAakYHVgbatGT7EG5TGAts92ePxd3XS/mS0Gmb2TGJCC1UnVbGxPB9kl9TEieq8IQ1M87tX63OtFwCIxtD8DUrDav4abjaBsaOcScI4ow2LGOuL6/nrfwKOiYJI42pcBKVjtW7stkDtz1Pd4Ch4DUU6kYTEwMGn12t12uPmFVSLhkljajwEpWO1Xs2ER87lQ7H9ofyHgHUIOiWHplmMIiU2CahsGpGC1TalGB1o2tH8n4EdCD8fz5up91YVCY5TghGZACpbQ5QkGjo/G+Mo2WhWE7YJ5ZGPFwKs54ndqC1wnGwQya7szIAWr3SsIoGxoZxFwUVsMhXGfbjkHtgVWCVI4BqRgCVeScIAqvdpE7uZK9nuuQuBm/rJuuT8M4SFNJQMNBqRgtfmFUClpX2PC99prGPzahMH1O+/Yv2JZe+GWaLNmQApW1hWIkL8xu+piG0TTIoTJyJX7dNMtZZRcpm1TBqRgtWnhfNiVkjafCde06xBynref2lf9Xbvil7jTZ0AKVvqcx5bRLql3gujw2AKmHIiZ/64PuHvSPailnFqma1MGpGC1aeGemz+tR6mPd0HU1jUkxlkFy/l+m5ZBwk6Zgba+2FPmSqh0ZUP7IgGXCAWqJTByAb4l2saokxSsNi18uaTeRUSHtCn8zWAzuL9ouid1wljkGJJlQApWsvwmEn3FcdOmvj55/ErRXnKOMliF+VDNcpdGiSF9O58BKVhtWOOKoX2cgV+1IfQRITP4qaLp7t5JY5JjiZ8BKVjxc5p4RLuk/gBEZyaeKOUEDHy9aDpttgk2ZZLGeDopWG14Adgl9SEQfbANoTeBLBfgO6+m8Y5ICla8fKYSzTa0jj33Ty7Ap3IJtW0SKVhtVjpnnvohj+nBNoMdCq5cgA9F15gyloLVZuWulLR/Y8L/tBnsUHAZeEavOrvJHfChaBsTxlKw2qzMZUO9mkAdf94fM59dtNwL26w8Em7CDEjBSpjguMPbJe0JEN4Zd1zx4vFrCmE32Z1UvMpkiUgKVpbsh8zNB6GrklfXAaSEdG1Lc2b+VdFyT2xL8BJ0IgxIwUqE1mSCNo6fV5Q/JBNdzKhyAV7MumSFSgpWVsy3kLdsqCcT6OoWXNvZ5WnddN7ezgOQ2ONjQApWfFwmHqls5C8iKGclnki4BPyfuuleIBwsCSh1BqRgpU556wntknoTiI5rPUK7esoF+HatXNy4pWDFzWiC8eyS+hSIdk0whcihb9BN5wSRAUpsyTMgBSt5jmPJwJ9Bd2W1unasPCEcjjS5AB/LpdTWQaRgtUn5HEPdywM93iZwE4Epd8AnQmtbBZWC1SblqhjaPAaubRO4ycFk/oZuuecnl0BGFpkBKVgiV2cTbLahng/Q2W0CNzGYzFiXU3gXuQM+MYqFDiwFS+jyvAnOLqk3g2hWm8BNFibjRt1yjk82iYwuIgNSsESsyjCYyiX1WSLaKX24/BpAk9LP2yxj/SjdHFjczEp+31kMSMFqg3ouO3n65PX17tVZQCWuH+1R7rsE7J1F/pFy+gvwRdPZWSRMEkvyDEjBSp7jyBmckrqvR5TJke71cc7Ebk+d7A3i7yCaFnkwcQaQC/BxshkqVqVX2y7XXZ9aq3tTFaVrKjON3xggp9SfzZsD5VABAxpLwQpIVJZmZUP7DAE/zwDDG+/xVeb2HM9K7oYMMIyYkoG13YPebvn+qi0Srk7DsnL2NtusnjDxYE+hgwjKwQD2bDZGBq8ipscYuBfk3eeNq94/80qsbebX7HspWM0YEuB729B+DOD0tKEw8/VFy+3dmNc2tNsBHJ02jlHzyQX42MtR6dUmcnf9QAYdDNDhBHpf1CT+HxcCLleIvxflCa8UrKiVSMHfLmn3gnBACqk2S0HsnVOwqudt/M9lvdNnru/ufiZtHM3y+etsBWvgjmZ28vuRGWicFeDhUIAOA+GgZLniK3Mef0vtq1bC5pGCFZaxDOzLhvoqgaamn9qbrZvVmzbNWza0cwk4J30sI2dk4Nmi6bxNJEyiYynPm/EOxes6lMGHMfm3etgqfcz8Hd10vxUmrxSsMGxlYOvOzRfqipLJGs24wcG3zehf/uymw+ZejKt0qU+DqJABHSOmfOtsUCRsImB5vneHGa93jzsCwGHEdCgIeRFwAbihUHXmBD1wRAqWIFUbCUZlnnY0M/y1o1Q/DLxaNJ2th0tanqd+lJhuSRVQk2T+Gsk4r7ZHT9+y50TClRWWFcdNm/r65HGHMpRDQDiUgHdkhaVpXuZbdMsN1DZJClZTNrM1KBvaWQRclDYKBj9QNN39R8pbLqm3EdExaeMaNV+IC18o3DGA8We+bre6nwccBvbXorAPiHIxhE4lBDHOKljO95slk4LVjKGMvy8b2rUEzMsAxo910/m3kfIOzJ2x06DStdntYgYYt0hJwLEF00l9RprF2MtGz94K5w71iA8HaH8CJmSBI66cXeztkbeqfx8tnhSsuNhOKI5taH8Osu8l7vTM/Nmi5Y6696tiaOcwcG7cuSPFY64Uau4u1I/1keII6FyZr+3CNX+R3L/FI/9WbzsBYbYMiZmvLVruqGduSsFqmd50HG1D43QybZ5FId5XW+A+1Cx32dCeIWBmM7s0vyfg3ILpfDvNnEnkGuidsUMtR4d7jad4yjEgqEnkESqmt1bV+16ojoRJCpZQ1docTGWeticz/BlW6h8axKRCv/N6s8RZPRQYDVe7tqDx3xmtDXYd5Ckb9kMxvwtEY+o3SoxPFyzncilYzX55An5fmdtjsJJbkAG0UEdriXg4BjPfXrTcYzPgLnBK/2Bcuyf/IZByGDEfykQfJKA7cIBONGS+TrfcOVKw2rC4lVL+Qibl66lDD/m6izNP1eoePU2EN16ATR3zMAmZveOKVlWo7ReVkvZuJj6UGYcRcCCIpojAlTAYmP+hW+5uUrCEqUhwIOWSeisRpT5LYMZ5RcsJtZu9Usp/i0kRa91IgAV4X8yZ+Uhm5VBfqAi0Y/ArYCxa8hrddEcU8TF1f9xu5bcNtQyQnjZuYpxYsJxfhc1bNrR/ESDUKzJpL8D7bVfQjYM88JHEOBhE8tTqkBdS1ypvcv6W6mvDuUnBCklmWubVWflJtanKmrTybZpHqfNu2kL3H2FzOyX1EI/orrB+SdonvQDf6Gyg1A9gJXcoiP3bvL3G8lFskWvJzLrlKvKWMDKT6QYol/L7Eyn3pZsVYMb6ouW0vBZlG9qNAD6WNu7R8sW5AM+9yDk5bR+mof1QYPqwaGt3InEfFgsDA0XTGfE9RznDCstoSvZ2Kf95kHJpSuneTMN4VLec97eaV9QFeHjex/S+6s2tjKs6p2ePeo789/IOY8ZBRBj2HctWYkufzRlg4LGi6ewjZ1htdmXYhvoTgD6XOmzGL3XL+VSUvHZJ/U8QfTdKjPh92a6Pc3cL0vXS72ywrmv8YR7hKDAfRkTT48cjIw7LQJPrT86wBL1u7JJ6H4hGfPk4KdgMfKloOj+KGl/EBXgw/0C33K+8dWyNzgaTxh0MRTmCgYOF7mwQtTCC+zP4lKLpXiNnWIIX6q3wyiXt5SxuPRTmQzXLXRqVLntOzxHI5YQ7hovB1yge/dIjr5uIDmp02AQ+EHW80j8eBmgQWqHfcaVgxcNnKlGqvXm91q0kcupIswEoXTxNu9p9sZldkO/tknYDCPLA0yBkSRufgaZvWMhbQgEvlKwa5DFjWdFyeuKixF+A9xhPiXkQa1yjlHFiYyDAsW1SsGJjO75A5ZL6H0R0QXwRA0Zi/o1uuX4b3dg+Yi7AxzY8GSgmBvz9cqBVPUXzlZWjhZSCFRPhcYaxDdUCaG6cMQPFGmFROpDvCEaNF3zz2lOi7YCPMibpmwADzFfolvvJZpGlYDVjKIPvM2vaBz61aLpXxz1kZ656qKfQkrjjynidw0BO8XZXr60+1WxEUrCaMZTy9/wZdFdWq2uzeL0j53nvU/uqjycxZNvQ/HcTP55EbBmzzRlgvkS33DOCjEIKVhCWUrRx5qjv8XL0xxRTbkjFXmGKO4Euw2ASueUCfBKsdkBM5hcm1NbP3LF/xeogo5GCFYSlFG0qhjaPgWtTTNlIxcxPFi030aOgyiXt60S4MO2xyXziMsDMpxUt96qgCKVgBWUqJbtySfseEb6WUro30zTp9BgHHrkAHweLHRVjsW46R4UZkRSsMGylYGsbmn9E1dEppNo8RYA9MHFgErEFTRzjkjHCMeAf1NvN3s55q/pCGE8pWGHYSsHWNtQKQFoKqTZLkWY74bKhXkeg3rTHKPOJwwAzzyla7nVhEUnBCstYgvYrZ2+zzapJU0bdOJdU+m6vNjOtY979bghru8f9S+6AT6qaosfln+mm21InEilYAtXWNnoOBHK/TR/S6H20k8BTNrSzCLgoidgypsgM8EOFqnsA3YNaKyilYLXCWkI+9tz86VCUHycUfsSwDH6gaLqpt7KxS+pTINo17fHKfNkwwMzLJ9bW77Vj/4plrSKQgtUqcwn4lQ315wT6TAKhRw/J/HPdcj+bdl65AJ8249nlG3pXsL5f0Rx4LAoKKVhR2IvZt1xSHyCiD8ccNkA4/rxuuj8NYBi7iV1SF4LopNgDj8GA/gxG1O6oise9Wp97fdSySMGKymCM/rahrgZocowhA4Vi9g4oWtX7AxnHbCQX4KMQyi8y4x4CL+0Clg7CyxF1PRElYhK+zHx20XJj2TAsBSuJCrUQc2DujJ0Gla5nW3CN7DJx9dqtdrj5hVWRA7UYoFLKf5VJ+X6L7mPHjXk1A/cSsLTL47vzC6t/2HTwtqFeAdBpQhHCfJVuubFhkoIlSHXLpfwsIqWlU12iDIHB5aLp7hQlRhy+5ZL6JBHtHkesTonBwFow/84XKAVYqlnugyONzTbU0wC6QqixM36rW85BcWKSghUnmxFi2YZ6NkDnRwjRkiuDby2a7qyWnGN0cgz1YA8UuZd8jJCyCvV7gJcowBLNdO8OAqJS0j7ChHuC2KZo8zRj1QeaNeQLi0cKVljGErLPbPGZ+ULdcs9OaFihwtqG2gfQnFBObW7M4KcItATsLZm4Zv1dYW/NK/O1XTwPjxGwlShUMLCyG/X35s2B2M8lkIIlSJXLJfVvRLRH6nDYM3SraqWed5iEY2EBfsOTvLt8gQKvX6z3vVBtlXv/zYhXJ05+nIgyv6XfOAYGBnPEB2oL3IdaHddoflKwkmA1ZMwsm/Yx195VtJb9NSTkxMxtI/8VQPmvxBKkHpjXMOO3RFhCREsKC5y/xAGh0fmiR72XiPaNI15sMRL+AygFK7ZKtR7InZt/b11RNnvi03q04J7MWK9bzgQCOLhXspZ8LhT7KfWvbbsAz1xj4BFfoABvSWHKwINJNEW0DW0BACPZaoSMzny+brnfCOkVylwKVii6kjGuzNU+zQouSyb6yFEZ/Mei6b437bzN8lXmagexgkALzs1ipfE9M/8dxHeCsWRibfDuoN0zW8VmG+o3ATqvVf8k/BjcXzTdxDcAS8FKonohY5YN9Tc0dAJxqh//FOSi6Z6SatKAyeySZoJQCmieqpl/fiMId5HnLZ1QH7w9yrtxYYHbpXwJpJhh/RK2f0Q3nVROz5aClXAlm4WvlLT5TLimmV0S3xN7XytYVSHXi56bP61HqU/4FwgTkxh7qJhDGzb9LhpLyKst0Rcuz2Q3uTs3/+G6ojwQCnvCxv4+vm7mfcI24msVlhSsVpmL6GfP7dkHpHwBRKdGDBXBvX6Ubg4sjhAgUVe7pJ4Joh8kmmSk4Mz3M9Fd5NXv0vsG7ssEwyZJl/VOn7m+u+sRgLbPGsvG/I2uofX6h/ILB55MC5MUrJSY5l7knJx2gKd4xxNoNkB6SqlHTuOtVaM8Vk8af6oL8Iy/EniJp2DJeKV294xrlq9JenxB4684btrU1yePfwxEbw/qk7gdcx3kHaKbA/cmnmuTBFKwEmT72dMwIbc+fyQaAoVZgv11XFk0ne0SHH4soRO7DWK4/o5yf9Nmd9fgnTOuWf58LIBjDuJvX6j0aEtA+EjMoSOG40/opntlxCCh3aVghaZsdIeysfW2wJSPEtPxIPbFalLMKeIJx7hHt5yD4wmWbJQ4HuH7ty/EfI8vUDmvviTN25go7MQx9ij5h/fli3XTPTP+uM0jSsFqzlFTC/+QUGae7YFmE+MjIOpq6pSxAcP7n6JZ/WLGMAKl93fAv9497h8EmhrIwT9nERgk4MHGe3mMJWrN/T31ox7UXwQ7Ec9x9N891U33uKz27knBavHKLJdmvJOQmw2ijwF4f4thMnMjeP+nYFZ/kRmAkInLhvZFAi4Z1Y35zwCWkkJ35l71fpu/pfpayDTCmFdK2glMiNzwLtYBMf95XFftw1mu70nBClFRp6TuW/dnUYSPA9glhKtwpgR8sGA6vxcO2CiA7JJ2z6ZrOQwMEHA7AXd3Ddbu7OlftqKdxjMSVv8JMiu5+wiYIMp4/HcglRrtXeh33CwxScFqwn6l1HMUQ5nNwGxR28+2cgHRICYV+p3XW/HN0seemz+OFWUPUO2W4oJlf8sSSxK5q715vdZFj4JohyTitxLT78uVA++rme4fW/GP00cK1lvYfL53hymvd4872l80Z+AYImwdJ+GCxHpaNx1xHpELQkrWMKqz8pMGp9CjmXTtGGnwzKwwZml97m1Z8+Pnl4IFoFrKT6tDme2BjwfoUCKMF6E4iWFgLNItx7+tlR9BGPD3nFWeUu8A0eGCQBqCwfwV3XKz2bw7DBFjVrAaPdQpdwKA2SB8GCBFqAslQTAMfLtoOucmmEKGDsmAXVJ/CaJPhHRL1pz5Ct1yP5lsknDRx5Rg+W1caqT4i+bHA9gzHFWdY02MEwuW86vOGVF7j8Q21DMA+qFQo2D8trCbcwidC08kXB0tWI3XYbq0/QE+3iPMJlBRJPKzwkLArgXT+WdW+WXeNxlw5qrHegpuFmqGz/zPiWvW7R22XXMade04wWq8DrM2fwRow+swRNPSILJdcvhN+4qW09lrdG1SjMo8bU/28LAQHSk2csb8Qhd5+yTRjz2OsnSEYL3Uu+3Wq7onHdd4HQY4SqgLII4qxRsjtd5F8cLurGiVXk31uvEIAT0ijUwh3jepfuxxjLNtBcueOy0PjDuelcbrMAe1w+swcRQscgzmq3XLzbClTeQRtH2Axl3AOvVhEL1bpMEQcELBdG4QCdNbsbSVYFXn9OwxqPiL5nQ8mPcBUVvhF+FCIMZZBcuRpyxnVAwGyDbUmwn00YwgjJCWv6Wb7nfEwrQlGqF/8H5xnbnaB/weUn6LFgLtJjqhouNTPP6oKJsARecqCXx2Sb0YRF9KInaEmKZuOvMi+KfmKpxgNfr/TO85BDllNpg+BkI+NTbGQKJurzazp2/Zc2NgqMINUcTj5Jn5QX3APZDuQU04woYBJIRgLTt5+uR19a5jGq/DEI4V6RTbdihiUIz+O2FF08m+R3pQwB1kZxs9RwK5O0QaEgPPKoPYp9DvvCQSrtGwZCZYjddhCB/ze0iB6fCOfx1GhCuCcZ9uOQeKAGUsYaiW8rvXiB4FaLIo4/YbGioK9i5c6zwtCqYgOFIVrEqvtp3XjRMJ8O+X5Q8nSIVitCHg2ILp3B5jSBmqCQMDvTN2GOzK+f3YCyKRRR4OLvQ594iEKQiWVATLb0bmgT9BRMcGASVtYmfAVOr8bW2h+4/YI8uAIzJQ6dUmchfuBWEfkWhi5tOKlnuVSJiCYklMsDbMpj5N4M8LcUJMUEY6wI6Bl8F8q0K0KLfKu6OdO2+2cznKhnqLaNsXiL2LClb1P9qV19gFy52f361Wx5cJyny54zy9y2Ko+ybfyMyL9IHq3e3y1Cc9htLNVDbyFxGUs9LNOno2vx970XRniYQpLJbYBGvDwaAXCNfPJywjbWTPwDNgXJ8D36hZ7oNtBL2joYq4fQGMR6mGA9uxy+ymF0tkwfI7dK7tHn8hhm79xkxPqax+cQz+A3lYxFRfVLSW/TUrHDLv8AzYRs+BYGUpiHLicMSO0oW9tKvdF8XB1BqSSIJlG/mPMdPPO6nXeWs0Ju51L8A3dg3yr/L9VTvxbDJBSww0lkM8eiTMcWQtJQrlxK8x1z/QKX/cWhKslbO32WbVpCmXAjBCcSeNAzHAjHUg/g15vKiLcHPeqr4QyFEaZcaA/5t4deLkx4lop8xAbJGYPQYfWTSrS8TBFA1JaMEqGz17g3O3EmFGtNTSe1MGGLyKQLcw+MbxudrtWZ79JisTnoFySX2AiD4c3jNBD48/p/e5P0swQ+qhQwlW48grUn4l7PHrqdMXLaF/1hsINynsLdKmDtxFl2EwWkTpnQUD5ZJ6PRH55wMI82mnk73DkBZYsOxSfjZIWRQmuLTdkgEGlwm4gZlvKFrV+yVH7c1A2dDOJeAckUbBzLcVLVew9jXxMBRIsPzbQOLcfXJfVYukM/+JiBaBsahgOf5x6vLTAQzYpXwJpJgiDYWZn+xezft06mbhpoL13PxpPYo3/i8AbS9SYUTHwuAHiHFDN9dvkO1cRK9WeHzlefn9iBWhZsj+EkMX8/vVvmol/Ijaw6OpYNmGthjAEe0xnOxQ+oc7EOEuf49Ud/fgTTOuWf58dmhk5iQZqBo9xUHkHidg2yTzhIrNeJ0UfLCwwPlLKL82Mx5VsOxS/vMgxd++ID/DMsBrmPFrYr5+cm7tr7df8NKrkqjOZqBsbL0tYervAewi1EjZO163qjcKhSkBMCMKVmNfyaQp/gLxVgnkbd+QzCtAdLPi8SK17v6G+rG+fQcjkYdhwO+Ga/eo9xLRvmH8krYl9r5WsKr/lXQeEeKPKFiC9p7OhLPGkz3GIpC3qLDrwP2inYabCSljMKltaAuE2ywt4HHySV4awwrWUMvi7hcImJBkcqFjM54A8aKcP5Pqqz4uNFYJLnEGbEM9G6DzE08UJoGgx8mHGUJY22EFq2yopxCoLRt8hSXgDXtmZuAhBbyIvdoN+sLn/9VyLOnYUQxUDO3jzHy9UMfKCXycfJLFH16wSuqtY6Y7KPNvQFg0YXD9oh37VyxLkmwZu/0YsOfMeD9yXf4iuzCfRoNGDO5dNJc/IwyolICMMMPSXuncxfbGk707/G6ckwfX3Lpd/8pXUuJapmkzBvzj5LmL/wiiaaJA91+Mzyl8kMjHySfJ1RaC5cxRd/Vy9FSSSdOPzX4foFvg8aL6hOqdM6/E2vQxyIztxMCK46ZNfW3y+IeJaA+RcLfDcfJJ8rWFYIl4flpLBDC/AKI+hXmRZrlLW4ohncYsA3ZJvVO07rnE3jkFq3remC0KgC0Eq1xSTyKihW1LSkOocAEN0s/avR1s29agzYHbJe0XIHxSqGEwLN1yxnz/ueEE61QiulKoYoUBw/wTIrqkYDr/DOMmbSUDPgPlkvolIrpYJDaY+XdFy91PJExZYdlCsCqGdgwDt2UFKLa8jN8ScHnBcq6NLaYM1NEMlOfNeAdxl1h98hku06o9i+YrKzua/ICDG27R/T1ejv4Y0F94MwZWErAgp3g/Vq+tdtjDBOHpbyuAtqH+BKDPiQW6fpRuDvgNCORnuDWsZSdP33F9vXt5R7LDuI+JLy+a7tUdOT45qEgMCHfwKeMl3XJkW6dNqjrCxlHtZSJsHan6Ajsz4xUFfCVy9OPCtc7TAkOV0FJkoFLKf5VJ+X6KKUdNxeDni6Y7XRQ8IuAYVrDskroQRCeJADBxDIz7wN6Vel/1l4nnkgmEZqBxxmbXuGdAtIMoQJU676UtdP8kCp6scYwgWPlPgJQx9QNm4FUwrurKeZfKta6sL8vs8pcN7YsEXJIdgrdkZr5at9xThcGTMZBhBatayk+rkbIiY2yZpfcfIwO4TH/Z7aNfY11mQGTi1Bnwe15V8uqzAGmpJx82IXtKHXtoC91/iIEnWxSj9MPS7gHhI9nCyza7P+si4Bqm2k+KC5b9LVs0MntaDNglwe4wGDfqlnN8WuMXOc+IguWU1EM8ortEBp8uNn4IzJdRTemTO+jTZT7tbAyQbWj/ImBm2rlHyseo71M0Bx4TBU9WOEbv6W6oDwL0oazAiZjXf8JI4AWs1C+Vsy4RKxQPJmeueqKnUH880WKIwny/brkHxBCprUOMKliVudpBrODuth5hsuB/T/Auy62C1annwCVLn9jRbUPzz5DcUxiU9fqR+sKBO4XBkwGQIMd8/QrAxzPA1jYph9a62CSin3T6MUttU5QYgArYueQvuum8O4ahtW2IpoLVONaIpz4NwnZtO8o0gTMeJcZluTXeAjnrSpP4ZHLZJfU+EO2fTPTwURl8UtF0xblVDT+ESB5NBaLzutUAAB7OSURBVMuPXpnbczwruRsiZRpjzgxeBcACvMvkYmn7Fr9s9OxNyD0qyggYeFbf1dllrJ7cFEiw/GKNqd3vMV+dDP4DGJdNrK1fsGP/itUxh5fhEmbALqk3g2hWwmkChyfGpwuWc3lghw4yDCxYG47+8lu27N1B4093KMyrGdRHXu0yfeGyR9JNLrO1yoBobcOZebk+4Gp0D2qtjqld/QILlj/AF+dtt9VqnrRUilb0cjP4jwRcNnH1umt3uPkF//ZRfgRmoGxo1xIwTxiIzF/RLfcHwuBJCUgowdooWmu8if5C5Jh+WhFffXgNmBb6C/WFPufh+OLKSHEyMDB3xk6DlHsaRLk447Yci/FS12qvMNYe7IQWLJ/gSq+2ndfNdxFor5YJl45bMMDMTyqgn05Ys/ZKOesS7wIRrcEfM84rWs454jGVHKKWBGuDaE3kbiwCcGRy8MZqZH4NwHUK4zLNch8cqyyINm6/ueW6eneZgAliYOM1jNWFsdQ+uWXB8gvG50KpPKX+AERfEqOAHYiC8YS/1jW5tuZqeehr9vUtl7TvEeFr2SMZQkDMPypY7pj5/UUSrI1Fs0v5z4OUS0UpYqfgIDAYBP/9RRDXyH/CqOAS2SU1uwqvnL3NNq9OmuLPsrbKDsXmmXOep6t91YooeJLEEYtgNW4RDe3tHvgnBDosScBjJXZDqtj/E/qWEjEzE27LMS6WB8RmczXYhno2QOdnk32YrMxX6JYr1jmKCZETm2BtxDf0ljsuFqcBWkLMxRjWL4LXiOfPp0KUhPnPAF9SqFUXUD/WxwhJhhqFAT4a4yvbaFVxXlcbO03+Qvw6gl/D1Vn5SbXJdCYTfaWTD7MIzsiWlkMi5U+h/OO3o5XBP6wAoJ+OG6xd2tO/bMx2io1Sj7C+FSP/BYbyv2H9ErS/QTedExKML0ToaL+UJkNobDT1Jn0ZhC+JdM+fCfN+VzhfpIbu8yJK1MgjYAzuXDSXP5PJGMdQUvFaKfvz885v8peoYG28fv2FylWTJp8JptPFmUan8+tqiBT7apWcSG06kqmvrd522xtffjmd0Y3tLOWSeioRXSkKCwy+u2i6h4iCJwkcqQjWRuD+vb+9rXYqmL9ERHskMaCsY1JDnHyR2rhenh7FDKwtms7ErDkYK/mHWimrTxJoN1HGzPAOL5rVJaLgiRtHer+mtyCvzNOOZo/PANHhcQ8qk3jsP9fzRSozSgHmP+mWK98+SPECqBjaxxnwm1yK8unoJn8Z/rqG6lueN+Md5HV9mYF5RBgvStVHwzG0P6rxUA+c0q1eQF5u0k1ndkBbaRYTA3ZJewSEfWIKFzkMMU4sWI5IIhp5TBsDZC5YG4EM9M7YYX131+nE/HmRTt59kyhfnRr/wJTksnmE2jJfolvuGREiSNcWGCgb+cMIym9acE3EhcFP6aa7Bw1drh31EUawNrLqr3M52+bnMytngPDObNke2rzpNVhKZ9E8yngZ+FLRdH4UJYb0bY0B0Vopw/M+pfdVO+70duEEa9PLxZ7TcwRyuTPTfsHaXzj3xLrVC/gr8mbrZvWmgMbSLEYGRGulDLBTqLozO63Jn9CCtfF6cufnd6vVla+AMD+ZN+WHZs4h95nHeLnHE0qp817aQvdP8USTUcIyYJe0RSAItIbIZ+qme3HYcYhs3xaCtZFA5xR1ex7k0z3Q54loejRihzZw+m8Wb/G+XrTAmXkXVjoT6NdYlxmAMZ54qJUyngRIEYKKDmzy11aC9cY6Vy/GVbry80CKv8Ac4qDLjSI1pFWd9GFgZdF05FFsGRfVLqlXgeiUjGG8kZ6Acwum821R8ETF0fY/W/8JDZjOIODobDdBRS1FNH9mfrxoue+LFkV6R2Wg0qupXjeeJaA7aqx4/DuryV/bC9bGovrrXPU6nQHQKSCMvd3ejEW65cgTuuP5lUeKYhvajwGcHilIrM58sW66/sOrtv90jGBtrETjpGpvyulMdDoRZmz8f3+zp+dvTeigNavNrj7mH+qW++W2vyI7YACitVJmYFAZxMxCv+O2O70dJ1hvrHN9Bt32KtUgwH/95z3tXqhm+Inx7wXLEandSTPIHf29XVIvANF/CDNIxi91y/mUMHhaBNKxgrUpH05JPaROOIMYx3bqOhezd1zRqt7S4nUg3WJmYENrJVucfnCd0eRvTAjWxmuxMl/bhT327+VPBWiS//+dcodIhHcXFjh/ifl3J8NFYKBc0r5OhAsjhIjVlZl/VbTcE2MNmnKwMSVYm65zgad8lkBfACGfMueJpJN7sBKhNVLQRjulbdRy9D2DkWBs7lwf3FNfuPyJGCOmGmpMCtam61zOKm1Onbwv+4fCiv+24EjXBr+om+60VK8cmSwQA6KdKMXgJUXTbduWTmNasDa94myj50D2lG+RgoOz2qn8ZtuaDQd8BeytxcBjRdMRpr1JoF/yGDIqG9ozBMwUZcjk4eBCn3OPKHjC4JCC9Ra23Ln5Qo2oj4g+HIbISLZ+87+3vmwdYnGtE9YmNvLn76dTr60+FYlPwZwrJW0+E64RBhbjUd1y3i8MnhBApGANQ5Z/orXzVP4bDPoWiHIh+GxqOkQ4wz9ccKiv1gifEIIF5h/olvuVpskFN7Dn5j8JRfkFAwPEfCfAi6mmLC70Oy8JDn1UeCK2Uiav/vFC38CiduNVCtYoFavM1T7IxP0gKrRa2M0FKqF+EJ73Bb2v2tYnb5dL+VlEdOOWt+PsgekPvniBvcWF+sDvqB/1VuuRlZ9t5D8GKDdmlf+tedu1yZ8UrCZX0Eu92269qmvS5UQU4nFwo3fyUA/lgOtQW8AIMcMi4NiC6dwuyo8hLI7KXO0gVnB3ED8GryLQUsXj33pYt1Dve6EaxE8EG9FaKTPzaUXLvUoEboJikIIVkKmKkf8Ug34E0OQtXYZu8RodtVoVqLcE3SB3gdAx195VtJb9NZCxYEbl0ox3gnIPEmhqGGjMWE+EcQz8jfxbR6LfYD3uKfQ7r4eJk6ZtpaR9hAnCLHYzuFw03Z3S5CBqLilYIRgsG9PfpnDXDUx4jz+D2nBOTsuTqNEXPoLPztp1D9aGBxyPtLRPyeN1UGizQ0uYsQ7E9yvMiwFlccFy/hyivKmY2iX1TpFOimLgi0XT+Z9UBh9DEilYIUksG/mzCMpFId2SM2deoVvujsklSCay34zRq9FDAHZpNUOzWSgzlhH4TmJvMeq5O0RYvLfnTH8Xct3ivJHQZk3+pGCF/LXYhno2QOeHdAtl7s/cQmxifUQ3nQ+ESpCxcXVWftLgFLqfiN4bDcqGhoxBgjD7d+2PE2MxgRZrA84DWfU7L5fU64nohCCw07Hhb+mm+510ckXLIgUrJH+OUTjfA58d0i2UOXPwtTAG9xdN96RQCTI05l7k7C71TiLK9kh15tUA7gbzYupSFheudZ5OixbhWimjfZr8ScEKeZXahvpTgD4b0i2ceaiJA/6raDlfC5cgO+uyoV5HoN7sEAyfmYFn/NtHX8Am1AaX7Ni/whe0xD62oV4B0GmJJQgbuE328knBClnYNKbzIfQK8Phzep/7s5DDyMS8UlIvYaIvZpI8TFLmGkAPNvZ+efU7C3sse4zOhRcmRDNb0Vop+03+xucGtRnXLH++GfYsv5eCFZL9NA7MDLEFy39CeUxhgfPrkMNI3bxsaGcRkMDDilDy3uK4+UUA/snOi8flarfH9aMuG/kfEZR/bxFU7G7MuLxoOZ+OPXCMAaVghSSzXFKfJKLdQ7qFMm/29GvTYF31+jvyCweeDJUgZeOKoc1j4NqU0yaXjvGEP/ti8GL95eq9rR6t1mjnjSmV4ff2JQd/xMjM9W6u79LTt+y5DLIHSikFKxBNbxrZJXUFiJJt5RJiilUf50yceSXWhhxGauYVQzuGgdtSS5h2IsbrINzbEDCqLy4uWPa3MBBsQ/0OQN8I45OkregPcaRghay+bWhDx0Qn+gl2m8Pg54umG/FA2eQGYs+Z8X7Odd2bzGndb+IOuQ0kuQE3IrMDpjv92ddWr6+5c9sbX355tITitVIGIHCTPylYIS7flbO32WbVpCkrQ7i0aBpMsMD8sG65H2oxSaJu/qP7eo4eJmCbRBMJHZw9gB4dmn3xYn199aHhXty256rfgEIi7YNarJvOUSJSKwUrRFWGesLjnyFcEjblhbrpzk04Sejwz82f1qPUJzyaavvpELfRoQcUkwMzXiFgqT/7yim4TVvgOn5o/w/hqxOnLPffjYwpVeQwTN7+xQXVByIHijmAFKwQhFYM7QMMPBzCJbxpwMlV4+YD3veKZvXr4ZMk59HobtE96WEC7ZZclmEit4FgbYGa+Z9M/GsFymJmniPSEffM/GDRctNrYhnwYpGCFZAo38w2eo4EcneEcEnWVLA9WP6hC5VttXsBtNWrQskWqX2jKx4fpvW5d4k0AilYIaphl/IlkGKGcAlvGmqmUD9KNwcWh08Sv4ffW6JS0m4HIbu1j1Dcxc9Bp0Vk5qVFyz1UpHFJwQpRjXJJ/b9ElOiu8jBPvHKKt7so/c9tQ7scQMYnC4e4nw5R97FsyqjvUzQHHhOFAylYISqR3G7tN0GE2TSqm44Q9bMN9TyAvhmCSmnaLgwwLN1yDFHgCnHBi0JGMxxlI38RQTmrmV2k7wPe1vi9noqW0xMpVwzOGw+OiCFUPCEC8hdPss6PwsDaqYNrZmzXv/IVEUYrBStEFcTq1MAP6aa7bwj4sZuOfHBE7KkCBwxzSx046Fg3ZO903ar+RAQapGCFqIJtaAsAJDw9DrgOk/FUvTwvvx88ZalIe4dClFKahmFAoA3KUrBCFK5cUm8lomNDuCRoyhfopvufCSYYMXSlpL3bI9xHwFZZ5G+Wc8O52c3M5PeBGWBvwuD6rZPuERYEjhSsICxtsEm8tUyI9RcG/m/RdC4LAT8W00gHR8SCIEiQgLPUIKGkTYMB4vrRBWsg8z2IUrBCXJC2ofmnsOwZwiWUaaj1l3r9SH3hwJ2hEkQ0rvRq23EXfg/CzhFDSfd2Y4D5Qt1yE20NHoQSKVhBWNo4wzLUMkB6CJdwpiFmWATsWjCd1N5rjO/giHCUtGwdgsuWc4wtRyFeiJaCFeKiKxvaSwRsG8IlnGmIO5nCrk4u7ra9I4EV5uCIMGyG4DJM2DFs+xfddN6d9filYIWogG2odYCUEC4hTQP+yhiubjlayOAtm9slzQSh1HIA6dj+DAhy/qUUrBCXUjrN+5oDYubfFS13v+aW0S1sQ/sxgNOjR8oggrwtjI90ZtYtN8E/1sGgSsEKxhOqpfy0GikrApq3ZhbwB8bAgqLpzG8tSXCvSkn7GhO+F9xDMMuAfAqGWlg4jFXbFc1XUmhgOTIFUrACXh5Vo6dYQy7R5vyB3yNkPl+33ET7gHfcwREB6yzNRmBAzrDa69Kw50x/F3LdfxEBNTE+XbAcvztCIp9G3y9WbgNRLpEEaQaVs6xY2GZgoGg6+ViCRQgiZ1gByUu622jA5fYGWoZ3eNGsLgkIPZRZ2ejZm6DcC9CkUI7JGr+i0OBRda9LJ2A+iGYlm05GfysDDP5D0XT3zpoZKVgBK+CU1EM8ouS6L4aZCdTX76IvfP5fAaEHNhPv4Aj21bkGrp2g9y2/eeNA/DbMq3MTTwCR38/+kI6YCQauUkaGzLfolntcRtnfSCsFK2AFhjoTKG/8aAK6BTZjZhAFK0cSe7CWnTx9x/W17sdTPThiBHb8dwG9DVNO8vAJvc+9ciQifdyD9dxJHlOJgH2HJTHMH4PAFRtrhvyfuulekPWog/1CskYpQH57bn4OFKUvKSjBX8thRzfdQpw4nu/dYcrarvEPgvCuOOO2GquhVb6CA1/VLfcHQeNU5u+wC3vjH2HwNoRNLm0pWEEpHNFOlM6jUrACltI21NMAuiKgeXizoD8q5vt1yz0gfILhPfgz6K6sUpeCaP+4YkaO05hu4sJWulH4208GSZmX87i3TrSfP1tDwJlrZNwdGoCBlUXT2U6E4UnBClgF21A/B1ByTcyCC9ZVuuWeFhB2UzO7pN0AwvFNDRM02PKBA1+pm+4noqZcdvL0yYO17qM88CeIsS8UEuJHF3VcqfszX6db7pzU8w6TUApWwCrYJfVMEAW+PQkY9k2zoIIF/o5uut8KHX8YhywPjmjMfPwnnkzY9O6NwLcWTDf2p4B8LpTq3/Mf8gizGMosEN4ZB4djIYZIx31JwQp4xZVL6n8QUeaLjvC8T+l91V8GhD2iWbmkfZsIsQhfeCz+ip2vU5tffsT8cMFyPxQ+XniPRl8vRTke4FkAfYSA7vBRxoBHzEsQURmTghWQwWx/4G+CVJgP1Sx3aUDYw5oJd3DE0Fzrn7rp7hplXK36+g8dXu8edzSAWQQcA9D2rcbqND9RFts38ioFK+AVluyJOcG3jTIGdy6ay58JCHsLs6wOjmg889v87m/T22G3sJurp9Uupxl39tyeA4joGA80m4h2b2bfsd8LtHYlBSvkVWYb6g8BOiOkW0Dz4IIVZQ9WFgdH+H8RvSGtGuHDLxa2d1X6X6wLSFaqZv47pIPs3zpiFogOGDO3jswrpr6+Ztdtb3z55VQJb5JMzrACViPRNivBF9xt3XSLASFvZlYuzXgnKPcggaa24h/eZ/h1qs3iMFZTDTsW+p3Xw8dP3+PFedtttaY+4WhWlFnEOBqEjn3qyOwdUbSqv0mf5dEzSsEKWJFySft/RPg/Ac1DmgWeYd2rm85HQgZHmgdHDJ1Y03wCz4x1Sg07F/odN+x4RLD3nzpW/tGzP5CbxeBZBNpNBFwxYbhUN50vxBQr1jBSsALSaRvqFQDFtv9p85lGwM2NzFfrlntqQMgNs1QPjhjaoj7qDeAG7INMr+1VXPDS38KMRWTbZb3TZ67v6joe8F/M5v1B1CUy3lGw3VSoOifSPaiJiF8KVsCqlEvqNUSUTNO8gLeEDHy7aDrnBoQMMQ+O4Dp5tf0KfcsfDjqOdrNrvJzdNfEYQJnFhKMSPQcgTnIYv9Qt51Nxhow7lhSsgIwm29c80KzEf/T/Cd0c+UXgTYeSxsERQwvq/ls0AS+jxis3g0fr5vOLA9LeEWZDnT7wUTA+CqK3Czko5m/olnu+kNg2ARXwShN9GMnjKxvqdQTqTSJT0E6j5OHgQp9zTxAMSeLdmD/4C9uNJl7+nvZTCpZzbRD8nWrjzs/vVvcwy599gXm/rFvjMPOTIO/kojnwWDtwLgUrYJVsQ7WARv+lzD7dXm1mT9+ypm2aE32i2cro/ZkV87/pfdVLW3HvVB//1nFN9+SP+ov2zHQUEbZOa6zMWK8QLtCmOBfQZRhMK2/UPFKwAjKY1KJ74FkKc72wmzuu2ebKSin/VSbl+wGHFdisMQsMeuf6lqjMOK9oOecETjZGDR1DPZiZj/CIjiLQXknQwOBVxLiManRxOz6hlYIV8Kool/KXESmfDmge3Czogjvzc0XLnTla4GQOjtggqS2KFQBhH5EHL1L6ls4p6vZejQ8HK8cBfDiIpkVCwfwnAv1ifG3dFTv2r1gdKVaGzlKwApJvG9r/Aoh/b0pQwQLfXTTdQ0aC2zg4Ark7Ag4noJl/J0ett5Py+Aa9zz0hYDJpNgoD7tz8ez1FeQfY25lBOwOkA/BFbFsQb7tpD35mfg6EZwH+vQLl3kn02v3bL3jp1U4gWApWwCraJfW/QfTlgOYhzIJOXUbuEeUY6l510IMETAiReFTTwLeqI0RJ87DXuMYs44jPgBSsgDUql7TvEeFrAc0Dm/n7LP3HZ80+BJxbMJ1vv9WubEx/G6Hr97F1GAg442uidk/olrNnszHJ7yUDYRkI8FMJG7Iz7csl7ftE+GrsowsoEAw+tWi6V2+av3FwRL3rkQ23B5GhBYTSbGZW1nd139bs4UBksDLAmGRAClbAsic1w2o8egvUc7z+Ed0cuHcjXNEOjmjgYl5RmOqq7fSYPGD5pZkgDEjBCliIxPphBVzC6hr0ivn+qt3QhZgOjgislQE4YsarE2vr1HZ+AhVgmNIkYwakYAUsgG2o5wN0dkDzYGZBFYO5rltu42Vafz5WKak3gijaoZYBhTLgQF6rrR5829tufn55MHtpJRlojQEpWAF5S6RFckDBYuCZouns7EPN8uCIYalirPe6Bnff6ZrlzwakUppJBlpmQApWQOpsQ/0mQOcFNA9mFliw+K6i6R5WMbRzGAjcrWEjiMZLyiFOlg4GvnHYaY3Z21fvG3g0qI+0kwxEYUAKVkD2Ejk1J6BgAfgFPO93UJRfBIT7hlnj2PdhTqgJG2dLe/bYwxHFPveu6LFkBMlAMAakYAXjCXZJ/TKI/jugeTCzwOtI/BBA4Y+/Ci6IwfButGJmhesnaX3Lrg/nKK0lA9EYkIIVkL+yof07AT8KaB7QLLBiBYw3dNhDqy8pB0rCzB74MztZ1csD2UsjyUCMDEjBCkhm2dA+Q8DPA5oHM4t1BjT03t+IR2kFQ9Tcyqt/U+8b+G5zQ2khGYifASlYATktG+opBLoqoHmqZqE7f7aIzmP+4U6Wm8D7lC0Ckm5jjgEpWAFLXjbUXgJdF9C8qVkcN4NpCdXQYHihbrqZNjBsSqo06HgGpGAFLLEzVz3WU+jWgOZNzaJ2Q2hsIQ3aS70pmtENCHx3YZTWNhHDS3fJQGAGpGAFpKoyVzuIFdwd0DyAWeuCE+vSVzOkjMd0y9mnmZn8XjKQBgNSsAKyXDZ69ibkMtsg6behaZxQE+hF6YCDambG/A/dcjvpgNBmI5bfC86AFKyABaqW8rvXSHkyoHlzsxDTpKHbR/+TXrmYsUyf6uiy80LzUkqL9BhI7xeQ3pgSyWTPnZaHMiHGY9Wb3xIO7VIPfOpfbONmYOXEwXW67LwQG6UyUEwMSMEKSOSyk6dPXl/vbtvm/QGH6e86Xd21mmfmb6m+ENhHGkoGUmJAClYIom1D86dF0T8j3A4O7VIP2tAvOowtIjDWebm1M3e69oWBBKLLkJKByAxIwQpBYdlQlxNoxxAuw5u+RZT8Wz9/fSpTsQIGkRt8n37N8icij08GkAwkxIAUrBDElkvqk0S0ewiXEUw3Xb/yT6Hw9SrLUnB9vMcHTu+r/i762GQEyUByDGT5K0luVAlFtkvavSAcEDW8v0XBf+AXz/1lVDRArk6z1YWVm6JHkhEkA8kyIAUrBL/lkno9EUU+GDT6LvcQoEcx9RsvkMcf1xdWpVjFQ6mMkjADUrBCEGwb6k8B+mwIF3FNmevj63zU9OuqS8QFKZFJBjZnQApWiCvCNtTzAPpmCBcxTZlriocDtIXuQ2IClKgkA8MzIAUrxJVhG+rnAPpJCBfhTBlYy/X6+3ZaOBDfrn3hRikBdSoDUrBCVLY8T/0oMd0SwkUsU8YrSjfvrF3tvigWMIlGMhCMASlYwXhqWDlz1Pd4OfpjCBdxTJlXdIHfkbfkDnZxiiKRhGVAClYIxiq92nbcjbabnRC4TF3YW86sQhRbmgrJgBSskGWxS+oqEE0J6ZahOf9z6mtrPrDtjS+/nCEImVoyEAsDUrBC0miX1IdA9MGQblmZ/23qa6v3k2KVFf0yb9wMSMEKyahdUq8E0akh3bIwf4Sx6sii+crKLJLLnJKBJBiQghWS1bKhnUXARSHd0jVnvrk+3p0z80qsTTexzCYZSJYBKVgh+a3M045mxu0h3VI054sLpvtlgV5VTHHsMlWnMyAFK2SFn5s/rUfxJlRDuqVj7vHn9D73Z+kkk1kkA+kzIAWrBc7tkvYiCNu14JqMC/NqeN4J+sKBO5NJIKNKBsRgQApWC3Uol9RbiejYFlzjd2G4XV798Lx81SZ+bmVE4RiQgtVCSWwj/xVA+a8WXGN1YfAfJvDgMdOt55fHGlgGkwwIyoAUrBYKY8/t2QdK7pEWXON0uamw0plDv8a6OIPKWJIBkRmQgtVidWxDfQGg7Vt0j+bGfL5uud+IFkR6SwbajwEpWC3WzDa0ywF8qkX31tz8xXXiT+tmta+1ANJLMtDeDEjBarF+FUM7hoHbWnRvxW0xvLWf1PteEHNLRSsjkj6SgZAMSMEKSdim5uWSuoyIpkcIEcCV1zDj9KLlXhXAWJpIBjqaASlYEcpbKeUvZFK+HiFEM9dHuga9E/P9VbuZofxeMjAWGJCCFaHK1d68XutWyhFCjOzq8Tf1Pve7icSWQSUDbcqAFKyIhSuXtO8T4asRw7zhzuD+HOFMbYHrxBVTxpEMdAoDUrAiVvLFedtttYYnPQZgl4ih7lWIz9IWyJNsIvIo3TuYASlYMRS3YmhvZ8ZDrbxfyOC7Cd73dHNgcQxQZAjJQEczIAUrpvJWejWVu3AHCO9qHpLXgHEdk3dp0RzwZ2fyIxmQDARgQApWAJKCmjinqNt7Nfo2A/MI2GYzP4bLwA1E9dvkbCooo9JOMrA5A1KwEroinHmqBg8FZhrPXB9HXu7RQr/z0vO9O0zZsX/F6oTSyrCSgY5mQApWR5dXDk4y0FkMSMHqrHrK0UgGOpqB/w+pziJo4Cz4xgAAAABJRU5ErkJggg==;sketch=1;rounded=1;" parent="1" vertex="1">
          <mxGeometry x="495.5" y="345" width="80" height="80" as="geometry" />
        </mxCell>
        <mxCell id="URb7ShDhbX8bjMATs06p-11" value="RAW Zone" style="text;html=1;strokeColor=none;fillColor=none;align=center;verticalAlign=middle;whiteSpace=wrap;sketch=1;rounded=1;" parent="1" vertex="1">
          <mxGeometry x="132.72" y="53" width="76.37" height="20" as="geometry" />
        </mxCell>
      </root>
    </mxGraphModel>
  </diagram>
</mxfile>
